Spritulo.ufo
<glyph name="numbersign" format="2">
  <advance width="428"/>
  <unicode hex="0023"/>
  <outline>
    <contour>
      <point x="181" y="77" type="curve" smooth="yes"/>
      <point x="181" y="52"/>
      <point x="203" y="63"/>
      <point x="203" y="43" type="curve" smooth="yes"/>
      <point x="203" y="27"/>
      <point x="191" y="10"/>
      <point x="174" y="10" type="curve" smooth="yes"/>
      <point x="164" y="10"/>
      <point x="149" y="19"/>
      <point x="138" y="24" type="curve" smooth="yes"/>
      <point x="122" y="32"/>
      <point x="117" y="51"/>
      <point x="117" y="78" type="curve" smooth="yes"/>
      <point x="117" y="147"/>
      <point x="118" y="205"/>
      <point x="118" y="224" type="curve"/>
      <point x="86" y="224" type="line" smooth="yes"/>
      <point x="60" y="224"/>
      <point x="29" y="224"/>
      <point x="19" y="254" type="curve"/>
      <point x="17" y="262"/>
      <point x="16" y="267"/>
      <point x="16" y="269" type="curve" smooth="yes"/>
      <point x="16" y="285"/>
      <point x="33" y="301"/>
      <point x="51" y="301" type="curve" smooth="yes"/>
      <point x="70" y="301"/>
      <point x="97" y="288"/>
      <point x="123" y="288" type="curve"/>
      <point x="126" y="317"/>
      <point x="134" y="397"/>
      <point x="134" y="424" type="curve"/>
      <point x="118" y="424"/>
      <point x="88" y="419"/>
      <point x="85" y="416" type="curve"/>
      <point x="80" y="413"/>
      <point x="75" y="411"/>
      <point x="67" y="411" type="curve" smooth="yes"/>
      <point x="54" y="411"/>
      <point x="42" y="413"/>
      <point x="32" y="421" type="curve"/>
      <point x="21" y="429"/>
      <point x="13" y="430"/>
      <point x="13" y="448" type="curve" smooth="yes"/>
      <point x="13" y="481"/>
      <point x="18" y="482"/>
      <point x="59" y="485" type="curve"/>
      <point x="102" y="490"/>
      <point x="123" y="496"/>
      <point x="139" y="496" type="curve"/>
      <point x="141" y="512"/>
      <point x="146" y="542"/>
      <point x="146" y="576" type="curve" smooth="yes"/>
      <point x="146" y="610"/>
      <point x="146" y="644"/>
      <point x="180" y="644" type="curve" smooth="yes"/>
      <point x="182" y="644"/>
      <point x="185" y="643"/>
      <point x="187" y="643" type="curve" smooth="yes"/>
      <point x="209" y="639"/>
      <point x="210" y="633"/>
      <point x="210" y="611" type="curve" smooth="yes"/>
      <point x="210" y="589"/>
      <point x="210" y="533"/>
      <point x="205" y="507" type="curve"/>
      <point x="237" y="510"/>
      <point x="259" y="514"/>
      <point x="294" y="514" type="curve"/>
      <point x="296" y="573"/>
      <point x="301" y="590"/>
      <point x="325" y="590" type="curve" smooth="yes"/>
      <point x="339" y="590"/>
      <point x="356" y="576"/>
      <point x="356" y="556" type="curve" smooth="yes"/>
      <point x="356" y="549"/>
      <point x="349" y="534"/>
      <point x="349" y="515" type="curve"/>
      <point x="375" y="515"/>
      <point x="389" y="514"/>
      <point x="397" y="504" type="curve" smooth="yes"/>
      <point x="408" y="490"/>
      <point x="411" y="486"/>
      <point x="411" y="480" type="curve" smooth="yes"/>
      <point x="411" y="463"/>
      <point x="400" y="446"/>
      <point x="382" y="443" type="curve"/>
      <point x="380" y="443" type="line" smooth="yes"/>
      <point x="374" y="443"/>
      <point x="370" y="447"/>
      <point x="359" y="447" type="curve" smooth="yes"/>
      <point x="357" y="447"/>
      <point x="353" y="447"/>
      <point x="350" y="446" type="curve"/>
      <point x="350" y="422"/>
      <point x="352" y="344"/>
      <point x="352" y="330" type="curve"/>
      <point x="362" y="333"/>
      <point x="370" y="333"/>
      <point x="392" y="333" type="curve" smooth="yes"/>
      <point x="414" y="333"/>
      <point x="424" y="329"/>
      <point x="424" y="307" type="curve" smooth="yes"/>
      <point x="424" y="281"/>
      <point x="416" y="274"/>
      <point x="390" y="272" type="curve" smooth="yes"/>
      <point x="377" y="270"/>
      <point x="367" y="270"/>
      <point x="354" y="267" type="curve"/>
      <point x="354" y="225"/>
      <point x="347" y="245"/>
      <point x="347" y="146" type="curve" smooth="yes"/>
      <point x="347" y="119"/>
      <point x="340" y="105"/>
      <point x="334" y="102" type="curve" smooth="yes"/>
      <point x="326" y="97"/>
      <point x="322" y="96"/>
      <point x="320" y="96" type="curve" smooth="yes"/>
      <point x="306" y="96"/>
      <point x="290" y="112"/>
      <point x="290" y="170" type="curve" smooth="yes"/>
      <point x="290" y="248" type="line"/>
      <point x="264" y="240"/>
      <point x="219" y="229"/>
      <point x="187" y="224" type="curve"/>
      <point x="182" y="187"/>
      <point x="181" y="111"/>
    </contour>
    <contour>
      <point x="197" y="434" type="curve"/>
      <point x="194" y="413"/>
      <point x="187" y="334"/>
      <point x="187" y="294" type="curve"/>
      <point x="200" y="294"/>
      <point x="268" y="312"/>
      <point x="290" y="318" type="curve"/>
      <point x="290" y="442" type="line"/>
      <point x="250" y="442"/>
      <point x="229" y="437"/>
    </contour>
  </outline>
</glyph>
<glyph name="slash" format="2">
  <advance width="427"/>
  <unicode hex="002F"/>
  <outline>
    <contour>
      <point x="146" y="205" type="curve"/>
      <point x="128" y="171"/>
      <point x="120" y="156"/>
      <point x="104" y="126" type="curve" smooth="yes"/>
      <point x="94" y="107"/>
      <point x="73" y="48"/>
      <point x="70" y="26" type="curve" smooth="yes"/>
      <point x="67" y="8"/>
      <point x="64" y="2"/>
      <point x="50" y="2" type="curve" smooth="yes"/>
      <point x="32" y="2"/>
      <point x="16" y="17"/>
      <point x="16" y="38" type="curve" smooth="yes"/>
      <point x="16" y="54"/>
      <point x="26" y="69"/>
      <point x="34" y="88" type="curve" smooth="yes"/>
      <point x="50" y="130"/>
      <point x="43" y="128"/>
      <point x="85" y="208" type="curve" smooth="yes"/>
      <point x="107" y="251"/>
      <point x="126" y="280"/>
      <point x="134" y="296" type="curve" smooth="yes"/>
      <point x="161" y="349"/>
      <point x="172" y="385"/>
      <point x="198" y="422" type="curve"/>
      <point x="232" y="467"/>
      <point x="214" y="454"/>
      <point x="248" y="518" type="curve" smooth="yes"/>
      <point x="288" y="595"/>
      <point x="266" y="563"/>
      <point x="309" y="638" type="curve" smooth="yes"/>
      <point x="327" y="668"/>
      <point x="345" y="691"/>
      <point x="358" y="707" type="curve" smooth="yes"/>
      <point x="364" y="715"/>
      <point x="375" y="718"/>
      <point x="394" y="718" type="curve" smooth="yes"/>
      <point x="412" y="718"/>
      <point x="419" y="715"/>
      <point x="419" y="704" type="curve" smooth="yes"/>
      <point x="419" y="696"/>
      <point x="417" y="683"/>
      <point x="411" y="670" type="curve"/>
      <point x="403" y="648"/>
      <point x="397" y="641"/>
      <point x="379" y="614" type="curve" smooth="yes"/>
      <point x="353" y="574"/>
      <point x="339" y="545"/>
      <point x="307" y="486" type="curve"/>
      <point x="286" y="451"/>
      <point x="280" y="436"/>
      <point x="256" y="394" type="curve" smooth="yes"/>
      <point x="253" y="389"/>
      <point x="224" y="347"/>
      <point x="202" y="299" type="curve" smooth="yes"/>
      <point x="188" y="267"/>
      <point x="167" y="242"/>
    </contour>
  </outline>
</glyph>
<glyph name="one" format="2">
  <advance width="274"/>
  <unicode hex="0031"/>
  <outline>
    <contour>
      <point x="51" y="230" type="curve" smooth="yes"/>
      <point x="42" y="230"/>
      <point x="24" y="251"/>
      <point x="24" y="272" type="curve" smooth="yes"/>
      <point x="24" y="278"/>
      <point x="26" y="280"/>
      <point x="29" y="286" type="curve"/>
      <point x="56" y="328"/>
      <point x="89" y="352"/>
      <point x="115" y="376" type="curve"/>
      <point x="139" y="400"/>
      <point x="152" y="411"/>
      <point x="157" y="422" type="curve" smooth="yes"/>
      <point x="165" y="441"/>
      <point x="168" y="448"/>
      <point x="184" y="448" type="curve" smooth="yes"/>
      <point x="203" y="448"/>
      <point x="211" y="440"/>
      <point x="221" y="429" type="curve" smooth="yes"/>
      <point x="227" y="421"/>
      <point x="230" y="390"/>
      <point x="230" y="323" type="curve" smooth="yes"/>
      <point x="230" y="317"/>
      <point x="227" y="146"/>
      <point x="227" y="144" type="curve" smooth="yes"/>
      <point x="227" y="12"/>
      <point x="245" y="77"/>
      <point x="245" y="19" type="curve" smooth="yes"/>
      <point x="245" y="8"/>
      <point x="245" y="4"/>
      <point x="242" y="2" type="curve"/>
      <point x="237" y="-3"/>
      <point x="205" y="-13"/>
      <point x="197" y="-13" type="curve" smooth="yes"/>
      <point x="178" y="-13"/>
      <point x="162" y="-2"/>
      <point x="162" y="16" type="curve" smooth="yes"/>
      <point x="162" y="52"/>
      <point x="158" y="75"/>
      <point x="158" y="115" type="curve" smooth="yes"/>
      <point x="158" y="182"/>
      <point x="168" y="275"/>
      <point x="168" y="296" type="curve" smooth="yes"/>
      <point x="168" y="309"/>
      <point x="167" y="320"/>
      <point x="165" y="328" type="curve"/>
      <point x="131" y="307"/>
      <point x="65" y="230"/>
    </contour>
  </outline>
</glyph>
<glyph name="three" format="2">
  <advance width="408"/>
  <unicode hex="0033"/>
  <outline>
    <contour>
      <point x="200" y="435" type="curve" smooth="yes"/>
      <point x="266" y="435"/>
      <point x="284" y="415"/>
      <point x="310" y="378" type="curve"/>
      <point x="321" y="364"/>
      <point x="330" y="312"/>
      <point x="330" y="270" type="curve" smooth="yes"/>
      <point x="330" y="233"/>
      <point x="315" y="165"/>
      <point x="262" y="125" type="curve"/>
      <point x="294" y="112"/>
      <point x="308" y="98"/>
      <point x="334" y="80" type="curve"/>
      <point x="369" y="54"/>
      <point x="379" y="32"/>
      <point x="379" y="-11" type="curve" smooth="yes"/>
      <point x="379" y="-37"/>
      <point x="375" y="-61"/>
      <point x="357" y="-85" type="curve" smooth="yes"/>
      <point x="341" y="-107"/>
      <point x="301" y="-150"/>
      <point x="272" y="-179" type="curve" smooth="yes"/>
      <point x="229" y="-221"/>
      <point x="191" y="-248"/>
      <point x="154" y="-248" type="curve" smooth="yes"/>
      <point x="127" y="-248"/>
      <point x="91" y="-231"/>
      <point x="91" y="-205" type="curve" smooth="yes"/>
      <point x="91" y="-197"/>
      <point x="98" y="-192"/>
      <point x="109" y="-189" type="curve" smooth="yes"/>
      <point x="141" y="-181"/>
      <point x="189" y="-160"/>
      <point x="227" y="-134" type="curve" smooth="yes"/>
      <point x="257" y="-113"/>
      <point x="312" y="-56"/>
      <point x="312" y="-24" type="curve" smooth="yes"/>
      <point x="312" y="22"/>
      <point x="249" y="56"/>
      <point x="198" y="56" type="curve" smooth="yes"/>
      <point x="179" y="56"/>
      <point x="158" y="51"/>
      <point x="147" y="51" type="curve" smooth="yes"/>
      <point x="123" y="51"/>
      <point x="112" y="59"/>
      <point x="112" y="77" type="curve" smooth="yes"/>
      <point x="112" y="109"/>
      <point x="135" y="125"/>
      <point x="154" y="130" type="curve"/>
      <point x="197" y="138"/>
      <point x="269" y="208"/>
      <point x="269" y="270" type="curve" smooth="yes"/>
      <point x="269" y="318"/>
      <point x="246" y="363"/>
      <point x="198" y="363" type="curve" smooth="yes"/>
      <point x="171" y="363"/>
      <point x="147" y="354"/>
      <point x="128" y="336" type="curve"/>
      <point x="109" y="317"/>
      <point x="96" y="319"/>
      <point x="78" y="285" type="curve"/>
      <point x="68" y="264"/>
      <point x="59" y="254"/>
      <point x="51" y="254" type="curve" smooth="yes"/>
      <point x="41" y="254"/>
      <point x="34" y="271"/>
      <point x="34" y="301" type="curve" smooth="yes"/>
      <point x="34" y="349"/>
      <point x="45" y="368"/>
      <point x="72" y="382" type="curve"/>
      <point x="109" y="403"/>
      <point x="141" y="435"/>
    </contour>
  </outline>
</glyph>
<glyph name="four" format="2">
  <advance width="443"/>
  <unicode hex="0034"/>
  <outline>
    <contour>
      <point x="435" y="50" type="curve" smooth="yes"/>
      <point x="435" y="40"/>
      <point x="431" y="6"/>
      <point x="341" y="6" type="curve"/>
      <point x="341" y="-85"/>
      <point x="365" y="-165"/>
      <point x="371" y="-173" type="curve" smooth="yes"/>
      <point x="379" y="-183"/>
      <point x="382" y="-193"/>
      <point x="382" y="-203" type="curve" smooth="yes"/>
      <point x="382" y="-214"/>
      <point x="371" y="-242"/>
      <point x="358" y="-242" type="curve" smooth="yes"/>
      <point x="353" y="-242"/>
      <point x="349" y="-240"/>
      <point x="341" y="-238" type="curve" smooth="yes"/>
      <point x="303" y="-230"/>
      <point x="291" y="-185"/>
      <point x="272" y="-94" type="curve" smooth="yes"/>
      <point x="269" y="-80"/>
      <point x="264" y="-34"/>
      <point x="262" y="3" type="curve"/>
      <point x="222" y="3" type="line" smooth="yes"/>
      <point x="191" y="3"/>
      <point x="150" y="-2"/>
      <point x="113" y="-2" type="curve" smooth="yes"/>
      <point x="90" y="-2"/>
      <point x="68" y="0"/>
      <point x="51" y="6" type="curve" smooth="yes"/>
      <point x="29" y="14"/>
      <point x="24" y="40"/>
      <point x="24" y="74" type="curve" smooth="yes"/>
      <point x="24" y="106"/>
      <point x="40" y="133"/>
      <point x="46" y="146" type="curve" smooth="yes"/>
      <point x="67" y="189"/>
      <point x="75" y="218"/>
      <point x="96" y="264" type="curve" smooth="yes"/>
      <point x="102" y="277"/>
      <point x="118" y="302"/>
      <point x="160" y="408" type="curve" smooth="yes"/>
      <point x="170" y="430"/>
      <point x="179" y="459"/>
      <point x="192" y="459" type="curve" smooth="yes"/>
      <point x="203" y="459"/>
      <point x="230" y="443"/>
      <point x="230" y="432" type="curve" smooth="yes"/>
      <point x="230" y="385"/>
      <point x="180" y="278"/>
      <point x="158" y="230" type="curve" smooth="yes"/>
      <point x="140" y="190"/>
      <point x="115" y="153"/>
      <point x="104" y="102" type="curve" smooth="yes"/>
      <point x="103" y="99"/>
      <point x="103" y="96"/>
      <point x="103" y="94" type="curve" smooth="yes"/>
      <point x="103" y="78"/>
      <point x="118" y="74"/>
      <point x="138" y="74" type="curve" smooth="yes"/>
      <point x="176" y="74"/>
      <point x="178" y="78"/>
      <point x="222" y="78" type="curve" smooth="yes"/>
      <point x="239" y="78"/>
      <point x="254" y="78"/>
      <point x="269" y="77" type="curve"/>
      <point x="271" y="109"/>
      <point x="288" y="176"/>
      <point x="290" y="197" type="curve" smooth="yes"/>
      <point x="292" y="221"/>
      <point x="307" y="243"/>
      <point x="333" y="243" type="curve" smooth="yes"/>
      <point x="343" y="243"/>
      <point x="352" y="240"/>
      <point x="352" y="234" type="curve" smooth="yes"/>
      <point x="352" y="228"/>
      <point x="352" y="200"/>
      <point x="347" y="152" type="curve" smooth="yes"/>
      <point x="339" y="78" type="line"/>
      <point x="348" y="76"/>
      <point x="357" y="75"/>
      <point x="365" y="75" type="curve" smooth="yes"/>
      <point x="381" y="75"/>
      <point x="395" y="78"/>
      <point x="410" y="78" type="curve" smooth="yes"/>
      <point x="416" y="78"/>
      <point x="435" y="58"/>
    </contour>
  </outline>
</glyph>
<glyph name="five" format="2">
  <advance width="422"/>
  <unicode hex="0035"/>
  <outline>
    <contour>
      <point x="242" y="99" type="curve" smooth="yes"/>
      <point x="183" y="99"/>
      <point x="99" y="58"/>
      <point x="68" y="58" type="curve" smooth="yes"/>
      <point x="41" y="58"/>
      <point x="33" y="68"/>
      <point x="33" y="106" type="curve" smooth="yes"/>
      <point x="33" y="132"/>
      <point x="36" y="168"/>
      <point x="41" y="222" type="curve" smooth="yes"/>
      <point x="46" y="281"/>
      <point x="55" y="339"/>
      <point x="59" y="370" type="curve"/>
      <point x="47" y="382"/>
      <point x="43" y="398"/>
      <point x="43" y="408" type="curve" smooth="yes"/>
      <point x="43" y="419"/>
      <point x="49" y="429"/>
      <point x="71" y="429" type="curve" smooth="yes"/>
      <point x="105" y="429"/>
      <point x="179" y="416"/>
      <point x="237" y="416" type="curve" smooth="yes"/>
      <point x="258" y="416"/>
      <point x="337" y="422"/>
      <point x="338" y="422" type="curve" smooth="yes"/>
      <point x="376" y="422"/>
      <point x="384" y="412"/>
      <point x="384" y="387" type="curve" smooth="yes"/>
      <point x="384" y="359"/>
      <point x="336" y="349"/>
      <point x="223" y="344" type="curve"/>
      <point x="199" y="344" type="line" smooth="yes"/>
      <point x="173" y="344"/>
      <point x="149" y="345"/>
      <point x="127" y="348" type="curve"/>
      <point x="122" y="310"/>
      <point x="113" y="277"/>
      <point x="107" y="219" type="curve" smooth="yes"/>
      <point x="105" y="200"/>
      <point x="103" y="159"/>
      <point x="102" y="141" type="curve"/>
      <point x="124" y="150"/>
      <point x="193" y="171"/>
      <point x="242" y="171" type="curve" smooth="yes"/>
      <point x="337" y="171"/>
      <point x="384" y="133"/>
      <point x="384" y="39" type="curve" smooth="yes"/>
      <point x="384" y="-31"/>
      <point x="316" y="-121"/>
      <point x="226" y="-203" type="curve" smooth="yes"/>
      <point x="199" y="-229"/>
      <point x="164" y="-249"/>
      <point x="146" y="-249" type="curve" smooth="yes"/>
      <point x="105" y="-249"/>
      <point x="83" y="-200"/>
      <point x="83" y="-168" type="curve" smooth="yes"/>
      <point x="83" y="-158"/>
      <point x="91" y="-150"/>
      <point x="104" y="-150" type="curve" smooth="yes"/>
      <point x="126" y="-150"/>
      <point x="131" y="-162"/>
      <point x="148" y="-162" type="curve" smooth="yes"/>
      <point x="176" y="-162"/>
      <point x="313" y="-22"/>
      <point x="313" y="37" type="curve" smooth="yes"/>
      <point x="313" y="72"/>
      <point x="293" y="99"/>
    </contour>
  </outline>
</glyph>
<glyph name="seven" format="2">
  <advance width="448"/>
  <unicode hex="0037"/>
  <outline>
    <contour>
      <point x="290" y="-146" type="curve" smooth="yes"/>
      <point x="290" y="-200"/>
      <point x="299" y="-194"/>
      <point x="299" y="-208" type="curve" smooth="yes"/>
      <point x="299" y="-222"/>
      <point x="280" y="-259"/>
      <point x="270" y="-259" type="curve" smooth="yes"/>
      <point x="267" y="-259"/>
      <point x="257" y="-251"/>
      <point x="243" y="-237" type="curve" smooth="yes"/>
      <point x="230" y="-224"/>
      <point x="222" y="-204"/>
      <point x="222" y="-182" type="curve" smooth="yes"/>
      <point x="222" y="-92"/>
      <point x="239" y="-16"/>
      <point x="250" y="21" type="curve" smooth="yes"/>
      <point x="256" y="40"/>
      <point x="285" y="128"/>
      <point x="293" y="162" type="curve" smooth="yes"/>
      <point x="301" y="194"/>
      <point x="304" y="213"/>
      <point x="317" y="253" type="curve" smooth="yes"/>
      <point x="325" y="279"/>
      <point x="341" y="321"/>
      <point x="341" y="342" type="curve"/>
      <point x="320" y="344"/>
      <point x="282" y="345"/>
      <point x="242" y="345" type="curve" smooth="yes"/>
      <point x="188" y="345"/>
      <point x="130" y="344"/>
      <point x="102" y="344" type="curve"/>
      <point x="104" y="334"/>
      <point x="105" y="323"/>
      <point x="107" y="315" type="curve" smooth="yes"/>
      <point x="121" y="257"/>
      <point x="131" y="234"/>
      <point x="131" y="224" type="curve" smooth="yes"/>
      <point x="131" y="214"/>
      <point x="111" y="170"/>
      <point x="102" y="170" type="curve" smooth="yes"/>
      <point x="94" y="170"/>
      <point x="86" y="176"/>
      <point x="78" y="186" type="curve" smooth="yes"/>
      <point x="70" y="196"/>
      <point x="69" y="209"/>
      <point x="67" y="222" type="curve" smooth="yes"/>
      <point x="62" y="259"/>
      <point x="26" y="356"/>
      <point x="26" y="382" type="curve" smooth="yes"/>
      <point x="26" y="390"/>
      <point x="29" y="399"/>
      <point x="34" y="405" type="curve" smooth="yes"/>
      <point x="45" y="421"/>
      <point x="53" y="422"/>
      <point x="96" y="422" type="curve" smooth="yes"/>
      <point x="166" y="422"/>
      <point x="122" y="416"/>
      <point x="195" y="416" type="curve" smooth="yes"/>
      <point x="275" y="416" type="line" smooth="yes"/>
      <point x="373" y="416"/>
      <point x="376" y="421"/>
      <point x="400" y="421" type="curve" smooth="yes"/>
      <point x="421" y="421"/>
      <point x="430" y="404"/>
      <point x="430" y="390" type="curve" smooth="yes"/>
      <point x="430" y="366"/>
      <point x="419" y="352"/>
      <point x="406" y="317" type="curve"/>
      <point x="401" y="307"/>
      <point x="402" y="298"/>
      <point x="400" y="290" type="curve" smooth="yes"/>
      <point x="392" y="247"/>
      <point x="373" y="214"/>
      <point x="363" y="176" type="curve"/>
      <point x="345" y="114"/>
      <point x="331" y="48"/>
      <point x="307" y="-27" type="curve"/>
      <point x="297" y="-69"/>
      <point x="290" y="-109"/>
    </contour>
  </outline>
</glyph>
<glyph name="nine" format="2">
  <advance width="435"/>
  <unicode hex="0039"/>
  <outline>
    <contour>
      <point x="288" y="285" type="curve"/>
      <point x="278" y="331"/>
      <point x="240" y="360"/>
      <point x="214" y="360" type="curve" smooth="yes"/>
      <point x="187" y="360"/>
      <point x="176" y="357"/>
      <point x="154" y="331" type="curve"/>
      <point x="114" y="288"/>
      <point x="104" y="245"/>
      <point x="104" y="152" type="curve" smooth="yes"/>
      <point x="104" y="115"/>
      <point x="126" y="94"/>
      <point x="163" y="94" type="curve" smooth="yes"/>
      <point x="171" y="94"/>
      <point x="183" y="97"/>
      <point x="194" y="102" type="curve"/>
      <point x="215" y="113"/>
      <point x="256" y="156"/>
      <point x="296" y="206" type="curve" smooth="yes"/>
      <point x="302" y="214"/>
      <point x="306" y="223"/>
      <point x="314" y="234" type="curve"/>
      <point x="304" y="237"/>
      <point x="296" y="251"/>
    </contour>
    <contour>
      <point x="395" y="315" type="curve" smooth="yes"/>
      <point x="402" y="315"/>
      <point x="419" y="315"/>
      <point x="419" y="277" type="curve" smooth="yes"/>
      <point x="419" y="261"/>
      <point x="413" y="247"/>
      <point x="405" y="205" type="curve"/>
      <point x="399" y="179"/>
      <point x="389" y="83"/>
      <point x="387" y="59" type="curve" smooth="yes"/>
      <point x="385" y="33"/>
      <point x="366" y="-29"/>
      <point x="363" y="-48" type="curve" smooth="yes"/>
      <point x="360" y="-70"/>
      <point x="352" y="-120"/>
      <point x="352" y="-163" type="curve" smooth="yes"/>
      <point x="352" y="-233"/>
      <point x="342" y="-269"/>
      <point x="323" y="-269" type="curve" smooth="yes"/>
      <point x="309" y="-269"/>
      <point x="289" y="-244"/>
      <point x="286" y="-230" type="curve" smooth="yes"/>
      <point x="284" y="-222"/>
      <point x="285" y="-201"/>
      <point x="285" y="-174" type="curve" smooth="yes"/>
      <point x="285" y="-56"/>
      <point x="309" y="-5"/>
      <point x="312" y="24" type="curve"/>
      <point x="320" y="74"/>
      <point x="328" y="104"/>
      <point x="336" y="154" type="curve"/>
      <point x="294" y="104"/>
      <point x="197" y="13"/>
      <point x="133" y="13" type="curve" smooth="yes"/>
      <point x="98" y="13"/>
      <point x="51" y="67"/>
      <point x="43" y="94" type="curve" smooth="yes"/>
      <point x="37" y="113"/>
      <point x="34" y="147"/>
      <point x="34" y="192" type="curve" smooth="yes"/>
      <point x="34" y="274"/>
      <point x="55" y="307"/>
      <point x="85" y="358" type="curve" smooth="yes"/>
      <point x="114" y="404"/>
      <point x="152" y="435"/>
      <point x="195" y="435" type="curve" smooth="yes"/>
      <point x="222" y="435"/>
      <point x="243" y="434"/>
      <point x="256" y="426" type="curve"/>
      <point x="309" y="399"/>
      <point x="336" y="371"/>
      <point x="358" y="296" type="curve"/>
      <point x="371" y="307"/>
      <point x="382" y="315"/>
    </contour>
  </outline>
</glyph>
<glyph name="colon" format="2">
  <advance width="155"/>
  <unicode hex="003A"/>
  <outline>
    <contour>
      <point x="66" y="341" type="curve" smooth="yes"/>
      <point x="51" y="341"/>
      <point x="34" y="348"/>
      <point x="34" y="379" type="curve" smooth="yes"/>
      <point x="34" y="389"/>
      <point x="34" y="404"/>
      <point x="37" y="418" type="curve" smooth="yes"/>
      <point x="40" y="432"/>
      <point x="53" y="440"/>
      <point x="58" y="440" type="curve" smooth="yes"/>
      <point x="66" y="440"/>
      <point x="90" y="443"/>
      <point x="101" y="443" type="curve" smooth="yes"/>
      <point x="123" y="443"/>
      <point x="136" y="418"/>
      <point x="136" y="398" type="curve" smooth="yes"/>
      <point x="136" y="362"/>
      <point x="99" y="341"/>
    </contour>
    <contour>
      <point x="67" y="77" type="curve" smooth="yes"/>
      <point x="74" y="77"/>
      <point x="122" y="76"/>
      <point x="122" y="26" type="curve" smooth="yes"/>
      <point x="122" y="16"/>
      <point x="114" y="16"/>
      <point x="104" y="6" type="curve"/>
      <point x="91" y="-10"/>
      <point x="77" y="-14"/>
      <point x="59" y="-14" type="curve" smooth="yes"/>
      <point x="43" y="-14"/>
      <point x="34" y="-5"/>
      <point x="34" y="3" type="curve" smooth="yes"/>
      <point x="34" y="17"/>
      <point x="22" y="33"/>
      <point x="22" y="40" type="curve" smooth="yes"/>
      <point x="22" y="52"/>
      <point x="36" y="77"/>
    </contour>
  </outline>
</glyph>
<glyph name="semicolon" format="2">
  <advance width="144"/>
  <unicode hex="003B"/>
  <outline>
    <contour>
      <point x="85" y="430" type="curve" smooth="yes"/>
      <point x="95" y="430"/>
      <point x="114" y="426"/>
      <point x="117" y="416" type="curve"/>
      <point x="120" y="410"/>
      <point x="122" y="397"/>
      <point x="122" y="387" type="curve" smooth="yes"/>
      <point x="122" y="360"/>
      <point x="84" y="331"/>
      <point x="58" y="331" type="curve" smooth="yes"/>
      <point x="39" y="331"/>
      <point x="30" y="348"/>
      <point x="30" y="382" type="curve" smooth="yes"/>
      <point x="30" y="396"/>
      <point x="32" y="405"/>
      <point x="34" y="408" type="curve" smooth="yes"/>
      <point x="37" y="421"/>
      <point x="58" y="430"/>
    </contour>
    <contour>
      <point x="45" y="34" type="curve" smooth="yes"/>
      <point x="45" y="89"/>
      <point x="49" y="98"/>
      <point x="82" y="98" type="curve" smooth="yes"/>
      <point x="92" y="98"/>
      <point x="123" y="96"/>
      <point x="123" y="70" type="curve" smooth="yes"/>
      <point x="123" y="62"/>
      <point x="120" y="64"/>
      <point x="117" y="5" type="curve" smooth="yes"/>
      <point x="115" y="-16"/>
      <point x="112" y="-47"/>
      <point x="104" y="-69" type="curve" smooth="yes"/>
      <point x="101" y="-80"/>
      <point x="98" y="-92"/>
      <point x="98" y="-102" type="curve" smooth="yes"/>
      <point x="98" y="-120"/>
      <point x="80" y="-138"/>
      <point x="62" y="-138" type="curve" smooth="yes"/>
      <point x="46" y="-138"/>
      <point x="38" y="-131"/>
      <point x="38" y="-104" type="curve" smooth="yes"/>
      <point x="38" y="-81"/>
      <point x="45" y="6"/>
    </contour>
  </outline>
</glyph>
<glyph name="greater" format="2">
  <advance width="456"/>
  <unicode hex="003E"/>
  <outline>
    <contour>
      <point x="360" y="307" type="curve" smooth="yes"/>
      <point x="408" y="286"/>
      <point x="392" y="293"/>
      <point x="430" y="272" type="curve"/>
      <point x="443" y="264"/>
      <point x="451" y="254"/>
      <point x="451" y="243" type="curve" smooth="yes"/>
      <point x="451" y="225"/>
      <point x="445" y="203"/>
      <point x="419" y="195" type="curve" smooth="yes"/>
      <point x="414" y="193"/>
      <point x="389" y="184"/>
      <point x="344" y="162" type="curve" smooth="yes"/>
      <point x="285" y="133"/>
      <point x="240" y="118"/>
      <point x="184" y="59" type="curve" smooth="yes"/>
      <point x="155" y="29"/>
      <point x="138" y="8"/>
      <point x="136" y="-2" type="curve"/>
      <point x="131" y="-20"/>
      <point x="117" y="-26"/>
      <point x="93" y="-26" type="curve" smooth="yes"/>
      <point x="67" y="-26"/>
      <point x="54" y="-21"/>
      <point x="54" y="-8" type="curve" smooth="yes"/>
      <point x="54" y="3"/>
      <point x="64" y="15"/>
      <point x="66" y="26" type="curve" smooth="yes"/>
      <point x="68" y="34"/>
      <point x="85" y="56"/>
      <point x="120" y="94" type="curve" smooth="yes"/>
      <point x="150" y="128"/>
      <point x="165" y="143"/>
      <point x="200" y="165" type="curve" smooth="yes"/>
      <point x="230" y="184"/>
      <point x="251" y="192"/>
      <point x="286" y="213" type="curve" smooth="yes"/>
      <point x="304" y="223"/>
      <point x="325" y="232"/>
      <point x="336" y="240" type="curve"/>
      <point x="301" y="254"/>
      <point x="255" y="266"/>
      <point x="138" y="306" type="curve" smooth="yes"/>
      <point x="112" y="314"/>
      <point x="75" y="332"/>
      <point x="37" y="350" type="curve" smooth="yes"/>
      <point x="31" y="353"/>
      <point x="18" y="362"/>
      <point x="18" y="373" type="curve" smooth="yes"/>
      <point x="18" y="395"/>
      <point x="44" y="432"/>
      <point x="58" y="432" type="curve" smooth="yes"/>
      <point x="82" y="432"/>
      <point x="80" y="416"/>
      <point x="90" y="410" type="curve"/>
      <point x="111" y="399"/>
      <point x="186" y="371"/>
      <point x="213" y="363" type="curve"/>
      <point x="299" y="341"/>
      <point x="291" y="336"/>
    </contour>
  </outline>
</glyph>
<glyph name="question" format="2">
  <advance width="379"/>
  <unicode hex="003F"/>
  <outline>
    <contour>
      <point x="202" y="293" type="curve"/>
      <point x="202" y="227"/>
      <point x="221" y="231"/>
      <point x="221" y="197" type="curve" smooth="yes"/>
      <point x="221" y="179"/>
      <point x="205" y="162"/>
      <point x="187" y="162" type="curve" smooth="yes"/>
      <point x="161" y="162"/>
      <point x="152" y="173"/>
      <point x="144" y="195" type="curve"/>
      <point x="137" y="207"/>
      <point x="133" y="235"/>
      <point x="130" y="250" type="curve" smooth="yes"/>
      <point x="127" y="264"/>
      <point x="117" y="294"/>
      <point x="117" y="308" type="curve" smooth="yes"/>
      <point x="117" y="323"/>
      <point x="128" y="333"/>
      <point x="150" y="340" type="curve" smooth="yes"/>
      <point x="175" y="348"/>
      <point x="231" y="385"/>
      <point x="251" y="434" type="curve" smooth="yes"/>
      <point x="265" y="468"/>
      <point x="290" y="516"/>
      <point x="290" y="556" type="curve" smooth="yes"/>
      <point x="290" y="605"/>
      <point x="285" y="613"/>
      <point x="263" y="635" type="curve" smooth="yes"/>
      <point x="242" y="655"/>
      <point x="209" y="662"/>
      <point x="187" y="662" type="curve" smooth="yes"/>
      <point x="169" y="662"/>
      <point x="150" y="655"/>
      <point x="127" y="640" type="curve"/>
      <point x="108" y="629"/>
      <point x="90" y="616"/>
      <point x="85" y="586" type="curve"/>
      <point x="83" y="568"/>
      <point x="73" y="560"/>
      <point x="53" y="560" type="curve" smooth="yes"/>
      <point x="33" y="560"/>
      <point x="19" y="571"/>
      <point x="19" y="592" type="curve" smooth="yes"/>
      <point x="19" y="669"/>
      <point x="67" y="697"/>
      <point x="129" y="726" type="curve"/>
      <point x="137" y="731"/>
      <point x="152" y="734"/>
      <point x="179" y="734" type="curve" smooth="yes"/>
      <point x="241" y="734"/>
      <point x="263" y="726"/>
      <point x="298" y="699" type="curve" smooth="yes"/>
      <point x="333" y="672"/>
      <point x="352" y="629"/>
      <point x="352" y="565" type="curve" smooth="yes"/>
      <point x="352" y="523"/>
      <point x="329" y="438"/>
      <point x="302" y="388" type="curve" smooth="yes"/>
      <point x="279" y="345"/>
      <point x="239" y="307"/>
    </contour>
    <contour>
      <point x="270" y="38" type="curve" smooth="yes"/>
      <point x="270" y="21"/>
      <point x="217" y="-6"/>
      <point x="199" y="-6" type="curve" smooth="yes"/>
      <point x="189" y="-6"/>
      <point x="157" y="10"/>
      <point x="157" y="27" type="curve" smooth="yes"/>
      <point x="157" y="37"/>
      <point x="169" y="56"/>
      <point x="169" y="61" type="curve" smooth="yes"/>
      <point x="169" y="71"/>
      <point x="178" y="79"/>
      <point x="192" y="79" type="curve" smooth="yes"/>
      <point x="210" y="79"/>
      <point x="270" y="63"/>
    </contour>
  </outline>
</glyph>
<glyph name="at" format="2">
  <advance width="744"/>
  <unicode hex="0040"/>
  <outline>
    <contour>
      <point x="467" y="418" type="curve" smooth="yes"/>
      <point x="432" y="418"/>
      <point x="424" y="446"/>
      <point x="410" y="446" type="curve" smooth="yes"/>
      <point x="392" y="446"/>
      <point x="357" y="414"/>
      <point x="336" y="371" type="curve"/>
      <point x="325" y="345"/>
      <point x="298" y="318"/>
      <point x="298" y="259" type="curve" smooth="yes"/>
      <point x="298" y="241"/>
      <point x="302" y="234"/>
      <point x="318" y="234" type="curve" smooth="yes"/>
      <point x="328" y="234"/>
      <point x="369" y="256"/>
      <point x="374" y="261" type="curve" smooth="yes"/>
      <point x="382" y="269"/>
      <point x="390" y="275"/>
      <point x="406" y="299" type="curve" smooth="yes"/>
      <point x="424" y="325"/>
      <point x="440" y="334"/>
      <point x="454" y="334" type="curve" smooth="yes"/>
      <point x="476" y="334"/>
      <point x="485" y="314"/>
      <point x="485" y="290" type="curve" smooth="yes"/>
      <point x="485" y="269"/>
      <point x="456" y="249"/>
      <point x="456" y="222" type="curve" smooth="yes"/>
      <point x="456" y="204"/>
      <point x="459" y="194"/>
      <point x="461" y="192" type="curve" smooth="yes"/>
      <point x="477" y="170"/>
      <point x="498" y="158"/>
      <point x="530" y="158" type="curve" smooth="yes"/>
      <point x="546" y="158"/>
      <point x="573" y="165"/>
      <point x="581" y="171" type="curve" smooth="yes"/>
      <point x="634" y="211"/>
      <point x="674" y="267"/>
      <point x="674" y="344" type="curve" smooth="yes"/>
      <point x="674" y="387"/>
      <point x="667" y="415"/>
      <point x="662" y="429" type="curve" smooth="yes"/>
      <point x="648" y="474"/>
      <point x="616" y="533"/>
      <point x="581" y="560" type="curve" smooth="yes"/>
      <point x="538" y="592"/>
      <point x="523" y="595"/>
      <point x="494" y="608" type="curve" smooth="yes"/>
      <point x="468" y="619"/>
      <point x="382" y="642"/>
      <point x="342" y="642" type="curve" smooth="yes"/>
      <point x="233" y="642"/>
      <point x="179" y="578"/>
      <point x="141" y="480" type="curve" smooth="yes"/>
      <point x="103" y="381"/>
      <point x="93" y="297"/>
      <point x="93" y="238" type="curve" smooth="yes"/>
      <point x="93" y="102"/>
      <point x="98" y="67"/>
      <point x="165" y="0" type="curve" smooth="yes"/>
      <point x="205" y="-40"/>
      <point x="260" y="-53"/>
      <point x="326" y="-53" type="curve" smooth="yes"/>
      <point x="380" y="-53"/>
      <point x="432" y="-40"/>
      <point x="462" y="-16" type="curve"/>
      <point x="537" y="40"/>
      <point x="574" y="45"/>
      <point x="590" y="45" type="curve" smooth="yes"/>
      <point x="598" y="45"/>
      <point x="600" y="43"/>
      <point x="600" y="38" type="curve" smooth="yes"/>
      <point x="600" y="32"/>
      <point x="586" y="11"/>
      <point x="530" y="-35" type="curve" smooth="yes"/>
      <point x="477" y="-77"/>
      <point x="409" y="-128"/>
      <point x="339" y="-128" type="curve" smooth="yes"/>
      <point x="265" y="-128"/>
      <point x="169" y="-104"/>
      <point x="123" y="-53" type="curve" smooth="yes"/>
      <point x="87" y="-13"/>
      <point x="27" y="53"/>
      <point x="27" y="234" type="curve" smooth="yes"/>
      <point x="27" y="351"/>
      <point x="59" y="431"/>
      <point x="77" y="490" type="curve" smooth="yes"/>
      <point x="88" y="532"/>
      <point x="141" y="626"/>
      <point x="176" y="650" type="curve" smooth="yes"/>
      <point x="224" y="684"/>
      <point x="261" y="702"/>
      <point x="328" y="702" type="curve" smooth="yes"/>
      <point x="411" y="702"/>
      <point x="531" y="676"/>
      <point x="597" y="622" type="curve"/>
      <point x="687" y="555"/>
      <point x="731" y="444"/>
      <point x="731" y="334" type="curve" smooth="yes"/>
      <point x="731" y="251"/>
      <point x="712" y="207"/>
      <point x="648" y="149" type="curve" smooth="yes"/>
      <point x="605" y="111"/>
      <point x="576" y="88"/>
      <point x="520" y="88" type="curve" smooth="yes"/>
      <point x="493" y="88"/>
      <point x="406" y="109"/>
      <point x="392" y="194" type="curve"/>
      <point x="354" y="168"/>
      <point x="346" y="160"/>
      <point x="298" y="160" type="curve" smooth="yes"/>
      <point x="253" y="160"/>
      <point x="229" y="196"/>
      <point x="229" y="230" type="curve" smooth="yes"/>
      <point x="229" y="307"/>
      <point x="230" y="334"/>
      <point x="291" y="430" type="curve" smooth="yes"/>
      <point x="333" y="494"/>
      <point x="368" y="517"/>
      <point x="410" y="517" type="curve" smooth="yes"/>
      <point x="452" y="517"/>
      <point x="494" y="509"/>
      <point x="494" y="459" type="curve" smooth="yes"/>
      <point x="494" y="433"/>
      <point x="493" y="418"/>
    </contour>
  </outline>
</glyph>
<glyph name="A" format="2">
  <advance width="518"/>
  <unicode hex="0041"/>
  <anchor x="256" y="33" name="bottom"/>
  <anchor x="291" y="750" name="top"/>
  <outline>
    <contour>
      <point x="327" y="565" type="curve" smooth="yes"/>
      <point x="320" y="617"/>
      <point x="296" y="643"/>
      <point x="294" y="643" type="curve" smooth="yes"/>
      <point x="292" y="643"/>
      <point x="284" y="626"/>
      <point x="278" y="613" type="curve"/>
      <point x="248" y="541"/>
      <point x="232" y="509"/>
      <point x="222" y="490" type="curve" smooth="yes"/>
      <point x="211" y="469"/>
      <point x="209" y="461"/>
      <point x="199" y="435" type="curve" smooth="yes"/>
      <point x="191" y="416"/>
      <point x="189" y="405"/>
      <point x="159" y="330" type="curve"/>
      <point x="151" y="312"/>
      <point x="145" y="297"/>
      <point x="145" y="294" type="curve"/>
      <point x="156" y="291"/>
      <point x="167" y="291"/>
      <point x="178" y="288" type="curve" smooth="yes"/>
      <point x="184" y="286"/>
      <point x="212" y="282"/>
      <point x="268" y="282" type="curve" smooth="yes"/>
      <point x="319" y="282"/>
      <point x="347" y="288"/>
      <point x="369" y="291" type="curve"/>
      <point x="364" y="336"/>
      <point x="364" y="352"/>
      <point x="345" y="453" type="curve"/>
      <point x="334" y="523"/>
      <point x="327" y="560"/>
    </contour>
    <contour>
      <point x="62" y="34" type="curve" smooth="yes"/>
      <point x="45" y="34"/>
      <point x="25" y="60"/>
      <point x="25" y="78" type="curve" smooth="yes"/>
      <point x="25" y="89"/>
      <point x="26" y="107"/>
      <point x="31" y="128" type="curve"/>
      <point x="41" y="204"/>
      <point x="69" y="287"/>
      <point x="106" y="354" type="curve"/>
      <point x="119" y="380"/>
      <point x="125" y="412"/>
      <point x="154" y="470" type="curve" smooth="yes"/>
      <point x="155" y="472"/>
      <point x="187" y="563"/>
      <point x="233" y="667" type="curve"/>
      <point x="243" y="691"/>
      <point x="255" y="720"/>
      <point x="257" y="720" type="curve" smooth="yes"/>
      <point x="260" y="722"/>
      <point x="271" y="723"/>
      <point x="287" y="723" type="curve" smooth="yes"/>
      <point x="303" y="723"/>
      <point x="308" y="721"/>
      <point x="316" y="718" type="curve" smooth="yes"/>
      <point x="336" y="710"/>
      <point x="372" y="666"/>
      <point x="377" y="646" type="curve" smooth="yes"/>
      <point x="380" y="633"/>
      <point x="384" y="619"/>
      <point x="394" y="582" type="curve"/>
      <point x="404" y="557"/>
      <point x="405" y="442"/>
      <point x="442" y="243" type="curve" smooth="yes"/>
      <point x="456" y="165"/>
      <point x="477" y="120"/>
      <point x="482" y="106" type="curve"/>
      <point x="487" y="88"/>
      <point x="497" y="56"/>
      <point x="497" y="38" type="curve" smooth="yes"/>
      <point x="497" y="19"/>
      <point x="480" y="-6"/>
      <point x="462" y="-6" type="curve" smooth="yes"/>
      <point x="452" y="-6"/>
      <point x="439" y="-1"/>
      <point x="439" y="13" type="curve" smooth="yes"/>
      <point x="439" y="39"/>
      <point x="420" y="62"/>
      <point x="410" y="94" type="curve"/>
      <point x="397" y="132"/>
      <point x="385" y="194"/>
      <point x="377" y="226" type="curve"/>
      <point x="343" y="216"/>
      <point x="309" y="211"/>
      <point x="274" y="211" type="curve" smooth="yes"/>
      <point x="238" y="211" type="line" smooth="yes"/>
      <point x="227" y="211"/>
      <point x="218" y="211"/>
      <point x="212" y="213" type="curve" smooth="yes"/>
      <point x="183" y="222"/>
      <point x="158" y="213"/>
      <point x="129" y="230" type="curve"/>
      <point x="75" y="123"/>
      <point x="107" y="34"/>
    </contour>
  </outline>
</glyph>
<glyph name="C" format="2">
  <advance width="548"/>
  <unicode hex="0043"/>
  <anchor x="294" y="33" name="bottom"/>
  <anchor x="314" y="743" name="top"/>
  <outline>
    <contour>
      <point x="374" y="520" type="curve" smooth="yes"/>
      <point x="374" y="528"/>
      <point x="419" y="558"/>
      <point x="419" y="562" type="curve" smooth="yes"/>
      <point x="419" y="567"/>
      <point x="409" y="580"/>
      <point x="390" y="602" type="curve" smooth="yes"/>
      <point x="377" y="616"/>
      <point x="367" y="620"/>
      <point x="359" y="623" type="curve"/>
      <point x="351" y="628"/>
      <point x="323" y="633"/>
      <point x="305" y="633" type="curve" smooth="yes"/>
      <point x="247" y="633"/>
      <point x="206" y="593"/>
      <point x="184" y="543" type="curve"/>
      <point x="158" y="491"/>
      <point x="155" y="503"/>
      <point x="143" y="450" type="curve" smooth="yes"/>
      <point x="131" y="400"/>
      <point x="122" y="374"/>
      <point x="122" y="324" type="curve" smooth="yes"/>
      <point x="122" y="247"/>
      <point x="124" y="178"/>
      <point x="181" y="118" type="curve" smooth="yes"/>
      <point x="207" y="90"/>
      <point x="231" y="71"/>
      <point x="294" y="71" type="curve" smooth="yes"/>
      <point x="325" y="71"/>
      <point x="352" y="76"/>
      <point x="374" y="86" type="curve" smooth="yes"/>
      <point x="424" y="109"/>
      <point x="442" y="128"/>
      <point x="455" y="137" type="curve" smooth="yes"/>
      <point x="465" y="145"/>
      <point x="478" y="146"/>
      <point x="491" y="146" type="curve" smooth="yes"/>
      <point x="504" y="146"/>
      <point x="512" y="134"/>
      <point x="512" y="126" type="curve" smooth="yes"/>
      <point x="512" y="118"/>
      <point x="509" y="112"/>
      <point x="493" y="94" type="curve" smooth="yes"/>
      <point x="456" y="54"/>
      <point x="424" y="35"/>
      <point x="373" y="8" type="curve" smooth="yes"/>
      <point x="355" y="-2"/>
      <point x="323" y="-6"/>
      <point x="280" y="-6" type="curve" smooth="yes"/>
      <point x="211" y="-6"/>
      <point x="187" y="8"/>
      <point x="136" y="54" type="curve" smooth="yes"/>
      <point x="58" y="123"/>
      <point x="53" y="229"/>
      <point x="53" y="326" type="curve" smooth="yes"/>
      <point x="53" y="415"/>
      <point x="84" y="506"/>
      <point x="130" y="581" type="curve"/>
      <point x="177" y="657"/>
      <point x="224" y="707"/>
      <point x="317" y="707" type="curve" smooth="yes"/>
      <point x="374" y="707"/>
      <point x="414" y="681"/>
      <point x="453" y="642" type="curve" smooth="yes"/>
      <point x="469" y="626"/>
      <point x="480" y="616"/>
      <point x="483" y="608" type="curve" smooth="yes"/>
      <point x="486" y="600"/>
      <point x="488" y="587"/>
      <point x="488" y="571" type="curve" smooth="yes"/>
      <point x="488" y="546"/>
      <point x="488" y="514"/>
      <point x="400" y="514" type="curve" smooth="yes"/>
      <point x="382" y="514"/>
      <point x="374" y="515"/>
    </contour>
  </outline>
</glyph>
<glyph name="D" format="2">
  <advance width="555"/>
  <unicode hex="0044"/>
  <anchor x="264" y="73" name="bottom"/>
  <anchor x="261" y="740" name="top"/>
  <outline>
    <contour>
      <point x="125" y="338" type="curve" smooth="yes"/>
      <point x="125" y="320"/>
      <point x="125" y="281"/>
      <point x="125" y="280" type="curve" smooth="yes"/>
      <point x="125" y="223"/>
      <point x="129" y="165"/>
      <point x="131" y="162" type="curve" smooth="yes"/>
      <point x="141" y="133"/>
      <point x="154" y="128"/>
      <point x="154" y="115" type="curve"/>
      <point x="152" y="93"/>
      <point x="137" y="72"/>
      <point x="114" y="72" type="curve" smooth="yes"/>
      <point x="108" y="72"/>
      <point x="102" y="81"/>
      <point x="94" y="94" type="curve" smooth="yes"/>
      <point x="76" y="121"/>
      <point x="72" y="131"/>
      <point x="64" y="165" type="curve"/>
      <point x="59" y="189"/>
      <point x="58" y="247"/>
      <point x="58" y="341" type="curve"/>
      <point x="60" y="377"/>
      <point x="59" y="399"/>
      <point x="59" y="417" type="curve" smooth="yes"/>
      <point x="59" y="440"/>
      <point x="59" y="456"/>
      <point x="58" y="482" type="curve" smooth="yes"/>
      <point x="55" y="573"/>
      <point x="59" y="648"/>
      <point x="51" y="674" type="curve" smooth="yes"/>
      <point x="50" y="676"/>
      <point x="50" y="676"/>
      <point x="50" y="678" type="curve" smooth="yes"/>
      <point x="50" y="691"/>
      <point x="67" y="712"/>
      <point x="77" y="718" type="curve" smooth="yes"/>
      <point x="87" y="723"/>
      <point x="91" y="726"/>
      <point x="94" y="726" type="curve" smooth="yes"/>
      <point x="102" y="726"/>
      <point x="123" y="708"/>
      <point x="131" y="694" type="curve"/>
      <point x="141" y="695"/>
      <point x="149" y="695"/>
      <point x="158" y="695" type="curve" smooth="yes"/>
      <point x="197" y="695"/>
      <point x="232" y="691"/>
      <point x="269" y="685" type="curve"/>
      <point x="275" y="685"/>
      <point x="288" y="680"/>
      <point x="314" y="677" type="curve"/>
      <point x="381" y="666"/>
      <point x="420" y="645"/>
      <point x="467" y="595" type="curve" smooth="yes"/>
      <point x="496" y="565"/>
      <point x="512" y="502"/>
      <point x="512" y="448" type="curve" smooth="yes"/>
      <point x="512" y="349"/>
      <point x="480" y="295"/>
      <point x="445" y="238" type="curve" smooth="yes"/>
      <point x="415" y="188"/>
      <point x="381" y="152"/>
      <point x="360" y="131" type="curve" smooth="yes"/>
      <point x="298" y="72"/>
      <point x="254" y="32"/>
      <point x="235" y="19" type="curve" smooth="yes"/>
      <point x="197" y="-7"/>
      <point x="170" y="-21"/>
      <point x="154" y="-21" type="curve" smooth="yes"/>
      <point x="138" y="-21"/>
      <point x="125" y="-15"/>
      <point x="125" y="3" type="curve" smooth="yes"/>
      <point x="125" y="9"/>
      <point x="128" y="20"/>
      <point x="134" y="26" type="curve" smooth="yes"/>
      <point x="164" y="53"/>
      <point x="155" y="50"/>
      <point x="198" y="80" type="curve" smooth="yes"/>
      <point x="264" y="128"/>
      <point x="286" y="146"/>
      <point x="326" y="192" type="curve"/>
      <point x="364" y="232"/>
      <point x="372" y="246"/>
      <point x="406" y="299" type="curve" smooth="yes"/>
      <point x="427" y="333"/>
      <point x="446" y="383"/>
      <point x="446" y="450" type="curve" smooth="yes"/>
      <point x="446" y="476"/>
      <point x="442" y="495"/>
      <point x="435" y="512" type="curve"/>
      <point x="413" y="552"/>
      <point x="405" y="563"/>
      <point x="365" y="581" type="curve"/>
      <point x="309" y="611"/>
      <point x="224" y="620"/>
      <point x="162" y="620" type="curve" smooth="yes"/>
      <point x="152" y="620"/>
      <point x="142" y="619"/>
      <point x="131" y="616" type="curve"/>
      <point x="131" y="614"/>
      <point x="122" y="512"/>
      <point x="122" y="466" type="curve" smooth="yes"/>
      <point x="122" y="433"/>
      <point x="125" y="404"/>
    </contour>
  </outline>
</glyph>
<glyph name="E" format="2">
  <advance width="537"/>
  <unicode hex="0045"/>
  <anchor x="288" y="23" name="bottom"/>
  <anchor x="256" y="746" name="top"/>
  <outline>
    <contour>
      <point x="257" y="389" type="curve" smooth="yes"/>
      <point x="299" y="389"/>
      <point x="298" y="389"/>
      <point x="435" y="404" type="curve"/>
      <point x="443" y="404"/>
      <point x="455" y="388"/>
      <point x="455" y="374" type="curve" smooth="yes"/>
      <point x="455" y="364"/>
      <point x="447" y="355"/>
      <point x="425" y="350" type="curve"/>
      <point x="387" y="346"/>
      <point x="328" y="326"/>
      <point x="264" y="326" type="curve" smooth="yes"/>
      <point x="222" y="326"/>
      <point x="177" y="327"/>
      <point x="143" y="330" type="curve"/>
      <point x="143" y="295"/>
      <point x="142" y="245"/>
      <point x="142" y="200" type="curve" smooth="yes"/>
      <point x="142" y="149"/>
      <point x="143" y="109"/>
      <point x="160" y="82" type="curve" smooth="yes"/>
      <point x="171" y="64"/>
      <point x="185" y="63"/>
      <point x="215" y="63" type="curve" smooth="yes"/>
      <point x="230" y="63" type="line" smooth="yes"/>
      <point x="264" y="63"/>
      <point x="288" y="67"/>
      <point x="298" y="70" type="curve" smooth="yes"/>
      <point x="358" y="89"/>
      <point x="425" y="98"/>
      <point x="488" y="98" type="curve" smooth="yes"/>
      <point x="498" y="98"/>
      <point x="503" y="98"/>
      <point x="503" y="88" type="curve" smooth="yes"/>
      <point x="503" y="60"/>
      <point x="461" y="39"/>
      <point x="439" y="34" type="curve" smooth="yes"/>
      <point x="426" y="32"/>
      <point x="410" y="31"/>
      <point x="399" y="28" type="curve" smooth="yes"/>
      <point x="329" y="11"/>
      <point x="247" y="-2"/>
      <point x="176" y="-2" type="curve" smooth="yes"/>
      <point x="134" y="-2"/>
      <point x="91" y="39"/>
      <point x="81" y="90" type="curve" smooth="yes"/>
      <point x="78" y="105"/>
      <point x="77" y="131"/>
      <point x="77" y="164" type="curve" smooth="yes"/>
      <point x="77" y="214"/>
      <point x="79" y="283"/>
      <point x="79" y="354" type="curve" smooth="yes"/>
      <point x="79" y="416"/>
      <point x="73" y="575"/>
      <point x="66" y="634" type="curve"/>
      <point x="62" y="634" type="line" smooth="yes"/>
      <point x="53" y="634"/>
      <point x="25" y="633"/>
      <point x="25" y="670" type="curve" smooth="yes"/>
      <point x="25" y="678"/>
      <point x="35" y="688"/>
      <point x="46" y="692" type="curve"/>
      <point x="56" y="697"/>
      <point x="60" y="702"/>
      <point x="66" y="705" type="curve"/>
      <point x="66" y="705" type="line"/>
      <point x="88" y="710"/>
      <point x="103" y="711"/>
      <point x="179" y="711" type="curve" smooth="yes"/>
      <point x="288" y="711"/>
      <point x="365" y="713"/>
      <point x="393" y="721" type="curve" smooth="yes"/>
      <point x="400" y="723"/>
      <point x="406" y="727"/>
      <point x="414" y="727" type="curve" smooth="yes"/>
      <point x="425" y="727"/>
      <point x="441" y="726"/>
      <point x="460" y="721" type="curve" smooth="yes"/>
      <point x="468" y="719"/>
      <point x="471" y="717"/>
      <point x="471" y="706" type="curve" smooth="yes"/>
      <point x="471" y="657"/>
      <point x="423" y="654"/>
      <point x="238" y="642" type="curve" smooth="yes"/>
      <point x="208" y="640"/>
      <point x="186" y="639"/>
      <point x="137" y="637" type="curve"/>
      <point x="139" y="614"/>
      <point x="142" y="593"/>
      <point x="142" y="568" type="curve" smooth="yes"/>
      <point x="142" y="483" type="line" smooth="yes"/>
      <point x="142" y="454"/>
      <point x="143" y="423"/>
      <point x="143" y="396" type="curve"/>
      <point x="189" y="392"/>
      <point x="220" y="389"/>
    </contour>
  </outline>
</glyph>
<glyph name="F" format="2">
  <advance width="534"/>
  <unicode hex="0046"/>
  <anchor x="128" y="25" name="bottom"/>
  <anchor x="277" y="750" name="top"/>
  <outline>
    <contour>
      <point x="159" y="31" type="curve" smooth="yes"/>
      <point x="159" y="8"/>
      <point x="139" y="-10"/>
      <point x="123" y="-10" type="curve" smooth="yes"/>
      <point x="115" y="-10"/>
      <point x="108" y="-3"/>
      <point x="102" y="13" type="curve"/>
      <point x="89" y="56"/>
      <point x="88" y="74"/>
      <point x="80" y="138" type="curve"/>
      <point x="77" y="153"/>
      <point x="76" y="183"/>
      <point x="76" y="222" type="curve" smooth="yes"/>
      <point x="76" y="268"/>
      <point x="77" y="329"/>
      <point x="77" y="399" type="curve" smooth="yes"/>
      <point x="77" y="495"/>
      <point x="77" y="496"/>
      <point x="62" y="654" type="curve" smooth="yes"/>
      <point x="59" y="681"/>
      <point x="60" y="700"/>
      <point x="55" y="711" type="curve" smooth="yes"/>
      <point x="55" y="713"/>
      <point x="54" y="716"/>
      <point x="54" y="718" type="curve" smooth="yes"/>
      <point x="54" y="732"/>
      <point x="75" y="748"/>
      <point x="89" y="748" type="curve" smooth="yes"/>
      <point x="107" y="748"/>
      <point x="122" y="728"/>
      <point x="125" y="691" type="curve"/>
      <point x="127" y="691"/>
      <point x="354" y="704"/>
      <point x="386" y="704" type="curve"/>
      <point x="400" y="706"/>
      <point x="416" y="706"/>
      <point x="434" y="706" type="curve" smooth="yes"/>
      <point x="455" y="706"/>
      <point x="467" y="702"/>
      <point x="475" y="694" type="curve"/>
      <point x="486" y="678"/>
      <point x="493" y="667"/>
      <point x="493" y="659" type="curve" smooth="yes"/>
      <point x="493" y="651"/>
      <point x="477" y="630"/>
      <point x="461" y="630" type="curve" smooth="yes"/>
      <point x="440" y="630"/>
      <point x="427" y="637"/>
      <point x="403" y="637" type="curve" smooth="yes"/>
      <point x="401" y="637"/>
      <point x="311" y="636"/>
      <point x="133" y="623" type="curve"/>
      <point x="138" y="604"/>
      <point x="137" y="522"/>
      <point x="142" y="477" type="curve" smooth="yes"/>
      <point x="144" y="453"/>
      <point x="146" y="428"/>
      <point x="146" y="402" type="curve" smooth="yes"/>
      <point x="146" y="378"/>
      <point x="146" y="355"/>
      <point x="146" y="330" type="curve" smooth="yes"/>
      <point x="146" y="320"/>
      <point x="146" y="311"/>
      <point x="146" y="301" type="curve" smooth="yes"/>
      <point x="146" y="176" type="line" smooth="yes"/>
      <point x="146" y="138"/>
      <point x="158" y="110"/>
      <point x="158" y="51" type="curve" smooth="yes"/>
      <point x="158" y="42"/>
      <point x="159" y="37"/>
    </contour>
    <contour>
      <point x="270" y="318" type="curve" smooth="yes"/>
      <point x="204" y="318"/>
      <point x="170" y="328"/>
      <point x="170" y="370" type="curve" smooth="yes"/>
      <point x="170" y="381"/>
      <point x="178" y="394"/>
      <point x="189" y="394" type="curve" smooth="yes"/>
      <point x="290" y="394"/>
      <point x="424" y="389"/>
      <point x="448" y="386" type="curve" smooth="yes"/>
      <point x="462" y="384"/>
      <point x="469" y="374"/>
      <point x="469" y="363" type="curve" smooth="yes"/>
      <point x="469" y="358"/>
      <point x="468" y="354"/>
      <point x="466" y="349" type="curve" smooth="yes"/>
      <point x="464" y="344"/>
      <point x="450" y="341"/>
      <point x="424" y="333" type="curve" smooth="yes"/>
      <point x="398" y="325"/>
      <point x="381" y="320"/>
      <point x="357" y="320" type="curve" smooth="yes"/>
      <point x="331" y="320"/>
      <point x="297" y="318"/>
    </contour>
  </outline>
</glyph>
<glyph name="J" format="2">
  <advance width="548"/>
  <unicode hex="004A"/>
  <anchor x="266" y="33" name="bottom"/>
  <anchor x="291" y="719" name="top"/>
  <outline>
    <contour>
      <point x="522" y="699" type="curve" smooth="yes"/>
      <point x="522" y="673"/>
      <point x="506" y="675"/>
      <point x="494" y="546" type="curve" smooth="yes"/>
      <point x="494" y="540"/>
      <point x="491" y="484"/>
      <point x="491" y="382" type="curve" smooth="yes"/>
      <point x="491" y="198"/>
      <point x="491" y="158"/>
      <point x="477" y="123" type="curve" smooth="yes"/>
      <point x="446" y="43"/>
      <point x="347" y="5"/>
      <point x="267" y="5" type="curve" smooth="yes"/>
      <point x="195" y="5"/>
      <point x="173" y="12"/>
      <point x="141" y="34" type="curve"/>
      <point x="91" y="67"/>
      <point x="42" y="104"/>
      <point x="42" y="170" type="curve" smooth="yes"/>
      <point x="42" y="220"/>
      <point x="74" y="221"/>
      <point x="75" y="221" type="curve" smooth="yes"/>
      <point x="80" y="221"/>
      <point x="81" y="216"/>
      <point x="86" y="205" type="curve" smooth="yes"/>
      <point x="120" y="123"/>
      <point x="173" y="67"/>
      <point x="267" y="67" type="curve" smooth="yes"/>
      <point x="313" y="67"/>
      <point x="352" y="78"/>
      <point x="382" y="107" type="curve" smooth="yes"/>
      <point x="406" y="129"/>
      <point x="418" y="149"/>
      <point x="421" y="165" type="curve" smooth="yes"/>
      <point x="426" y="195"/>
      <point x="426" y="278"/>
      <point x="426" y="411" type="curve"/>
      <point x="426" y="411"/>
      <point x="426" y="426"/>
      <point x="426" y="448" type="curve" smooth="yes"/>
      <point x="426" y="480"/>
      <point x="426" y="528"/>
      <point x="429" y="563" type="curve"/>
      <point x="431" y="593"/>
      <point x="433" y="624"/>
      <point x="435" y="638" type="curve"/>
      <point x="389" y="624"/>
      <point x="360" y="626"/>
      <point x="302" y="618" type="curve" smooth="yes"/>
      <point x="294" y="616"/>
      <point x="259" y="613"/>
      <point x="238" y="611" type="curve" smooth="yes"/>
      <point x="203" y="608"/>
      <point x="176" y="604"/>
      <point x="157" y="602" type="curve"/>
      <point x="149" y="600"/>
      <point x="143" y="600"/>
      <point x="133" y="600" type="curve" smooth="yes"/>
      <point x="115" y="600"/>
      <point x="102" y="612"/>
      <point x="102" y="630" type="curve" smooth="yes"/>
      <point x="102" y="649"/>
      <point x="122" y="665"/>
      <point x="130" y="670" type="curve" smooth="yes"/>
      <point x="152" y="683"/>
      <point x="234" y="673"/>
      <point x="318" y="690" type="curve" smooth="yes"/>
      <point x="377" y="701"/>
      <point x="411" y="707"/>
      <point x="421" y="710" type="curve"/>
      <point x="431" y="715"/>
      <point x="464" y="725"/>
      <point x="475" y="725" type="curve" smooth="yes"/>
      <point x="501" y="725"/>
      <point x="522" y="713"/>
    </contour>
  </outline>
</glyph>
<glyph name="L" format="2">
  <advance width="497"/>
  <unicode hex="004C"/>
  <anchor x="256" y="41" name="bottom"/>
  <anchor x="243" y="729" name="top"/>
  <outline>
    <contour>
      <point x="61" y="662" type="curve" smooth="yes"/>
      <point x="61" y="696"/>
      <point x="88" y="715"/>
      <point x="94" y="715" type="curve" smooth="yes"/>
      <point x="120" y="715"/>
      <point x="130" y="704"/>
      <point x="130" y="682" type="curve" smooth="yes"/>
      <point x="130" y="658"/>
      <point x="128" y="651"/>
      <point x="128" y="536" type="curve" smooth="yes"/>
      <point x="128" y="470"/>
      <point x="126" y="405"/>
      <point x="126" y="344" type="curve" smooth="yes"/>
      <point x="126" y="302"/>
      <point x="141" y="167"/>
      <point x="141" y="67" type="curve"/>
      <point x="249" y="75"/>
      <point x="303" y="98"/>
      <point x="373" y="98" type="curve" smooth="yes"/>
      <point x="435" y="98"/>
      <point x="467" y="91"/>
      <point x="467" y="75" type="curve" smooth="yes"/>
      <point x="467" y="53"/>
      <point x="449" y="38"/>
      <point x="438" y="38" type="curve" smooth="yes"/>
      <point x="433" y="38"/>
      <point x="430" y="40"/>
      <point x="427" y="40" type="curve" smooth="yes"/>
      <point x="346" y="40"/>
      <point x="187" y="-16"/>
      <point x="114" y="-16" type="curve" smooth="yes"/>
      <point x="98" y="-16"/>
      <point x="78" y="4"/>
      <point x="70" y="38" type="curve" smooth="yes"/>
      <point x="64" y="62"/>
      <point x="64" y="109"/>
      <point x="64" y="162" type="curve" smooth="yes"/>
      <point x="64" y="183"/>
      <point x="64" y="205"/>
      <point x="64" y="227" type="curve" smooth="yes"/>
      <point x="64" y="528" type="line" smooth="yes"/>
      <point x="64" y="552"/>
      <point x="61" y="660"/>
    </contour>
  </outline>
</glyph>
<glyph name="R" format="2">
  <advance width="566"/>
  <unicode hex="0052"/>
  <anchor x="280" y="33" name="bottom"/>
  <anchor x="251" y="732" name="top"/>
  <outline>
    <contour>
      <point x="411" y="478" type="curve" smooth="yes"/>
      <point x="411" y="532"/>
      <point x="321" y="600"/>
      <point x="238" y="614" type="curve" smooth="yes"/>
      <point x="224" y="616"/>
      <point x="198" y="622"/>
      <point x="171" y="622" type="curve" smooth="yes"/>
      <point x="157" y="622"/>
      <point x="141" y="623"/>
      <point x="130" y="625" type="curve"/>
      <point x="130" y="619"/>
      <point x="122" y="521"/>
      <point x="122" y="402" type="curve" smooth="yes"/>
      <point x="122" y="377"/>
      <point x="122" y="351"/>
      <point x="123" y="324" type="curve"/>
      <point x="123" y="324"/>
      <point x="153" y="322"/>
      <point x="174" y="322" type="curve" smooth="yes"/>
      <point x="220" y="322"/>
      <point x="307" y="342"/>
      <point x="363" y="390" type="curve" smooth="yes"/>
      <point x="393" y="416"/>
      <point x="411" y="459"/>
    </contour>
    <contour>
      <point x="128" y="257" type="curve"/>
      <point x="130" y="211"/>
      <point x="134" y="116"/>
      <point x="154" y="73" type="curve"/>
      <point x="160" y="62"/>
      <point x="162" y="52"/>
      <point x="162" y="47" type="curve" smooth="yes"/>
      <point x="162" y="39"/>
      <point x="154" y="28"/>
      <point x="141" y="15" type="curve"/>
      <point x="128" y="1"/>
      <point x="123" y="-1"/>
      <point x="115" y="-1" type="curve" smooth="yes"/>
      <point x="109" y="-1"/>
      <point x="98" y="9"/>
      <point x="90" y="22" type="curve" smooth="yes"/>
      <point x="76" y="44"/>
      <point x="70" y="67"/>
      <point x="67" y="118" type="curve" smooth="yes"/>
      <point x="65" y="150"/>
      <point x="65" y="173"/>
      <point x="59" y="234" type="curve" smooth="yes"/>
      <point x="56" y="264"/>
      <point x="56" y="292"/>
      <point x="56" y="318" type="curve" smooth="yes"/>
      <point x="56" y="335"/>
      <point x="56" y="351"/>
      <point x="56" y="367" type="curve" smooth="yes"/>
      <point x="56" y="466"/>
      <point x="57" y="509"/>
      <point x="57" y="561" type="curve" smooth="yes"/>
      <point x="57" y="587"/>
      <point x="57" y="615"/>
      <point x="56" y="654" type="curve"/>
      <point x="46" y="662"/>
      <point x="35" y="678"/>
      <point x="35" y="689" type="curve" smooth="yes"/>
      <point x="35" y="708"/>
      <point x="60" y="737"/>
      <point x="82" y="737" type="curve" smooth="yes"/>
      <point x="104" y="737"/>
      <point x="131" y="708"/>
      <point x="133" y="697" type="curve"/>
      <point x="159" y="695"/>
      <point x="216" y="692"/>
      <point x="245" y="686" type="curve" smooth="yes"/>
      <point x="274" y="680"/>
      <point x="301" y="668"/>
      <point x="315" y="663" type="curve" smooth="yes"/>
      <point x="374" y="643"/>
      <point x="420" y="613"/>
      <point x="454" y="561" type="curve"/>
      <point x="464" y="542"/>
      <point x="482" y="499"/>
      <point x="482" y="481" type="curve" smooth="yes"/>
      <point x="482" y="425"/>
      <point x="433" y="375"/>
      <point x="398" y="343" type="curve" smooth="yes"/>
      <point x="368" y="316"/>
      <point x="322" y="296"/>
      <point x="296" y="286" type="curve"/>
      <point x="326" y="273"/>
      <point x="362" y="240"/>
      <point x="378" y="222" type="curve" smooth="yes"/>
      <point x="404" y="193"/>
      <point x="449" y="128"/>
      <point x="470" y="106" type="curve" smooth="yes"/>
      <point x="499" y="76"/>
      <point x="517" y="60"/>
      <point x="525" y="57" type="curve" smooth="yes"/>
      <point x="533" y="54"/>
      <point x="536" y="46"/>
      <point x="536" y="36" type="curve" smooth="yes"/>
      <point x="536" y="17"/>
      <point x="523" y="-4"/>
      <point x="502" y="-4" type="curve" smooth="yes"/>
      <point x="471" y="-4"/>
      <point x="428" y="44"/>
      <point x="408" y="66" type="curve" smooth="yes"/>
      <point x="398" y="76"/>
      <point x="374" y="105"/>
      <point x="358" y="126" type="curve" smooth="yes"/>
      <point x="340" y="150"/>
      <point x="311" y="177"/>
      <point x="290" y="199" type="curve" smooth="yes"/>
      <point x="256" y="234"/>
      <point x="216" y="249"/>
    </contour>
  </outline>
</glyph>
<glyph name="S" format="2">
  <advance width="487"/>
  <unicode hex="0053"/>
  <anchor x="248" y="34" name="bottom"/>
  <anchor x="267" y="751" name="top"/>
  <outline>
    <contour>
      <point x="105" y="91" type="curve" smooth="yes"/>
      <point x="147" y="91"/>
      <point x="136" y="67"/>
      <point x="190" y="67" type="curve" smooth="yes"/>
      <point x="220" y="67"/>
      <point x="269" y="78"/>
      <point x="290" y="86" type="curve"/>
      <point x="330" y="104"/>
      <point x="346" y="117"/>
      <point x="367" y="130" type="curve" smooth="yes"/>
      <point x="372" y="133"/>
      <point x="374" y="135"/>
      <point x="374" y="141" type="curve" smooth="yes"/>
      <point x="374" y="149"/>
      <point x="369" y="155"/>
      <point x="361" y="163" type="curve" smooth="yes"/>
      <point x="267" y="256"/>
      <point x="234" y="260"/>
      <point x="186" y="274" type="curve"/>
      <point x="168" y="280"/>
      <point x="97" y="310"/>
      <point x="81" y="336" type="curve" smooth="yes"/>
      <point x="59" y="373"/>
      <point x="49" y="387"/>
      <point x="49" y="440" type="curve" smooth="yes"/>
      <point x="49" y="509"/>
      <point x="95" y="581"/>
      <point x="114" y="608" type="curve"/>
      <point x="122" y="618"/>
      <point x="130" y="632"/>
      <point x="146" y="648" type="curve" smooth="yes"/>
      <point x="171" y="673"/>
      <point x="236" y="717"/>
      <point x="270" y="717" type="curve" smooth="yes"/>
      <point x="315" y="717"/>
      <point x="339" y="709"/>
      <point x="353" y="699" type="curve" smooth="yes"/>
      <point x="358" y="696"/>
      <point x="364" y="691"/>
      <point x="374" y="686" type="curve" smooth="yes"/>
      <point x="395" y="675"/>
      <point x="404" y="661"/>
      <point x="404" y="645" type="curve" smooth="yes"/>
      <point x="404" y="629"/>
      <point x="391" y="614"/>
      <point x="372" y="614" type="curve" smooth="yes"/>
      <point x="341" y="614"/>
      <point x="346" y="638"/>
      <point x="274" y="638" type="curve" smooth="yes"/>
      <point x="230" y="638"/>
      <point x="190" y="602"/>
      <point x="166" y="568" type="curve" smooth="yes"/>
      <point x="139" y="530"/>
      <point x="121" y="502"/>
      <point x="121" y="443" type="curve" smooth="yes"/>
      <point x="121" y="411"/>
      <point x="124" y="386"/>
      <point x="137" y="373" type="curve" smooth="yes"/>
      <point x="155" y="354"/>
      <point x="195" y="339"/>
      <point x="222" y="331" type="curve"/>
      <point x="299" y="305"/>
      <point x="367" y="259"/>
      <point x="423" y="206" type="curve" smooth="yes"/>
      <point x="447" y="184"/>
      <point x="450" y="164"/>
      <point x="450" y="154" type="curve" smooth="yes"/>
      <point x="450" y="135"/>
      <point x="438" y="111"/>
      <point x="412" y="85" type="curve" smooth="yes"/>
      <point x="369" y="42"/>
      <point x="232" y="-5"/>
      <point x="174" y="-5" type="curve" smooth="yes"/>
      <point x="126" y="-5"/>
      <point x="65" y="21"/>
      <point x="65" y="53" type="curve" smooth="yes"/>
      <point x="65" y="76"/>
      <point x="83" y="91"/>
    </contour>
  </outline>
</glyph>
<glyph name="W" format="2">
  <advance width="702"/>
  <unicode hex="0057"/>
  <anchor x="368" y="33" name="bottom"/>
  <anchor x="342" y="743" name="top"/>
  <outline>
    <contour>
      <point x="606" y="138" type="curve" smooth="yes"/>
      <point x="606" y="110"/>
      <point x="611" y="102"/>
      <point x="611" y="82" type="curve" smooth="yes"/>
      <point x="611" y="72"/>
      <point x="608" y="59"/>
      <point x="600" y="46" type="curve" smooth="yes"/>
      <point x="594" y="36"/>
      <point x="579" y="-11"/>
      <point x="571" y="-11" type="curve" smooth="yes"/>
      <point x="565" y="-11"/>
      <point x="555" y="-5"/>
      <point x="539" y="6" type="curve" smooth="yes"/>
      <point x="505" y="32"/>
      <point x="480" y="66"/>
      <point x="461" y="101" type="curve" smooth="yes"/>
      <point x="442" y="135"/>
      <point x="434" y="176"/>
      <point x="426" y="194" type="curve" smooth="yes"/>
      <point x="415" y="220"/>
      <point x="387" y="259"/>
      <point x="379" y="302" type="curve" smooth="yes"/>
      <point x="371" y="342"/>
      <point x="352" y="379"/>
      <point x="341" y="432" type="curve"/>
      <point x="316" y="364"/>
      <point x="320" y="334"/>
      <point x="298" y="262" type="curve" smooth="yes"/>
      <point x="291" y="236"/>
      <point x="284" y="196"/>
      <point x="270" y="155" type="curve" smooth="yes"/>
      <point x="265" y="139"/>
      <point x="261" y="119"/>
      <point x="256" y="93" type="curve" smooth="yes"/>
      <point x="248" y="50"/>
      <point x="240" y="36"/>
      <point x="214" y="10" type="curve" smooth="yes"/>
      <point x="209" y="5"/>
      <point x="206" y="5"/>
      <point x="200" y="5" type="curve" smooth="yes"/>
      <point x="192" y="5"/>
      <point x="187" y="7"/>
      <point x="184" y="13" type="curve" smooth="yes"/>
      <point x="154" y="61"/>
      <point x="142" y="85"/>
      <point x="128" y="147" type="curve" smooth="yes"/>
      <point x="101" y="280"/>
      <point x="79" y="427"/>
      <point x="78" y="429" type="curve" smooth="yes"/>
      <point x="67" y="504"/>
      <point x="63" y="571"/>
      <point x="50" y="621" type="curve" smooth="yes"/>
      <point x="42" y="650"/>
      <point x="27" y="664"/>
      <point x="27" y="690" type="curve" smooth="yes"/>
      <point x="27" y="711"/>
      <point x="47" y="731"/>
      <point x="61" y="731" type="curve" smooth="yes"/>
      <point x="89" y="731"/>
      <point x="103" y="697"/>
      <point x="106" y="674" type="curve" smooth="yes"/>
      <point x="109" y="648"/>
      <point x="125" y="600"/>
      <point x="130" y="550" type="curve" smooth="yes"/>
      <point x="138" y="467"/>
      <point x="144" y="430"/>
      <point x="170" y="296" type="curve" smooth="yes"/>
      <point x="181" y="237"/>
      <point x="185" y="202"/>
      <point x="187" y="197" type="curve" smooth="yes"/>
      <point x="192" y="178"/>
      <point x="197" y="158"/>
      <point x="202" y="150" type="curve"/>
      <point x="211" y="170"/>
      <point x="212" y="216"/>
      <point x="222" y="240" type="curve" smooth="yes"/>
      <point x="228" y="254"/>
      <point x="232" y="265"/>
      <point x="237" y="283" type="curve" smooth="yes"/>
      <point x="245" y="312"/>
      <point x="248" y="329"/>
      <point x="256" y="358" type="curve" smooth="yes"/>
      <point x="262" y="375"/>
      <point x="274" y="432"/>
      <point x="286" y="462" type="curve"/>
      <point x="294" y="488"/>
      <point x="299" y="508"/>
      <point x="310" y="526" type="curve" smooth="yes"/>
      <point x="321" y="543"/>
      <point x="334" y="553"/>
      <point x="354" y="553" type="curve" smooth="yes"/>
      <point x="355" y="553"/>
      <point x="356" y="553"/>
      <point x="357" y="552" type="curve" smooth="yes"/>
      <point x="381" y="542"/>
      <point x="421" y="384"/>
      <point x="442" y="342" type="curve"/>
      <point x="453" y="315"/>
      <point x="465" y="269"/>
      <point x="475" y="240" type="curve"/>
      <point x="483" y="219"/>
      <point x="503" y="185"/>
      <point x="509" y="171" type="curve"/>
      <point x="520" y="141"/>
      <point x="536" y="114"/>
      <point x="544" y="109" type="curve"/>
      <point x="550" y="152"/>
      <point x="544" y="174"/>
      <point x="552" y="254" type="curve" smooth="yes"/>
      <point x="557" y="297"/>
      <point x="568" y="382"/>
      <point x="574" y="451" type="curve" smooth="yes"/>
      <point x="580" y="515"/>
      <point x="577" y="550"/>
      <point x="579" y="611" type="curve" smooth="yes"/>
      <point x="582" y="694"/>
      <point x="579" y="699"/>
      <point x="614" y="717" type="curve" smooth="yes"/>
      <point x="625" y="723"/>
      <point x="638" y="725"/>
      <point x="646" y="725" type="curve" smooth="yes"/>
      <point x="651" y="725"/>
      <point x="652" y="725"/>
      <point x="654" y="723" type="curve" smooth="yes"/>
      <point x="664" y="707"/>
      <point x="670" y="695"/>
      <point x="670" y="690" type="curve" smooth="yes"/>
      <point x="670" y="685"/>
      <point x="669" y="675"/>
      <point x="661" y="662" type="curve"/>
      <point x="641" y="623"/>
      <point x="628" y="464"/>
      <point x="626" y="422" type="curve" smooth="yes"/>
      <point x="626" y="419"/>
      <point x="606" y="236"/>
    </contour>
  </outline>
</glyph>
<glyph name="backslash" format="2">
  <advance width="492"/>
  <unicode hex="005C"/>
  <outline>
    <contour>
      <point x="328" y="259" type="curve" smooth="yes"/>
      <point x="354" y="219"/>
      <point x="374" y="176"/>
      <point x="414" y="138" type="curve" smooth="yes"/>
      <point x="459" y="95"/>
      <point x="483" y="67"/>
      <point x="483" y="54" type="curve" smooth="yes"/>
      <point x="483" y="41"/>
      <point x="469" y="29"/>
      <point x="461" y="29" type="curve" smooth="yes"/>
      <point x="439" y="29"/>
      <point x="437" y="30"/>
      <point x="429" y="38" type="curve" smooth="yes"/>
      <point x="421" y="46"/>
      <point x="419" y="56"/>
      <point x="397" y="74" type="curve" smooth="yes"/>
      <point x="338" y="122"/>
      <point x="310" y="176"/>
      <point x="288" y="213" type="curve" smooth="yes"/>
      <point x="275" y="235"/>
      <point x="214" y="317"/>
      <point x="198" y="339" type="curve"/>
      <point x="177" y="366"/>
      <point x="149" y="423"/>
      <point x="122" y="482" type="curve" smooth="yes"/>
      <point x="117" y="492"/>
      <point x="106" y="523"/>
      <point x="80" y="573" type="curve" smooth="yes"/>
      <point x="54" y="623"/>
      <point x="36" y="656"/>
      <point x="26" y="667" type="curve" smooth="yes"/>
      <point x="21" y="672"/>
      <point x="19" y="676"/>
      <point x="19" y="682" type="curve" smooth="yes"/>
      <point x="19" y="697"/>
      <point x="39" y="722"/>
      <point x="54" y="722" type="curve" smooth="yes"/>
      <point x="71" y="722"/>
      <point x="105" y="673"/>
      <point x="115" y="659" type="curve"/>
      <point x="125" y="638"/>
      <point x="140" y="612"/>
      <point x="154" y="578" type="curve" smooth="yes"/>
      <point x="194" y="480"/>
      <point x="198" y="468"/>
      <point x="248" y="382" type="curve"/>
      <point x="275" y="339"/>
      <point x="302" y="299"/>
    </contour>
  </outline>
</glyph>
<glyph name="bracketright" format="2">
  <advance width="401"/>
  <unicode hex="005D"/>
  <outline>
    <contour>
      <point x="32" y="685" type="curve" smooth="yes"/>
      <point x="32" y="724"/>
      <point x="35" y="731"/>
      <point x="51" y="731" type="curve" smooth="yes"/>
      <point x="64" y="731"/>
      <point x="77" y="719"/>
      <point x="101" y="717" type="curve" smooth="yes"/>
      <point x="119" y="715"/>
      <point x="202" y="715"/>
      <point x="216" y="715" type="curve" smooth="yes"/>
      <point x="217" y="715"/>
      <point x="291" y="722"/>
      <point x="293" y="722" type="curve" smooth="yes"/>
      <point x="329" y="722"/>
      <point x="331" y="700"/>
      <point x="331" y="634" type="curve" smooth="yes"/>
      <point x="331" y="630"/>
      <point x="325" y="423"/>
      <point x="325" y="269" type="curve" smooth="yes"/>
      <point x="325" y="210"/>
      <point x="330" y="51"/>
      <point x="330" y="-34" type="curve" smooth="yes"/>
      <point x="330" y="-120"/>
      <point x="332" y="-147"/>
      <point x="338" y="-174" type="curve" smooth="yes"/>
      <point x="341" y="-185"/>
      <point x="346" y="-193"/>
      <point x="346" y="-207" type="curve" smooth="yes"/>
      <point x="346" y="-251"/>
      <point x="333" y="-260"/>
      <point x="256" y="-260" type="curve" smooth="yes"/>
      <point x="138" y="-260" type="line" smooth="yes"/>
      <point x="93" y="-260"/>
      <point x="60" y="-252"/>
      <point x="46" y="-239" type="curve" smooth="yes"/>
      <point x="33" y="-228"/>
      <point x="26" y="-223"/>
      <point x="26" y="-212" type="curve" smooth="yes"/>
      <point x="26" y="-196"/>
      <point x="36" y="-185"/>
      <point x="46" y="-185" type="curve" smooth="yes"/>
      <point x="64" y="-185"/>
      <point x="25" y="-194"/>
      <point x="195" y="-194" type="curve" smooth="yes"/>
      <point x="222" y="-194"/>
      <point x="262" y="-195"/>
      <point x="267" y="-193" type="curve"/>
      <point x="267" y="-180"/>
      <point x="266" y="-172"/>
      <point x="266" y="-134" type="curve" smooth="yes"/>
      <point x="266" y="-19"/>
      <point x="265" y="-26"/>
      <point x="260" y="116" type="curve"/>
      <point x="260" y="193"/>
      <point x="262" y="361"/>
      <point x="262" y="446" type="curve" smooth="yes"/>
      <point x="262" y="499"/>
      <point x="266" y="544"/>
      <point x="268" y="602" type="curve"/>
      <point x="268" y="654" type="line"/>
      <point x="229" y="654" type="line"/>
      <point x="189" y="652"/>
      <point x="153" y="646"/>
      <point x="121" y="646" type="curve" smooth="yes"/>
      <point x="39" y="646"/>
      <point x="32" y="684"/>
    </contour>
  </outline>
</glyph>
<glyph name="asciicircum" format="2">
  <advance width="376"/>
  <unicode hex="005E"/>
  <outline>
    <contour>
      <point x="179" y="709" type="curve" smooth="yes"/>
      <point x="179" y="727"/>
      <point x="208" y="742"/>
      <point x="222" y="742" type="curve" smooth="yes"/>
      <point x="238" y="742"/>
      <point x="240" y="728"/>
      <point x="246" y="714" type="curve" smooth="yes"/>
      <point x="246" y="714"/>
      <point x="278" y="636"/>
      <point x="288" y="597" type="curve" smooth="yes"/>
      <point x="292" y="582"/>
      <point x="315" y="511"/>
      <point x="323" y="499" type="curve"/>
      <point x="333" y="481"/>
      <point x="342" y="469"/>
      <point x="350" y="459" type="curve"/>
      <point x="363" y="440"/>
      <point x="370" y="432"/>
      <point x="370" y="413" type="curve" smooth="yes"/>
      <point x="370" y="397"/>
      <point x="363" y="387"/>
      <point x="342" y="387" type="curve" smooth="yes"/>
      <point x="331" y="387"/>
      <point x="323" y="387"/>
      <point x="318" y="390" type="curve" smooth="yes"/>
      <point x="313" y="393"/>
      <point x="309" y="401"/>
      <point x="301" y="411" type="curve"/>
      <point x="288" y="432"/>
      <point x="279" y="442"/>
      <point x="277" y="445" type="curve" smooth="yes"/>
      <point x="269" y="464"/>
      <point x="262" y="480"/>
      <point x="248" y="518" type="curve"/>
      <point x="227" y="569"/>
      <point x="224" y="584"/>
      <point x="206" y="622" type="curve"/>
      <point x="201" y="617"/>
      <point x="198" y="610"/>
      <point x="190" y="600" type="curve"/>
      <point x="128" y="511"/>
      <point x="115" y="491"/>
      <point x="99" y="416" type="curve" smooth="yes"/>
      <point x="97" y="408"/>
      <point x="96" y="395"/>
      <point x="93" y="390" type="curve" smooth="yes"/>
      <point x="90" y="385"/>
      <point x="69" y="381"/>
      <point x="56" y="381" type="curve" smooth="yes"/>
      <point x="29" y="381"/>
      <point x="14" y="392"/>
      <point x="14" y="419" type="curve" smooth="yes"/>
      <point x="14" y="438"/>
      <point x="38" y="483"/>
      <point x="54" y="509" type="curve" smooth="yes"/>
      <point x="81" y="552"/>
      <point x="72" y="551"/>
      <point x="104" y="597" type="curve" smooth="yes"/>
      <point x="136" y="645"/>
      <point x="124" y="628"/>
      <point x="158" y="674" type="curve"/>
      <point x="171" y="693"/>
      <point x="179" y="704"/>
    </contour>
  </outline>
</glyph>
<glyph name="underscore" format="2">
  <advance width="499"/>
  <unicode hex="005F"/>
  <outline>
    <contour>
      <point x="43" y="65" type="curve" smooth="yes"/>
      <point x="60" y="65"/>
      <point x="68" y="58"/>
      <point x="114" y="58" type="curve" smooth="yes"/>
      <point x="168" y="58"/>
      <point x="231" y="63"/>
      <point x="278" y="63" type="curve" smooth="yes"/>
      <point x="296" y="63"/>
      <point x="358" y="60"/>
      <point x="377" y="60" type="curve" smooth="yes"/>
      <point x="407" y="60"/>
      <point x="423" y="68"/>
      <point x="439" y="68" type="curve" smooth="yes"/>
      <point x="453" y="68"/>
      <point x="476" y="64"/>
      <point x="476" y="46" type="curve" smooth="yes"/>
      <point x="476" y="19"/>
      <point x="471" y="18"/>
      <point x="458" y="10" type="curve" smooth="yes"/>
      <point x="442" y="0"/>
      <point x="430" y="-2"/>
      <point x="422" y="-2" type="curve" smooth="yes"/>
      <point x="398" y="-2"/>
      <point x="342" y="-1"/>
      <point x="265" y="-1" type="curve" smooth="yes"/>
      <point x="217" y="-1"/>
      <point x="134" y="-6"/>
      <point x="53" y="-6" type="curve" smooth="yes"/>
      <point x="40" y="-6"/>
      <point x="27" y="-5"/>
      <point x="22" y="-2" type="curve" smooth="yes"/>
      <point x="14" y="4"/>
      <point x="10" y="23"/>
      <point x="10" y="34" type="curve" smooth="yes"/>
      <point x="10" y="60"/>
      <point x="21" y="65"/>
    </contour>
  </outline>
</glyph>
<glyph name="a" format="2">
  <advance width="426"/>
  <unicode hex="0061"/>
  <anchor x="216" y="33" name="bottom"/>
  <anchor x="218" y="484" name="top"/>
  <outline>
    <contour>
      <point x="219" y="184" type="curve" smooth="yes"/>
      <point x="197" y="184"/>
      <point x="167" y="157"/>
      <point x="149" y="136" type="curve" smooth="yes"/>
      <point x="135" y="118"/>
      <point x="120" y="88"/>
      <point x="120" y="78" type="curve" smooth="yes"/>
      <point x="120" y="60"/>
      <point x="141" y="59"/>
      <point x="189" y="59" type="curve" smooth="yes"/>
      <point x="230" y="59"/>
      <point x="272" y="74"/>
      <point x="304" y="99" type="curve"/>
      <point x="304" y="112"/>
      <point x="301" y="130"/>
      <point x="293" y="146" type="curve"/>
      <point x="285" y="165"/>
      <point x="246" y="184"/>
    </contour>
    <contour>
      <point x="179" y="438" type="curve" smooth="yes"/>
      <point x="193" y="440"/>
      <point x="206" y="442"/>
      <point x="219" y="442" type="curve" smooth="yes"/>
      <point x="245" y="442"/>
      <point x="258" y="440"/>
      <point x="285" y="430" type="curve"/>
      <point x="317" y="416"/>
      <point x="324" y="414"/>
      <point x="342" y="398" type="curve"/>
      <point x="384" y="356"/>
      <point x="387" y="293"/>
      <point x="387" y="238" type="curve" smooth="yes"/>
      <point x="387" y="172"/>
      <point x="374" y="93"/>
      <point x="374" y="42" type="curve" smooth="yes"/>
      <point x="374" y="31"/>
      <point x="371" y="15"/>
      <point x="368" y="10" type="curve" smooth="yes"/>
      <point x="365" y="5"/>
      <point x="346" y="-5"/>
      <point x="333" y="-5" type="curve" smooth="yes"/>
      <point x="320" y="-5"/>
      <point x="313" y="8"/>
      <point x="310" y="22" type="curve"/>
      <point x="272" y="1"/>
      <point x="213" y="-10"/>
      <point x="160" y="-10" type="curve" smooth="yes"/>
      <point x="130" y="-10"/>
      <point x="93" y="-6"/>
      <point x="82" y="0" type="curve" smooth="yes"/>
      <point x="68" y="8"/>
      <point x="45" y="59"/>
      <point x="45" y="77" type="curve" smooth="yes"/>
      <point x="45" y="122"/>
      <point x="69" y="153"/>
      <point x="96" y="182" type="curve" smooth="yes"/>
      <point x="126" y="214"/>
      <point x="160" y="251"/>
      <point x="237" y="251" type="curve" smooth="yes"/>
      <point x="271" y="251"/>
      <point x="304" y="232"/>
      <point x="322" y="211" type="curve"/>
      <point x="322" y="225"/>
      <point x="323" y="232"/>
      <point x="323" y="246" type="curve" smooth="yes"/>
      <point x="323" y="284"/>
      <point x="322" y="309"/>
      <point x="314" y="323" type="curve"/>
      <point x="303" y="350"/>
      <point x="259" y="370"/>
      <point x="219" y="370" type="curve" smooth="yes"/>
      <point x="161" y="370"/>
      <point x="130" y="359"/>
      <point x="101" y="333" type="curve" smooth="yes"/>
      <point x="80" y="315"/>
      <point x="82" y="294"/>
      <point x="50" y="294" type="curve" smooth="yes"/>
      <point x="42" y="294"/>
      <point x="34" y="301"/>
      <point x="34" y="323" type="curve" smooth="yes"/>
      <point x="34" y="337"/>
      <point x="35" y="347"/>
      <point x="40" y="355" type="curve" smooth="yes"/>
      <point x="74" y="406"/>
      <point x="110" y="430"/>
    </contour>
  </outline>
</glyph>
<glyph name="b" format="2">
  <advance width="480"/>
  <unicode hex="0062"/>
  <anchor x="240" y="33" name="bottom"/>
  <anchor x="248" y="468" name="top"/>
  <outline>
    <contour>
      <point x="382" y="251" type="curve" smooth="yes"/>
      <point x="382" y="318"/>
      <point x="378" y="332"/>
      <point x="352" y="350" type="curve" smooth="yes"/>
      <point x="347" y="353"/>
      <point x="340" y="354"/>
      <point x="330" y="354" type="curve" smooth="yes"/>
      <point x="293" y="354"/>
      <point x="260" y="335"/>
      <point x="238" y="314" type="curve" smooth="yes"/>
      <point x="222" y="300"/>
      <point x="214" y="288"/>
      <point x="206" y="280" type="curve" smooth="yes"/>
      <point x="154" y="226"/>
      <point x="142" y="176"/>
      <point x="142" y="104" type="curve" smooth="yes"/>
      <point x="142" y="91"/>
      <point x="147" y="68"/>
      <point x="150" y="58" type="curve"/>
      <point x="156" y="55"/>
      <point x="170" y="53"/>
      <point x="192" y="53" type="curve" smooth="yes"/>
      <point x="218" y="53"/>
      <point x="237" y="66"/>
      <point x="261" y="77" type="curve" smooth="yes"/>
      <point x="327" y="107"/>
      <point x="382" y="177"/>
    </contour>
    <contour>
      <point x="30" y="698" type="curve" smooth="yes"/>
      <point x="30" y="711"/>
      <point x="51" y="726"/>
      <point x="66" y="726" type="curve" smooth="yes"/>
      <point x="92" y="726"/>
      <point x="104" y="696"/>
      <point x="104" y="674" type="curve" smooth="yes"/>
      <point x="104" y="666"/>
      <point x="109" y="622"/>
      <point x="109" y="547" type="curve" smooth="yes"/>
      <point x="109" y="532"/>
      <point x="109" y="502"/>
      <point x="109" y="467" type="curve" smooth="yes"/>
      <point x="109" y="397"/>
      <point x="110" y="306"/>
      <point x="114" y="272" type="curve"/>
      <point x="130" y="294"/>
      <point x="131" y="297"/>
      <point x="171" y="339" type="curve" smooth="yes"/>
      <point x="214" y="384"/>
      <point x="237" y="407"/>
      <point x="282" y="421" type="curve" smooth="yes"/>
      <point x="301" y="427"/>
      <point x="318" y="430"/>
      <point x="331" y="430" type="curve" smooth="yes"/>
      <point x="377" y="430"/>
      <point x="424" y="386"/>
      <point x="442" y="346" type="curve" smooth="yes"/>
      <point x="448" y="332"/>
      <point x="448" y="304"/>
      <point x="448" y="269" type="curve" smooth="yes"/>
      <point x="448" y="229"/>
      <point x="447" y="203"/>
      <point x="442" y="189" type="curve"/>
      <point x="405" y="105"/>
      <point x="374" y="60"/>
      <point x="296" y="14" type="curve" smooth="yes"/>
      <point x="243" y="-16"/>
      <point x="226" y="-18"/>
      <point x="160" y="-18" type="curve" smooth="yes"/>
      <point x="115" y="-18"/>
      <point x="91" y="-14"/>
      <point x="86" y="-8" type="curve" smooth="yes"/>
      <point x="81" y="-2"/>
      <point x="76" y="43"/>
      <point x="66" y="126" type="curve" smooth="yes"/>
      <point x="53" y="227"/>
      <point x="40" y="229"/>
      <point x="40" y="554" type="curve" smooth="yes"/>
      <point x="40" y="631"/>
      <point x="38" y="677"/>
      <point x="32" y="690" type="curve" smooth="yes"/>
      <point x="30" y="692"/>
      <point x="30" y="695"/>
    </contour>
  </outline>
</glyph>
<glyph name="c" format="2">
  <advance width="403"/>
  <unicode hex="0063"/>
  <anchor x="216" y="33" name="bottom"/>
  <anchor x="203" y="495" name="top"/>
  <outline>
    <contour>
      <point x="211" y="62" type="curve" smooth="yes"/>
      <point x="285" y="62"/>
      <point x="333" y="118"/>
      <point x="371" y="118" type="curve" smooth="yes"/>
      <point x="382" y="118"/>
      <point x="392" y="112"/>
      <point x="392" y="101" type="curve" smooth="yes"/>
      <point x="392" y="93"/>
      <point x="388" y="81"/>
      <point x="374" y="67" type="curve"/>
      <point x="363" y="54"/>
      <point x="347" y="42"/>
      <point x="333" y="34" type="curve" smooth="yes"/>
      <point x="304" y="16"/>
      <point x="264" y="-13"/>
      <point x="205" y="-13" type="curve" smooth="yes"/>
      <point x="146" y="-13"/>
      <point x="109" y="19"/>
      <point x="80" y="64" type="curve" smooth="yes"/>
      <point x="54" y="104"/>
      <point x="40" y="149"/>
      <point x="40" y="187" type="curve" smooth="yes"/>
      <point x="40" y="192"/>
      <point x="42" y="208"/>
      <point x="42" y="216" type="curve" smooth="yes"/>
      <point x="50" y="318"/>
      <point x="76" y="376"/>
      <point x="102" y="403" type="curve" smooth="yes"/>
      <point x="124" y="427"/>
      <point x="167" y="437"/>
      <point x="205" y="437" type="curve" smooth="yes"/>
      <point x="235" y="437"/>
      <point x="267" y="418"/>
      <point x="280" y="405" type="curve" smooth="yes"/>
      <point x="309" y="376"/>
      <point x="323" y="367"/>
      <point x="323" y="341" type="curve" smooth="yes"/>
      <point x="323" y="295"/>
      <point x="262" y="288"/>
      <point x="261" y="288" type="curve" smooth="yes"/>
      <point x="253" y="288"/>
      <point x="248" y="293"/>
      <point x="248" y="301" type="curve" smooth="yes"/>
      <point x="248" y="309"/>
      <point x="258" y="316"/>
      <point x="258" y="322" type="curve" smooth="yes"/>
      <point x="258" y="349"/>
      <point x="221" y="366"/>
      <point x="198" y="366" type="curve" smooth="yes"/>
      <point x="169" y="366"/>
      <point x="136" y="340"/>
      <point x="126" y="302" type="curve"/>
      <point x="116" y="259"/>
      <point x="112" y="221"/>
      <point x="112" y="192" type="curve" smooth="yes"/>
      <point x="112" y="143"/>
      <point x="157" y="62"/>
    </contour>
  </outline>
</glyph>
<glyph name="d" format="2">
  <advance width="468"/>
  <unicode hex="0064"/>
  <anchor x="240" y="1" name="bottom"/>
  <anchor x="253" y="738" name="top"/>
  <outline>
    <contour>
      <point x="202" y="346" type="curve" smooth="yes"/>
      <point x="143" y="346"/>
      <point x="102" y="263"/>
      <point x="102" y="178" type="curve" smooth="yes"/>
      <point x="102" y="116"/>
      <point x="109" y="82"/>
      <point x="154" y="82" type="curve" smooth="yes"/>
      <point x="197" y="82"/>
      <point x="259" y="198"/>
      <point x="304" y="283" type="curve"/>
      <point x="288" y="299"/>
      <point x="248" y="346"/>
    </contour>
    <contour>
      <point x="34" y="146" type="curve" smooth="yes"/>
      <point x="34" y="277"/>
      <point x="78" y="416"/>
      <point x="211" y="416" type="curve" smooth="yes"/>
      <point x="253" y="416"/>
      <point x="284" y="397"/>
      <point x="310" y="368" type="curve"/>
      <point x="302" y="482"/>
      <point x="296" y="544"/>
      <point x="296" y="635" type="curve" smooth="yes"/>
      <point x="296" y="673"/>
      <point x="312" y="718"/>
      <point x="339" y="718" type="curve" smooth="yes"/>
      <point x="379" y="718"/>
      <point x="382" y="667"/>
      <point x="382" y="627" type="curve" smooth="yes"/>
      <point x="382" y="609"/>
      <point x="386" y="566"/>
      <point x="386" y="494" type="curve" smooth="yes"/>
      <point x="386" y="348"/>
      <point x="395" y="280"/>
      <point x="414" y="142" type="curve" smooth="yes"/>
      <point x="419" y="108"/>
      <point x="424" y="48"/>
      <point x="434" y="22" type="curve" smooth="yes"/>
      <point x="437" y="16"/>
      <point x="442" y="13"/>
      <point x="442" y="5" type="curve" smooth="yes"/>
      <point x="442" y="-25"/>
      <point x="416" y="-29"/>
      <point x="405" y="-29" type="curve" smooth="yes"/>
      <point x="349" y="-29"/>
      <point x="358" y="74"/>
      <point x="334" y="197" type="curve"/>
      <point x="257" y="67"/>
      <point x="224" y="2"/>
      <point x="141" y="2" type="curve" smooth="yes"/>
      <point x="82" y="2"/>
      <point x="34" y="74"/>
    </contour>
  </outline>
</glyph>
<glyph name="e" format="2">
  <advance width="407"/>
  <unicode hex="0065"/>
  <anchor x="223" y="5" name="bottom"/>
  <anchor x="200" y="506" name="top"/>
  <outline>
    <contour>
      <point x="107" y="250" type="curve"/>
      <point x="165" y="262"/>
      <point x="243" y="282"/>
      <point x="293" y="310" type="curve"/>
      <point x="268" y="338"/>
      <point x="235" y="374"/>
      <point x="195" y="374" type="curve" smooth="yes"/>
      <point x="182" y="374"/>
      <point x="170" y="370"/>
      <point x="160" y="362" type="curve"/>
      <point x="136" y="346"/>
      <point x="107" y="287"/>
    </contour>
    <contour>
      <point x="123" y="426" type="curve" smooth="yes"/>
      <point x="137" y="438"/>
      <point x="162" y="448"/>
      <point x="184" y="448" type="curve" smooth="yes"/>
      <point x="230" y="448"/>
      <point x="280" y="419"/>
      <point x="315" y="387" type="curve" smooth="yes"/>
      <point x="345" y="358"/>
      <point x="366" y="338"/>
      <point x="366" y="304" type="curve" smooth="yes"/>
      <point x="366" y="285"/>
      <point x="339" y="264"/>
      <point x="315" y="250" type="curve"/>
      <point x="304" y="242"/>
      <point x="261" y="221"/>
      <point x="242" y="213" type="curve"/>
      <point x="199" y="199"/>
      <point x="151" y="183"/>
      <point x="109" y="170" type="curve"/>
      <point x="112" y="128"/>
      <point x="127" y="91"/>
      <point x="146" y="72" type="curve" smooth="yes"/>
      <point x="159" y="59"/>
      <point x="182" y="50"/>
      <point x="230" y="50" type="curve" smooth="yes"/>
      <point x="252" y="50"/>
      <point x="283" y="69"/>
      <point x="296" y="80" type="curve" smooth="yes"/>
      <point x="304" y="88"/>
      <point x="333" y="101"/>
      <point x="349" y="101" type="curve" smooth="yes"/>
      <point x="362" y="101"/>
      <point x="376" y="89"/>
      <point x="376" y="78" type="curve" smooth="yes"/>
      <point x="376" y="60"/>
      <point x="334" y="36"/>
      <point x="323" y="26" type="curve" smooth="yes"/>
      <point x="289" y="-3"/>
      <point x="269" y="-14"/>
      <point x="227" y="-14" type="curve" smooth="yes"/>
      <point x="158" y="-14"/>
      <point x="121" y="-8"/>
      <point x="96" y="18" type="curve" smooth="yes"/>
      <point x="50" y="68"/>
      <point x="33" y="117"/>
      <point x="33" y="200" type="curve" smooth="yes"/>
      <point x="33" y="322"/>
      <point x="62" y="375"/>
    </contour>
  </outline>
</glyph>
<glyph name="j" format="2">
  <advance width="200"/>
  <unicode hex="006A"/>
  <anchor x="88" y="-183" name="bottom"/>
  <anchor x="106" y="697" name="top"/>
  <outline>
    <contour>
      <point x="113" y="525" type="curve" smooth="yes"/>
      <point x="95" y="525"/>
      <point x="65" y="572"/>
      <point x="46" y="594" type="curve" smooth="yes"/>
      <point x="33" y="610"/>
      <point x="26" y="625"/>
      <point x="26" y="635" type="curve" smooth="yes"/>
      <point x="26" y="653"/>
      <point x="50" y="669"/>
      <point x="76" y="669" type="curve" smooth="yes"/>
      <point x="98" y="669"/>
      <point x="141" y="598"/>
      <point x="151" y="592" type="curve" smooth="yes"/>
      <point x="159" y="587"/>
      <point x="164" y="578"/>
      <point x="164" y="560" type="curve" smooth="yes"/>
      <point x="164" y="528"/>
      <point x="142" y="525"/>
    </contour>
    <contour>
      <point x="68" y="371" type="curve" smooth="yes"/>
      <point x="68" y="397"/>
      <point x="68" y="434"/>
      <point x="86" y="434" type="curve" smooth="yes"/>
      <point x="96" y="434"/>
      <point x="114" y="427"/>
      <point x="122" y="419" type="curve" smooth="yes"/>
      <point x="128" y="413"/>
      <point x="133" y="387"/>
      <point x="135" y="333" type="curve"/>
      <point x="135" y="242"/>
      <point x="137" y="141"/>
      <point x="148" y="59" type="curve" smooth="yes"/>
      <point x="154" y="16"/>
      <point x="166" y="-24"/>
      <point x="166" y="-64" type="curve" smooth="yes"/>
      <point x="166" y="-128"/>
      <point x="151" y="-176"/>
      <point x="124" y="-203" type="curve" smooth="yes"/>
      <point x="116" y="-211"/>
      <point x="100" y="-214"/>
      <point x="86" y="-214" type="curve" smooth="yes"/>
      <point x="43" y="-214"/>
      <point x="-4" y="-190"/>
      <point x="-30" y="-182" type="curve" smooth="yes"/>
      <point x="-56" y="-174"/>
      <point x="-66" y="-158"/>
      <point x="-66" y="-139" type="curve" smooth="yes"/>
      <point x="-66" y="-121"/>
      <point x="-49" y="-114"/>
      <point x="-33" y="-114" type="curve" smooth="yes"/>
      <point x="-11" y="-114"/>
      <point x="37" y="-142"/>
      <point x="63" y="-142" type="curve" smooth="yes"/>
      <point x="93" y="-142"/>
      <point x="97" y="-114"/>
      <point x="97" y="-77" type="curve" smooth="yes"/>
      <point x="97" y="-34"/>
      <point x="90" y="-16"/>
      <point x="82" y="59" type="curve" smooth="yes"/>
      <point x="74" y="153"/>
      <point x="68" y="296"/>
    </contour>
  </outline>
</glyph>
<glyph name="k" format="2">
  <advance width="453"/>
  <unicode hex="006B"/>
  <anchor x="248" y="33" name="bottom"/>
  <anchor x="214" y="726" name="top"/>
  <outline>
    <contour>
      <point x="110" y="-8" type="curve" smooth="yes"/>
      <point x="77" y="-8"/>
      <point x="74" y="10"/>
      <point x="74" y="80" type="curve" smooth="yes"/>
      <point x="74" y="88"/>
      <point x="72" y="130"/>
      <point x="70" y="208" type="curve" smooth="yes"/>
      <point x="68" y="328"/>
      <point x="57" y="378"/>
      <point x="57" y="506" type="curve" smooth="yes"/>
      <point x="57" y="514"/>
      <point x="42" y="627"/>
      <point x="42" y="661" type="curve" smooth="yes"/>
      <point x="42" y="680"/>
      <point x="53" y="707"/>
      <point x="79" y="707" type="curve" smooth="yes"/>
      <point x="108" y="707"/>
      <point x="111" y="689"/>
      <point x="111" y="643" type="curve" smooth="yes"/>
      <point x="111" y="606"/>
      <point x="113" y="580"/>
      <point x="118" y="554" type="curve" smooth="yes"/>
      <point x="126" y="509"/>
      <point x="129" y="363"/>
      <point x="134" y="310" type="curve" smooth="yes"/>
      <point x="139" y="267"/>
      <point x="136" y="252"/>
      <point x="138" y="238" type="curve"/>
      <point x="166" y="255"/>
      <point x="243" y="312"/>
      <point x="260" y="338" type="curve"/>
      <point x="268" y="348"/>
      <point x="342" y="400"/>
      <point x="353" y="400" type="curve" smooth="yes"/>
      <point x="367" y="400"/>
      <point x="372" y="394"/>
      <point x="372" y="376" type="curve" smooth="yes"/>
      <point x="372" y="350"/>
      <point x="366" y="357"/>
      <point x="340" y="328" type="curve" smooth="yes"/>
      <point x="324" y="309"/>
      <point x="279" y="263"/>
      <point x="249" y="234" type="curve" smooth="yes"/>
      <point x="228" y="215"/>
      <point x="196" y="190"/>
      <point x="183" y="179" type="curve"/>
      <point x="197" y="165"/>
      <point x="231" y="130"/>
      <point x="268" y="104" type="curve"/>
      <point x="287" y="94"/>
      <point x="331" y="67"/>
      <point x="350" y="62" type="curve"/>
      <point x="358" y="59"/>
      <point x="370" y="59"/>
      <point x="388" y="59" type="curve" smooth="yes"/>
      <point x="420" y="59" type="line" smooth="yes"/>
      <point x="431" y="59"/>
      <point x="442" y="49"/>
      <point x="442" y="38" type="curve" smooth="yes"/>
      <point x="442" y="27"/>
      <point x="432" y="13"/>
      <point x="422" y="8" type="curve"/>
      <point x="409" y="3"/>
      <point x="380" y="-8"/>
      <point x="364" y="-8" type="curve" smooth="yes"/>
      <point x="361" y="-8"/>
      <point x="353" y="-8"/>
      <point x="337" y="-6" type="curve"/>
      <point x="283" y="4"/>
      <point x="230" y="27"/>
      <point x="180" y="69" type="curve" smooth="yes"/>
      <point x="164" y="82"/>
      <point x="150" y="90"/>
      <point x="145" y="93" type="curve"/>
      <point x="145" y="37"/>
      <point x="158" y="44"/>
      <point x="158" y="27" type="curve" smooth="yes"/>
      <point x="158" y="3"/>
      <point x="128" y="-8"/>
    </contour>
  </outline>
</glyph>
<glyph name="l" format="2">
  <advance width="232"/>
  <unicode hex="006C"/>
  <anchor x="136" y="33" name="bottom"/>
  <anchor x="102" y="786" name="top"/>
  <outline>
    <contour>
      <point x="117" y="558" type="curve" smooth="yes"/>
      <point x="117" y="527"/>
      <point x="118" y="464"/>
      <point x="118" y="462" type="curve" smooth="yes"/>
      <point x="118" y="384"/>
      <point x="113" y="320"/>
      <point x="113" y="287" type="curve" smooth="yes"/>
      <point x="113" y="283"/>
      <point x="113" y="280"/>
      <point x="113" y="277" type="curve" smooth="yes"/>
      <point x="116" y="160"/>
      <point x="111" y="94"/>
      <point x="137" y="64" type="curve" smooth="yes"/>
      <point x="142" y="58"/>
      <point x="150" y="56"/>
      <point x="158" y="56" type="curve" smooth="yes"/>
      <point x="163" y="56"/>
      <point x="175" y="69"/>
      <point x="188" y="69" type="curve" smooth="yes"/>
      <point x="204" y="69"/>
      <point x="226" y="66"/>
      <point x="226" y="50" type="curve" smooth="yes"/>
      <point x="226" y="24"/>
      <point x="164" y="-13"/>
      <point x="143" y="-13" type="curve" smooth="yes"/>
      <point x="135" y="-13"/>
      <point x="124" y="-11"/>
      <point x="111" y="-3" type="curve"/>
      <point x="73" y="16"/>
      <point x="58" y="51"/>
      <point x="52" y="93" type="curve" smooth="yes"/>
      <point x="49" y="119"/>
      <point x="49" y="238"/>
      <point x="49" y="350" type="curve" smooth="yes"/>
      <point x="49" y="497"/>
      <point x="50" y="582"/>
      <point x="50" y="712" type="curve" smooth="yes"/>
      <point x="50" y="733"/>
      <point x="58" y="741"/>
      <point x="82" y="741" type="curve" smooth="yes"/>
      <point x="95" y="741"/>
      <point x="111" y="732"/>
      <point x="116" y="718" type="curve" smooth="yes"/>
      <point x="117" y="715"/>
      <point x="118" y="697"/>
      <point x="118" y="670" type="curve" smooth="yes"/>
      <point x="118" y="640"/>
      <point x="117" y="599"/>
    </contour>
  </outline>
</glyph>
<glyph name="m" format="2">
  <advance width="708"/>
  <unicode hex="006D"/>
  <anchor x="352" y="33" name="bottom"/>
  <anchor x="347" y="479" name="top"/>
  <outline>
    <contour>
      <point x="596" y="450" type="curve"/>
      <point x="647" y="448"/>
      <point x="647" y="374"/>
      <point x="647" y="315" type="curve" smooth="yes"/>
      <point x="647" y="273"/>
      <point x="646" y="228"/>
      <point x="646" y="186" type="curve" smooth="yes"/>
      <point x="646" y="113"/>
      <point x="649" y="63"/>
      <point x="662" y="61" type="curve"/>
      <point x="675" y="58"/>
      <point x="685" y="54"/>
      <point x="685" y="36" type="curve" smooth="yes"/>
      <point x="685" y="17"/>
      <point x="669" y="-2"/>
      <point x="650" y="-2" type="curve" smooth="yes"/>
      <point x="594" y="-2"/>
      <point x="578" y="47"/>
      <point x="578" y="178" type="curve" smooth="yes"/>
      <point x="578" y="180"/>
      <point x="578" y="265"/>
      <point x="578" y="279" type="curve" smooth="yes"/>
      <point x="578" y="306"/>
      <point x="578" y="331"/>
      <point x="577" y="352" type="curve"/>
      <point x="577" y="360" type="line"/>
      <point x="551" y="334"/>
      <point x="508" y="270"/>
      <point x="490" y="239" type="curve" smooth="yes"/>
      <point x="467" y="198"/>
      <point x="446" y="154"/>
      <point x="425" y="123" type="curve" smooth="yes"/>
      <point x="415" y="107"/>
      <point x="404" y="93"/>
      <point x="394" y="82" type="curve" smooth="yes"/>
      <point x="384" y="72"/>
      <point x="372" y="58"/>
      <point x="350" y="58" type="curve" smooth="yes"/>
      <point x="291" y="58"/>
      <point x="283" y="117"/>
      <point x="283" y="163" type="curve" smooth="yes"/>
      <point x="283" y="213"/>
      <point x="293" y="280"/>
      <point x="295" y="328" type="curve"/>
      <point x="293" y="324"/>
      <point x="289" y="320"/>
      <point x="286" y="315" type="curve" smooth="yes"/>
      <point x="228" y="233"/>
      <point x="169" y="64"/>
      <point x="121" y="6" type="curve" smooth="yes"/>
      <point x="115" y="-2"/>
      <point x="106" y="-6"/>
      <point x="96" y="-6" type="curve" smooth="yes"/>
      <point x="77" y="-6"/>
      <point x="62" y="8"/>
      <point x="61" y="27" type="curve" smooth="yes"/>
      <point x="55" y="201"/>
      <point x="47" y="300"/>
      <point x="34" y="374" type="curve"/>
      <point x="33" y="384"/>
      <point x="31" y="391"/>
      <point x="31" y="402" type="curve" smooth="yes"/>
      <point x="31" y="415"/>
      <point x="40" y="430"/>
      <point x="62" y="430" type="curve" smooth="yes"/>
      <point x="80" y="430"/>
      <point x="98" y="417"/>
      <point x="100" y="399" type="curve" smooth="yes"/>
      <point x="107" y="349"/>
      <point x="120" y="255"/>
      <point x="124" y="143" type="curve"/>
      <point x="152" y="202"/>
      <point x="229" y="366"/>
      <point x="267" y="404" type="curve" smooth="yes"/>
      <point x="279" y="415"/>
      <point x="295" y="425"/>
      <point x="316" y="425" type="curve" smooth="yes"/>
      <point x="325" y="425"/>
      <point x="364" y="421"/>
      <point x="364" y="363" type="curve" smooth="yes"/>
      <point x="364" y="350"/>
      <point x="363" y="338"/>
      <point x="363" y="336" type="curve" smooth="yes"/>
      <point x="363" y="284"/>
      <point x="351" y="211"/>
      <point x="351" y="157" type="curve" smooth="yes"/>
      <point x="351" y="151"/>
      <point x="352" y="145"/>
      <point x="352" y="140" type="curve" smooth="yes"/>
      <point x="352" y="138" type="line"/>
      <point x="357" y="144"/>
      <point x="362" y="152"/>
      <point x="368" y="161" type="curve" smooth="yes"/>
      <point x="416" y="231"/>
      <point x="469" y="337"/>
      <point x="510" y="391" type="curve" smooth="yes"/>
      <point x="531" y="420"/>
      <point x="560" y="450"/>
    </contour>
  </outline>
</glyph>
<glyph name="o" format="2">
  <advance width="428"/>
  <unicode hex="006F"/>
  <anchor x="221" y="23" name="bottom"/>
  <anchor x="224" y="474" name="top"/>
  <outline>
    <contour>
      <point x="315" y="334" type="curve" smooth="yes"/>
      <point x="289" y="363"/>
      <point x="284" y="370"/>
      <point x="242" y="370" type="curve" smooth="yes"/>
      <point x="176" y="370"/>
      <point x="144" y="352"/>
      <point x="118" y="294" type="curve"/>
      <point x="110" y="278"/>
      <point x="107" y="246"/>
      <point x="107" y="217" type="curve" smooth="yes"/>
      <point x="107" y="155"/>
      <point x="121" y="118"/>
      <point x="150" y="84" type="curve" smooth="yes"/>
      <point x="166" y="65"/>
      <point x="177" y="57"/>
      <point x="190" y="57" type="curve" smooth="yes"/>
      <point x="208" y="57"/>
      <point x="229" y="72"/>
      <point x="258" y="98" type="curve" smooth="yes"/>
      <point x="290" y="125"/>
      <point x="310" y="152"/>
      <point x="320" y="174" type="curve"/>
      <point x="328" y="188"/>
      <point x="330" y="225"/>
      <point x="330" y="255" type="curve" smooth="yes"/>
      <point x="330" y="292"/>
      <point x="323" y="324"/>
    </contour>
    <contour>
      <point x="229" y="435" type="curve" smooth="yes"/>
      <point x="357" y="435"/>
      <point x="392" y="387"/>
      <point x="392" y="259" type="curve" smooth="yes"/>
      <point x="392" y="221"/>
      <point x="391" y="177"/>
      <point x="377" y="146" type="curve" smooth="yes"/>
      <point x="366" y="122"/>
      <point x="336" y="79"/>
      <point x="298" y="46" type="curve" smooth="yes"/>
      <point x="262" y="15"/>
      <point x="233" y="-8"/>
      <point x="191" y="-8" type="curve" smooth="yes"/>
      <point x="142" y="-8"/>
      <point x="97" y="27"/>
      <point x="70" y="78" type="curve" smooth="yes"/>
      <point x="56" y="104"/>
      <point x="37" y="170"/>
      <point x="37" y="258" type="curve" smooth="yes"/>
      <point x="37" y="301"/>
      <point x="50" y="332"/>
      <point x="72" y="358" type="curve" smooth="yes"/>
      <point x="114" y="406"/>
      <point x="147" y="435"/>
    </contour>
  </outline>
</glyph>
<glyph name="q" format="2">
  <advance width="456"/>
  <unicode hex="0071"/>
  <anchor x="392" y="-196" name="bottom"/>
  <anchor x="224" y="476" name="top"/>
  <outline>
    <contour>
      <point x="298" y="181" type="curve"/>
      <point x="323" y="226"/>
      <point x="331" y="265"/>
      <point x="331" y="315" type="curve"/>
      <point x="328" y="321"/>
      <point x="325" y="325"/>
      <point x="312" y="336" type="curve" smooth="yes"/>
      <point x="291" y="355"/>
      <point x="267" y="363"/>
      <point x="238" y="363" type="curve" smooth="yes"/>
      <point x="148" y="363"/>
      <point x="109" y="304"/>
      <point x="109" y="197" type="curve" smooth="yes"/>
      <point x="109" y="143"/>
      <point x="128" y="82"/>
      <point x="166" y="82" type="curve" smooth="yes"/>
      <point x="225" y="82"/>
      <point x="271" y="130"/>
    </contour>
    <contour>
      <point x="405" y="310" type="curve" smooth="yes"/>
      <point x="405" y="308"/>
      <point x="395" y="129"/>
      <point x="395" y="94" type="curve" smooth="yes"/>
      <point x="395" y="16"/>
      <point x="389" y="-33"/>
      <point x="389" y="-59" type="curve" smooth="yes"/>
      <point x="389" y="-118"/>
      <point x="394" y="-163"/>
      <point x="424" y="-163" type="curve" smooth="yes"/>
      <point x="448" y="-163"/>
      <point x="454" y="-128"/>
      <point x="480" y="-128" type="curve" smooth="yes"/>
      <point x="498" y="-128"/>
      <point x="504" y="-147"/>
      <point x="504" y="-160" type="curve" smooth="yes"/>
      <point x="504" y="-195"/>
      <point x="456" y="-230"/>
      <point x="419" y="-230" type="curve" smooth="yes"/>
      <point x="339" y="-230"/>
      <point x="323" y="-157"/>
      <point x="323" y="-77" type="curve" smooth="yes"/>
      <point x="323" y="-53"/>
      <point x="333" y="106"/>
      <point x="333" y="125" type="curve"/>
      <point x="311" y="85"/>
      <point x="245" y="6"/>
      <point x="187" y="6" type="curve" smooth="yes"/>
      <point x="88" y="6"/>
      <point x="45" y="82"/>
      <point x="45" y="186" type="curve" smooth="yes"/>
      <point x="45" y="290"/>
      <point x="61" y="348"/>
      <point x="93" y="378" type="curve" smooth="yes"/>
      <point x="133" y="415"/>
      <point x="167" y="432"/>
      <point x="229" y="432" type="curve" smooth="yes"/>
      <point x="280" y="432"/>
      <point x="318" y="409"/>
      <point x="347" y="395" type="curve"/>
      <point x="369" y="385"/>
      <point x="384" y="380"/>
      <point x="389" y="378" type="curve"/>
      <point x="399" y="372"/>
      <point x="405" y="350"/>
    </contour>
  </outline>
</glyph>
<glyph name="r" format="2">
  <advance width="377"/>
  <unicode hex="0072"/>
  <anchor x="102" y="33" name="bottom"/>
  <anchor x="200" y="482" name="top"/>
  <outline>
    <contour>
      <point x="112" y="412" type="curve" smooth="yes"/>
      <point x="112" y="402"/>
      <point x="104" y="384"/>
      <point x="104" y="314" type="curve" smooth="yes"/>
      <point x="104" y="281"/>
      <point x="107" y="244"/>
      <point x="110" y="206" type="curve"/>
      <point x="127" y="268"/>
      <point x="147" y="330"/>
      <point x="167" y="386" type="curve" smooth="yes"/>
      <point x="180" y="420"/>
      <point x="195" y="445"/>
      <point x="234" y="445" type="curve" smooth="yes"/>
      <point x="274" y="445"/>
      <point x="330" y="426"/>
      <point x="350" y="426" type="curve" smooth="yes"/>
      <point x="369" y="426"/>
      <point x="382" y="417"/>
      <point x="382" y="399" type="curve" smooth="yes"/>
      <point x="382" y="377"/>
      <point x="371" y="359"/>
      <point x="346" y="359" type="curve" smooth="yes"/>
      <point x="312" y="360"/>
      <point x="264" y="376"/>
      <point x="234" y="377" type="curve"/>
      <point x="196" y="272"/>
      <point x="159" y="158"/>
      <point x="134" y="37" type="curve" smooth="yes"/>
      <point x="130" y="19"/>
      <point x="119" y="-5"/>
      <point x="102" y="-5" type="curve" smooth="yes"/>
      <point x="81" y="-5"/>
      <point x="71" y="16"/>
      <point x="67" y="34" type="curve" smooth="yes"/>
      <point x="45" y="126"/>
      <point x="36" y="231"/>
      <point x="36" y="312" type="curve" smooth="yes"/>
      <point x="36" y="351"/>
      <point x="38" y="384"/>
      <point x="42" y="407" type="curve" smooth="yes"/>
      <point x="45" y="421"/>
      <point x="48" y="443"/>
      <point x="67" y="443" type="curve" smooth="yes"/>
      <point x="97" y="443"/>
      <point x="112" y="432"/>
    </contour>
  </outline>
</glyph>
<glyph name="s" format="2">
  <advance width="342"/>
  <unicode hex="0073"/>
  <anchor x="176" y="33" name="bottom"/>
  <anchor x="173" y="478" name="top"/>
  <outline>
    <contour>
      <point x="206" y="443" type="curve" smooth="yes"/>
      <point x="236" y="443"/>
      <point x="275" y="429"/>
      <point x="292" y="411" type="curve" smooth="yes"/>
      <point x="298" y="405"/>
      <point x="303" y="395"/>
      <point x="303" y="376" type="curve" smooth="yes"/>
      <point x="303" y="354"/>
      <point x="284" y="318"/>
      <point x="260" y="318" type="curve" smooth="yes"/>
      <point x="242" y="318"/>
      <point x="228" y="334"/>
      <point x="228" y="342" type="curve" smooth="yes"/>
      <point x="228" y="348"/>
      <point x="236" y="358"/>
      <point x="236" y="368" type="curve" smooth="yes"/>
      <point x="236" y="376"/>
      <point x="226" y="381"/>
      <point x="202" y="381" type="curve" smooth="yes"/>
      <point x="180" y="381"/>
      <point x="166" y="373"/>
      <point x="138" y="352" type="curve" smooth="yes"/>
      <point x="112" y="333"/>
      <point x="106" y="324"/>
      <point x="106" y="314" type="curve" smooth="yes"/>
      <point x="106" y="277"/>
      <point x="148" y="249"/>
      <point x="170" y="232" type="curve" smooth="yes"/>
      <point x="208" y="204"/>
      <point x="306" y="117"/>
      <point x="306" y="62" type="curve" smooth="yes"/>
      <point x="306" y="0"/>
      <point x="204" y="-8"/>
      <point x="158" y="-8" type="curve" smooth="yes"/>
      <point x="129" y="-8"/>
      <point x="51" y="-1"/>
      <point x="51" y="38" type="curve" smooth="yes"/>
      <point x="51" y="60"/>
      <point x="63" y="72"/>
      <point x="85" y="72" type="curve" smooth="yes"/>
      <point x="111" y="72"/>
      <point x="116" y="59"/>
      <point x="174" y="59" type="curve" smooth="yes"/>
      <point x="204" y="59"/>
      <point x="224" y="66"/>
      <point x="232" y="72" type="curve"/>
      <point x="210" y="122"/>
      <point x="166" y="150"/>
      <point x="111" y="197" type="curve" smooth="yes"/>
      <point x="80" y="223"/>
      <point x="37" y="255"/>
      <point x="37" y="317" type="curve" smooth="yes"/>
      <point x="37" y="342"/>
      <point x="48" y="371"/>
      <point x="102" y="407" type="curve" smooth="yes"/>
      <point x="138" y="431"/>
      <point x="161" y="443"/>
    </contour>
  </outline>
</glyph>
<glyph name="t" format="2">
  <advance width="440"/>
  <unicode hex="0074"/>
  <anchor x="256" y="17" name="bottom"/>
  <anchor x="232" y="713" name="top"/>
  <outline>
    <contour>
      <point x="205" y="309" type="line" smooth="yes"/>
      <point x="205" y="89"/>
      <point x="215" y="58"/>
      <point x="296" y="58" type="curve" smooth="yes"/>
      <point x="326" y="58"/>
      <point x="362" y="93"/>
      <point x="365" y="98" type="curve" smooth="yes"/>
      <point x="368" y="103"/>
      <point x="368" y="107"/>
      <point x="376" y="107" type="curve" smooth="yes"/>
      <point x="394" y="107"/>
      <point x="419" y="87"/>
      <point x="419" y="69" type="curve" smooth="yes"/>
      <point x="419" y="59"/>
      <point x="398" y="36"/>
      <point x="390" y="30" type="curve" smooth="yes"/>
      <point x="352" y="0"/>
      <point x="344" y="-11"/>
      <point x="277" y="-11" type="curve" smooth="yes"/>
      <point x="175" y="-11"/>
      <point x="144" y="83"/>
      <point x="142" y="197" type="curve" smooth="yes"/>
      <point x="142" y="231"/>
      <point x="138" y="306"/>
      <point x="138" y="368" type="curve"/>
      <point x="95" y="360"/>
      <point x="69" y="355"/>
      <point x="53" y="355" type="curve" smooth="yes"/>
      <point x="37" y="355"/>
      <point x="19" y="366"/>
      <point x="19" y="392" type="curve" smooth="yes"/>
      <point x="19" y="418"/>
      <point x="32" y="434"/>
      <point x="58" y="434" type="curve" smooth="yes"/>
      <point x="66" y="434"/>
      <point x="72" y="432"/>
      <point x="77" y="432" type="curve" smooth="yes"/>
      <point x="82" y="432"/>
      <point x="117" y="433"/>
      <point x="139" y="438" type="curve"/>
      <point x="139" y="452"/>
      <point x="141" y="449"/>
      <point x="141" y="475" type="curve" smooth="yes"/>
      <point x="141" y="515"/>
      <point x="144" y="560"/>
      <point x="147" y="611" type="curve" smooth="yes"/>
      <point x="150" y="670"/>
      <point x="147" y="693"/>
      <point x="168" y="693" type="curve" smooth="yes"/>
      <point x="197" y="693"/>
      <point x="214" y="688"/>
      <point x="214" y="648" type="curve" smooth="yes"/>
      <point x="214" y="606"/>
      <point x="204" y="532"/>
      <point x="204" y="493" type="curve" smooth="yes"/>
      <point x="204" y="479"/>
      <point x="205" y="465"/>
      <point x="205" y="450" type="curve"/>
      <point x="207" y="450"/>
      <point x="283" y="461"/>
      <point x="304" y="467" type="curve" smooth="yes"/>
      <point x="325" y="473"/>
      <point x="339" y="477"/>
      <point x="365" y="477" type="curve" smooth="yes"/>
      <point x="381" y="477"/>
      <point x="402" y="468"/>
      <point x="402" y="454" type="curve" smooth="yes"/>
      <point x="402" y="446"/>
      <point x="394" y="432"/>
      <point x="381" y="424" type="curve" smooth="yes"/>
      <point x="351" y="405"/>
      <point x="243" y="389"/>
      <point x="205" y="384" type="curve"/>
    </contour>
  </outline>
</glyph>
<glyph name="u" format="2">
  <advance width="448"/>
  <unicode hex="0075"/>
  <anchor x="224" y="41" name="bottom"/>
  <anchor x="214" y="478" name="top"/>
  <outline>
    <contour>
      <point x="102" y="288" type="curve" smooth="yes"/>
      <point x="102" y="237"/>
      <point x="102" y="69"/>
      <point x="171" y="69" type="curve" smooth="yes"/>
      <point x="184" y="69"/>
      <point x="200" y="77"/>
      <point x="213" y="91" type="curve" smooth="yes"/>
      <point x="237" y="118"/>
      <point x="284" y="244"/>
      <point x="298" y="283" type="curve" smooth="yes"/>
      <point x="319" y="341"/>
      <point x="321" y="380"/>
      <point x="323" y="402" type="curve" smooth="yes"/>
      <point x="325" y="424"/>
      <point x="324" y="435"/>
      <point x="326" y="437" type="curve" smooth="yes"/>
      <point x="328" y="439"/>
      <point x="336" y="440"/>
      <point x="349" y="440" type="curve" smooth="yes"/>
      <point x="382" y="440"/>
      <point x="387" y="412"/>
      <point x="387" y="386" type="curve" smooth="yes"/>
      <point x="387" y="317"/>
      <point x="374" y="320"/>
      <point x="374" y="134" type="curve" smooth="yes"/>
      <point x="374" y="99"/>
      <point x="379" y="69"/>
      <point x="392" y="69" type="curve" smooth="yes"/>
      <point x="403" y="69"/>
      <point x="414" y="80"/>
      <point x="422" y="80" type="curve" smooth="yes"/>
      <point x="433" y="80"/>
      <point x="437" y="68"/>
      <point x="437" y="50" type="curve" smooth="yes"/>
      <point x="437" y="13"/>
      <point x="399" y="2"/>
      <point x="373" y="2" type="curve" smooth="yes"/>
      <point x="360" y="2"/>
      <point x="349" y="5"/>
      <point x="341" y="13" type="curve"/>
      <point x="317" y="32"/>
      <point x="314" y="93"/>
      <point x="309" y="136" type="curve"/>
      <point x="266" y="29"/>
      <point x="221" y="-2"/>
      <point x="173" y="-2" type="curve" smooth="yes"/>
      <point x="44" y="-2"/>
      <point x="37" y="180"/>
      <point x="37" y="272" type="curve" smooth="yes"/>
      <point x="37" y="315"/>
      <point x="40" y="385"/>
      <point x="50" y="422" type="curve" smooth="yes"/>
      <point x="53" y="432"/>
      <point x="57" y="432"/>
      <point x="67" y="432" type="curve" smooth="yes"/>
      <point x="80" y="432"/>
      <point x="107" y="426"/>
      <point x="107" y="418" type="curve" smooth="yes"/>
      <point x="107" y="414"/>
      <point x="107" y="409"/>
      <point x="107" y="405" type="curve" smooth="yes"/>
      <point x="107" y="369"/>
      <point x="102" y="321"/>
    </contour>
  </outline>
</glyph>
<glyph name="w" format="2">
  <advance width="545"/>
  <unicode hex="0077"/>
  <anchor x="256" y="33" name="bottom"/>
  <anchor x="274" y="486" name="top"/>
  <outline>
    <contour>
      <point x="434" y="440" type="curve" smooth="yes"/>
      <point x="446" y="440"/>
      <point x="518" y="420"/>
      <point x="518" y="294" type="curve" smooth="yes"/>
      <point x="518" y="218"/>
      <point x="497" y="156"/>
      <point x="453" y="81" type="curve" smooth="yes"/>
      <point x="416" y="17"/>
      <point x="380" y="-2"/>
      <point x="348" y="-2" type="curve" smooth="yes"/>
      <point x="295" y="-2"/>
      <point x="263" y="47"/>
      <point x="242" y="100" type="curve"/>
      <point x="225" y="59"/>
      <point x="178" y="-6"/>
      <point x="129" y="-6" type="curve" smooth="yes"/>
      <point x="111" y="-6"/>
      <point x="92" y="-1"/>
      <point x="73" y="22" type="curve" smooth="yes"/>
      <point x="51" y="48"/>
      <point x="38" y="134"/>
      <point x="38" y="238" type="curve" smooth="yes"/>
      <point x="38" y="398"/>
      <point x="45" y="426"/>
      <point x="55" y="436" type="curve" smooth="yes"/>
      <point x="59" y="440"/>
      <point x="70" y="443"/>
      <point x="75" y="443" type="curve" smooth="yes"/>
      <point x="102" y="443"/>
      <point x="113" y="422"/>
      <point x="113" y="415" type="curve" smooth="yes"/>
      <point x="113" y="398"/>
      <point x="103" y="352"/>
      <point x="103" y="241" type="curve" smooth="yes"/>
      <point x="103" y="123"/>
      <point x="119" y="75"/>
      <point x="130" y="75" type="curve" smooth="yes"/>
      <point x="158" y="75"/>
      <point x="210" y="148"/>
      <point x="230" y="274" type="curve" smooth="yes"/>
      <point x="236" y="312"/>
      <point x="244" y="347"/>
      <point x="247" y="353" type="curve" smooth="yes"/>
      <point x="252" y="361"/>
      <point x="258" y="366"/>
      <point x="268" y="366" type="curve" smooth="yes"/>
      <point x="296" y="366"/>
      <point x="307" y="351"/>
      <point x="307" y="330" type="curve" smooth="yes"/>
      <point x="307" y="320"/>
      <point x="294" y="260"/>
      <point x="294" y="226" type="curve" smooth="yes"/>
      <point x="294" y="135"/>
      <point x="312" y="73"/>
      <point x="347" y="73" type="curve" smooth="yes"/>
      <point x="362" y="73"/>
      <point x="383" y="90"/>
      <point x="400" y="122" type="curve" smooth="yes"/>
      <point x="441" y="196"/>
      <point x="453" y="242"/>
      <point x="453" y="292" type="curve" smooth="yes"/>
      <point x="453" y="328"/>
      <point x="444" y="359"/>
      <point x="420" y="359" type="curve" smooth="yes"/>
      <point x="410" y="359"/>
      <point x="413" y="358"/>
      <point x="407" y="358" type="curve" smooth="yes"/>
      <point x="392" y="358"/>
      <point x="376" y="375"/>
      <point x="376" y="389" type="curve" smooth="yes"/>
      <point x="376" y="420"/>
      <point x="399" y="440"/>
    </contour>
  </outline>
</glyph>
<glyph name="x" format="2">
  <advance width="443"/>
  <unicode hex="0078"/>
  <anchor x="232" y="33" name="bottom"/>
  <anchor x="226" y="476" name="top"/>
  <outline>
    <contour>
      <point x="118" y="2" type="curve"/>
      <point x="108" y="3"/>
      <point x="77" y="5"/>
      <point x="77" y="35" type="curve" smooth="yes"/>
      <point x="77" y="46"/>
      <point x="104" y="92"/>
      <point x="118" y="118" type="curve" smooth="yes"/>
      <point x="134" y="145"/>
      <point x="163" y="178"/>
      <point x="179" y="200" type="curve"/>
      <point x="169" y="211"/>
      <point x="158" y="224"/>
      <point x="120" y="272" type="curve" smooth="yes"/>
      <point x="82" y="320"/>
      <point x="56" y="345"/>
      <point x="48" y="347" type="curve"/>
      <point x="34" y="347"/>
      <point x="19" y="388"/>
      <point x="19" y="398" type="curve"/>
      <point x="22" y="414"/>
      <point x="38" y="424"/>
      <point x="53" y="424" type="curve" smooth="yes"/>
      <point x="81" y="424"/>
      <point x="100" y="400"/>
      <point x="155" y="331" type="curve" smooth="yes"/>
      <point x="192" y="285"/>
      <point x="213" y="270"/>
      <point x="221" y="259" type="curve"/>
      <point x="260" y="303"/>
      <point x="347" y="416"/>
      <point x="349" y="418" type="curve" smooth="yes"/>
      <point x="359" y="427"/>
      <point x="367" y="430"/>
      <point x="373" y="430" type="curve" smooth="yes"/>
      <point x="391" y="430"/>
      <point x="424" y="412"/>
      <point x="424" y="398" type="curve" smooth="yes"/>
      <point x="424" y="392"/>
      <point x="420" y="387"/>
      <point x="414" y="382" type="curve"/>
      <point x="388" y="356"/>
      <point x="388" y="354"/>
      <point x="374" y="338" type="curve" smooth="yes"/>
      <point x="332" y="295"/>
      <point x="305" y="249"/>
      <point x="270" y="204" type="curve"/>
      <point x="292" y="180"/>
      <point x="326" y="135"/>
      <point x="348" y="116" type="curve" smooth="yes"/>
      <point x="366" y="100"/>
      <point x="382" y="90"/>
      <point x="388" y="82" type="curve" smooth="yes"/>
      <point x="394" y="74"/>
      <point x="398" y="64"/>
      <point x="398" y="51" type="curve" smooth="yes"/>
      <point x="398" y="36"/>
      <point x="374" y="6"/>
      <point x="358" y="6" type="curve" smooth="yes"/>
      <point x="336" y="6"/>
      <point x="306" y="45"/>
      <point x="285" y="71" type="curve" smooth="yes"/>
      <point x="264" y="97"/>
      <point x="253" y="126"/>
      <point x="227" y="150" type="curve"/>
      <point x="197" y="108"/>
      <point x="170" y="63"/>
      <point x="154" y="26" type="curve"/>
      <point x="144" y="8"/>
      <point x="140" y="2"/>
    </contour>
  </outline>
</glyph>
<glyph name="bar" format="2">
  <advance width="176"/>
  <unicode hex="007C"/>
  <outline>
    <contour>
      <point x="90" y="696" type="curve" smooth="yes"/>
      <point x="105" y="696"/>
      <point x="134" y="638"/>
      <point x="134" y="598" type="curve" smooth="yes"/>
      <point x="134" y="578"/>
      <point x="116" y="526"/>
      <point x="112" y="488" type="curve" smooth="yes"/>
      <point x="110" y="477"/>
      <point x="109" y="429"/>
      <point x="109" y="344" type="curve" smooth="yes"/>
      <point x="109" y="222"/>
      <point x="109" y="193"/>
      <point x="134" y="-46" type="curve" smooth="yes"/>
      <point x="138" y="-83"/>
      <point x="140" y="-117"/>
      <point x="150" y="-144" type="curve"/>
      <point x="158" y="-170"/>
      <point x="163" y="-183"/>
      <point x="163" y="-189" type="curve" smooth="yes"/>
      <point x="163" y="-204"/>
      <point x="137" y="-230"/>
      <point x="122" y="-230" type="curve" smooth="yes"/>
      <point x="109" y="-230"/>
      <point x="92" y="-222"/>
      <point x="85" y="-197" type="curve" smooth="yes"/>
      <point x="62" y="-114"/>
      <point x="53" y="62"/>
      <point x="50" y="168" type="curve" smooth="yes"/>
      <point x="46" y="248"/>
      <point x="43" y="292"/>
      <point x="43" y="373" type="curve" smooth="yes"/>
      <point x="43" y="438"/>
      <point x="48" y="660"/>
      <point x="54" y="682" type="curve" smooth="yes"/>
      <point x="56" y="691"/>
      <point x="79" y="696"/>
    </contour>
  </outline>
</glyph>
<glyph name="braceright" format="2">
  <advance width="380"/>
  <unicode hex="007D"/>
  <outline>
    <contour>
      <point x="98" y="633" type="curve" smooth="yes"/>
      <point x="61" y="633"/>
      <point x="68" y="614"/>
      <point x="50" y="614" type="curve" smooth="yes"/>
      <point x="29" y="614"/>
      <point x="18" y="630"/>
      <point x="18" y="650" type="curve" smooth="yes"/>
      <point x="18" y="668"/>
      <point x="20" y="673"/>
      <point x="48" y="686" type="curve" smooth="yes"/>
      <point x="64" y="693"/>
      <point x="78" y="698"/>
      <point x="88" y="698" type="curve" smooth="yes"/>
      <point x="145" y="698"/>
      <point x="188" y="671"/>
      <point x="222" y="646" type="curve" smooth="yes"/>
      <point x="253" y="623"/>
      <point x="267" y="552"/>
      <point x="267" y="518" type="curve" smooth="yes"/>
      <point x="267" y="424"/>
      <point x="235" y="395"/>
      <point x="235" y="333" type="curve" smooth="yes"/>
      <point x="235" y="314"/>
      <point x="237" y="301"/>
      <point x="243" y="293" type="curve" smooth="yes"/>
      <point x="259" y="274"/>
      <point x="280" y="264"/>
      <point x="304" y="264" type="curve" smooth="yes"/>
      <point x="315" y="264"/>
      <point x="323" y="266"/>
      <point x="333" y="266" type="curve" smooth="yes"/>
      <point x="360" y="266"/>
      <point x="374" y="259"/>
      <point x="374" y="248" type="curve" smooth="yes"/>
      <point x="374" y="232"/>
      <point x="356" y="204"/>
      <point x="341" y="192" type="curve" smooth="yes"/>
      <point x="318" y="174"/>
      <point x="263" y="98"/>
      <point x="263" y="64" type="curve" smooth="yes"/>
      <point x="263" y="14"/>
      <point x="290" y="-20"/>
      <point x="290" y="-86" type="curve" smooth="yes"/>
      <point x="290" y="-192"/>
      <point x="164" y="-234"/>
      <point x="110" y="-234" type="curve" smooth="yes"/>
      <point x="109" y="-234"/>
      <point x="45" y="-234"/>
      <point x="45" y="-197" type="curve" smooth="yes"/>
      <point x="45" y="-180"/>
      <point x="55" y="-154"/>
      <point x="75" y="-154" type="curve" smooth="yes"/>
      <point x="87" y="-154"/>
      <point x="86" y="-162"/>
      <point x="120" y="-162" type="curve" smooth="yes"/>
      <point x="156" y="-162"/>
      <point x="226" y="-122"/>
      <point x="226" y="-94" type="curve" smooth="yes"/>
      <point x="226" y="-45"/>
      <point x="197" y="17"/>
      <point x="197" y="64" type="curve" smooth="yes"/>
      <point x="197" y="118"/>
      <point x="241" y="174"/>
      <point x="265" y="205" type="curve"/>
      <point x="253" y="209"/>
      <point x="232" y="208"/>
      <point x="214" y="226" type="curve" smooth="yes"/>
      <point x="187" y="253"/>
      <point x="173" y="276"/>
      <point x="173" y="302" type="curve" smooth="yes"/>
      <point x="173" y="371"/>
      <point x="206" y="442"/>
      <point x="206" y="518" type="curve" smooth="yes"/>
      <point x="206" y="577"/>
      <point x="188" y="597"/>
      <point x="146" y="618" type="curve" smooth="yes"/>
      <point x="133" y="624"/>
      <point x="109" y="633"/>
    </contour>
  </outline>
</glyph>
<glyph name="exclamdown" format="2">
  <advance width="177"/>
  <unicode hex="00A1"/>
  <outline>
    <contour>
      <point x="85" y="302" type="curve" smooth="yes"/>
      <point x="51" y="302"/>
      <point x="37" y="342"/>
      <point x="37" y="352" type="curve" smooth="yes"/>
      <point x="37" y="371"/>
      <point x="60" y="384"/>
      <point x="78" y="384" type="curve" smooth="yes"/>
      <point x="102" y="384"/>
      <point x="120" y="365"/>
      <point x="120" y="341" type="curve" smooth="yes"/>
      <point x="120" y="322"/>
      <point x="105" y="302"/>
    </contour>
    <contour>
      <point x="83" y="162" type="curve" smooth="yes"/>
      <point x="99" y="162"/>
      <point x="110" y="158"/>
      <point x="115" y="150" type="curve" smooth="yes"/>
      <point x="121" y="140"/>
      <point x="150" y="-193"/>
      <point x="150" y="-219" type="curve" smooth="yes"/>
      <point x="150" y="-245"/>
      <point x="135" y="-269"/>
      <point x="109" y="-269" type="curve" smooth="yes"/>
      <point x="73" y="-269"/>
      <point x="64" y="-223"/>
      <point x="64" y="-195" type="curve" smooth="yes"/>
      <point x="64" y="-149"/>
      <point x="63" y="-64"/>
      <point x="58" y="19" type="curve" smooth="yes"/>
      <point x="56" y="61"/>
      <point x="54" y="80"/>
      <point x="54" y="123" type="curve" smooth="yes"/>
      <point x="54" y="152"/>
      <point x="65" y="162"/>
    </contour>
  </outline>
</glyph>
<glyph name="sterling" format="2">
  <advance width="556"/>
  <unicode hex="00A3"/>
  <outline>
    <contour>
      <point x="168" y="110" type="curve"/>
      <point x="167" y="110"/>
      <point x="166" y="111"/>
      <point x="164" y="111" type="curve" smooth="yes"/>
      <point x="150" y="111"/>
      <point x="120" y="97"/>
      <point x="120" y="78" type="curve" smooth="yes"/>
      <point x="120" y="68"/>
      <point x="125" y="61"/>
      <point x="136" y="61" type="curve" smooth="yes"/>
      <point x="149" y="61"/>
      <point x="168" y="94"/>
    </contour>
    <contour>
      <point x="109" y="309" type="curve" smooth="yes"/>
      <point x="44" y="309"/>
      <point x="24" y="312"/>
      <point x="24" y="342" type="curve" smooth="yes"/>
      <point x="24" y="353"/>
      <point x="25" y="360"/>
      <point x="30" y="360" type="curve"/>
      <point x="43" y="363"/>
      <point x="67" y="364"/>
      <point x="115" y="366" type="curve"/>
      <point x="173" y="366" type="line"/>
      <point x="153" y="406"/>
      <point x="152" y="436"/>
      <point x="152" y="480" type="curve" smooth="yes"/>
      <point x="152" y="533"/>
      <point x="163" y="568"/>
      <point x="173" y="590" type="curve" smooth="yes"/>
      <point x="191" y="632"/>
      <point x="201" y="653"/>
      <point x="214" y="666" type="curve" smooth="yes"/>
      <point x="244" y="696"/>
      <point x="267" y="717"/>
      <point x="318" y="717" type="curve" smooth="yes"/>
      <point x="370" y="717"/>
      <point x="453" y="683"/>
      <point x="453" y="622" type="curve" smooth="yes"/>
      <point x="453" y="601"/>
      <point x="449" y="590"/>
      <point x="443" y="590" type="curve" smooth="yes"/>
      <point x="424" y="590"/>
      <point x="391" y="662"/>
      <point x="328" y="662" type="curve" smooth="yes"/>
      <point x="304" y="662"/>
      <point x="282" y="651"/>
      <point x="258" y="627" type="curve" smooth="yes"/>
      <point x="228" y="597"/>
      <point x="206" y="525"/>
      <point x="206" y="475" type="curve" smooth="yes"/>
      <point x="206" y="438"/>
      <point x="224" y="390"/>
      <point x="238" y="368" type="curve"/>
      <point x="246" y="368"/>
      <point x="338" y="370"/>
      <point x="368" y="370" type="curve" smooth="yes"/>
      <point x="419" y="370"/>
      <point x="430" y="360"/>
      <point x="430" y="325" type="curve" smooth="yes"/>
      <point x="430" y="315"/>
      <point x="431" y="307"/>
      <point x="365" y="307" type="curve"/>
      <point x="254" y="306" type="line"/>
      <point x="256" y="292"/>
      <point x="257" y="279"/>
      <point x="257" y="267" type="curve" smooth="yes"/>
      <point x="257" y="229"/>
      <point x="249" y="200"/>
      <point x="237" y="154" type="curve"/>
      <point x="237" y="154"/>
      <point x="271" y="142"/>
      <point x="290" y="128" type="curve"/>
      <point x="314" y="112"/>
      <point x="335" y="82"/>
      <point x="341" y="77" type="curve"/>
      <point x="367" y="51"/>
      <point x="384" y="43"/>
      <point x="427" y="43" type="curve" smooth="yes"/>
      <point x="457" y="43"/>
      <point x="480" y="46"/>
      <point x="491" y="54" type="curve" smooth="yes"/>
      <point x="510" y="68"/>
      <point x="521" y="75"/>
      <point x="534" y="75" type="curve" smooth="yes"/>
      <point x="544" y="75"/>
      <point x="546" y="64"/>
      <point x="546" y="56" type="curve" smooth="yes"/>
      <point x="546" y="34"/>
      <point x="542" y="18"/>
      <point x="534" y="8" type="curve"/>
      <point x="520" y="-13"/>
      <point x="470" y="-21"/>
      <point x="440" y="-21" type="curve" smooth="yes"/>
      <point x="381" y="-21"/>
      <point x="312" y="11"/>
      <point x="283" y="43" type="curve" smooth="yes"/>
      <point x="262" y="67"/>
      <point x="251" y="76"/>
      <point x="219" y="94" type="curve"/>
      <point x="216" y="78"/>
      <point x="197" y="33"/>
      <point x="178" y="19" type="curve" smooth="yes"/>
      <point x="170" y="13"/>
      <point x="157" y="10"/>
      <point x="138" y="10" type="curve" smooth="yes"/>
      <point x="112" y="10"/>
      <point x="98" y="14"/>
      <point x="90" y="22" type="curve" smooth="yes"/>
      <point x="82" y="30"/>
      <point x="67" y="46"/>
      <point x="67" y="72" type="curve" smooth="yes"/>
      <point x="67" y="106"/>
      <point x="89" y="131"/>
      <point x="102" y="142" type="curve" smooth="yes"/>
      <point x="125" y="163"/>
      <point x="152" y="165"/>
      <point x="182" y="165" type="curve"/>
      <point x="188" y="188"/>
      <point x="194" y="225"/>
      <point x="194" y="261" type="curve" smooth="yes"/>
      <point x="194" y="278"/>
      <point x="192" y="295"/>
      <point x="190" y="309" type="curve"/>
      <point x="171" y="308"/>
      <point x="160" y="308"/>
      <point x="153" y="308" type="curve" smooth="yes"/>
      <point x="138" y="308"/>
      <point x="137" y="309"/>
    </contour>
  </outline>
</glyph>
<glyph name="section" format="2">
  <advance width="446"/>
  <unicode hex="00A7"/>
  <outline>
    <contour>
      <point x="221" y="406" type="curve"/>
      <point x="195" y="388"/>
      <point x="114" y="303"/>
      <point x="114" y="229" type="curve" smooth="yes"/>
      <point x="114" y="189"/>
      <point x="128" y="163"/>
      <point x="166" y="147" type="curve" smooth="yes"/>
      <point x="185" y="139"/>
      <point x="240" y="128"/>
      <point x="253" y="128" type="curve"/>
      <point x="307" y="164"/>
      <point x="360" y="199"/>
      <point x="360" y="272" type="curve" smooth="yes"/>
      <point x="360" y="291"/>
      <point x="358" y="307"/>
      <point x="350" y="320" type="curve" smooth="yes"/>
      <point x="347" y="326"/>
      <point x="340" y="344"/>
      <point x="314" y="362" type="curve"/>
      <point x="292" y="376"/>
      <point x="259" y="388"/>
    </contour>
    <contour>
      <point x="210" y="691" type="curve"/>
      <point x="223" y="699"/>
      <point x="238" y="701"/>
      <point x="254" y="701" type="curve" smooth="yes"/>
      <point x="270" y="701"/>
      <point x="312" y="688"/>
      <point x="322" y="680" type="curve" smooth="yes"/>
      <point x="332" y="672"/>
      <point x="338" y="663"/>
      <point x="338" y="650" type="curve" smooth="yes"/>
      <point x="338" y="642"/>
      <point x="337" y="637"/>
      <point x="334" y="635" type="curve" smooth="yes"/>
      <point x="331" y="633"/>
      <point x="318" y="632"/>
      <point x="310" y="632" type="curve" smooth="yes"/>
      <point x="297" y="632"/>
      <point x="299" y="640"/>
      <point x="262" y="640" type="curve" smooth="yes"/>
      <point x="227" y="640"/>
      <point x="187" y="584"/>
      <point x="187" y="542" type="curve" smooth="yes"/>
      <point x="187" y="526"/>
      <point x="192" y="511"/>
      <point x="200" y="498" type="curve" smooth="yes"/>
      <point x="213" y="479"/>
      <point x="241" y="469"/>
      <point x="283" y="451" type="curve"/>
      <point x="335" y="424"/>
      <point x="380" y="370"/>
      <point x="398" y="349" type="curve"/>
      <point x="416" y="323"/>
      <point x="418" y="308"/>
      <point x="418" y="278" type="curve" smooth="yes"/>
      <point x="418" y="238"/>
      <point x="408" y="203"/>
      <point x="400" y="189" type="curve" smooth="yes"/>
      <point x="386" y="163"/>
      <point x="354" y="126"/>
      <point x="322" y="107" type="curve"/>
      <point x="335" y="104"/>
      <point x="353" y="94"/>
      <point x="363" y="83" type="curve"/>
      <point x="376" y="65"/>
      <point x="390" y="50"/>
      <point x="398" y="34" type="curve"/>
      <point x="408" y="12"/>
      <point x="410" y="3"/>
      <point x="410" y="-21" type="curve" smooth="yes"/>
      <point x="410" y="-43"/>
      <point x="397" y="-73"/>
      <point x="389" y="-86" type="curve" smooth="yes"/>
      <point x="369" y="-122"/>
      <point x="302" y="-136"/>
      <point x="264" y="-136" type="curve" smooth="yes"/>
      <point x="234" y="-136"/>
      <point x="200" y="-128"/>
      <point x="200" y="-104" type="curve" smooth="yes"/>
      <point x="200" y="-85"/>
      <point x="202" y="-70"/>
      <point x="224" y="-70" type="curve" smooth="yes"/>
      <point x="240" y="-70"/>
      <point x="235" y="-75"/>
      <point x="291" y="-75" type="curve" smooth="yes"/>
      <point x="320" y="-75"/>
      <point x="336" y="-50"/>
      <point x="336" y="-13" type="curve" smooth="yes"/>
      <point x="336" y="16"/>
      <point x="330" y="30"/>
      <point x="304" y="43" type="curve" smooth="yes"/>
      <point x="286" y="51"/>
      <point x="270" y="56"/>
      <point x="259" y="58" type="curve" smooth="yes"/>
      <point x="198" y="63"/>
      <point x="185" y="69"/>
      <point x="166" y="77" type="curve"/>
      <point x="94" y="103"/>
      <point x="54" y="136"/>
      <point x="46" y="178" type="curve"/>
      <point x="40" y="207"/>
      <point x="37" y="229"/>
      <point x="37" y="245" type="curve" smooth="yes"/>
      <point x="37" y="301"/>
      <point x="112" y="404"/>
      <point x="154" y="442" type="curve"/>
      <point x="127" y="469"/>
      <point x="115" y="490"/>
      <point x="115" y="530" type="curve" smooth="yes"/>
      <point x="115" y="591"/>
      <point x="133" y="597"/>
      <point x="154" y="634" type="curve"/>
      <point x="170" y="660"/>
      <point x="188" y="680"/>
    </contour>
  </outline>
</glyph>
<glyph name="uni00AC" format="2">
  <advance width="495"/>
  <unicode hex="00AC"/>
  <outline>
    <contour>
      <point x="313" y="221" type="curve" smooth="yes"/>
      <point x="231" y="221"/>
      <point x="131" y="213"/>
      <point x="78" y="213" type="curve" smooth="yes"/>
      <point x="51" y="213"/>
      <point x="30" y="220"/>
      <point x="30" y="244" type="curve" smooth="yes"/>
      <point x="30" y="268"/>
      <point x="53" y="274"/>
      <point x="90" y="275" type="curve" smooth="yes"/>
      <point x="160" y="277"/>
      <point x="213" y="283"/>
      <point x="283" y="285" type="curve" smooth="yes"/>
      <point x="324" y="287"/>
      <point x="369" y="294"/>
      <point x="406" y="294" type="curve" smooth="yes"/>
      <point x="422" y="294"/>
      <point x="431" y="273"/>
      <point x="437" y="258" type="curve" smooth="yes"/>
      <point x="442" y="244"/>
      <point x="442" y="206"/>
      <point x="442" y="167" type="curve" smooth="yes"/>
      <point x="442" y="149"/>
      <point x="442" y="132"/>
      <point x="442" y="115" type="curve" smooth="yes"/>
      <point x="442" y="103"/>
      <point x="443" y="85"/>
      <point x="443" y="71" type="curve" smooth="yes"/>
      <point x="443" y="59"/>
      <point x="442" y="49"/>
      <point x="440" y="45" type="curve" smooth="yes"/>
      <point x="433" y="35"/>
      <point x="424" y="28"/>
      <point x="414" y="28" type="curve" smooth="yes"/>
      <point x="397" y="28"/>
      <point x="392" y="46"/>
      <point x="385" y="58" type="curve" smooth="yes"/>
      <point x="373" y="76"/>
      <point x="370" y="105"/>
      <point x="370" y="135" type="curve" smooth="yes"/>
      <point x="370" y="159"/>
      <point x="371" y="183"/>
      <point x="371" y="203" type="curve" smooth="yes"/>
      <point x="371" y="208"/>
      <point x="371" y="213"/>
      <point x="371" y="217" type="curve"/>
      <point x="359" y="220"/>
      <point x="328" y="221"/>
    </contour>
  </outline>
</glyph>
<glyph name="degree" format="2">
  <advance width="268"/>
  <unicode hex="00B0"/>
  <outline>
    <contour>
      <point x="154" y="648" type="curve" smooth="yes"/>
      <point x="152" y="648"/>
      <point x="143" y="640"/>
      <point x="133" y="632" type="curve" smooth="yes"/>
      <point x="130" y="629"/>
      <point x="125" y="624"/>
      <point x="123" y="619" type="curve"/>
      <point x="125" y="611"/>
      <point x="125" y="606"/>
      <point x="125" y="600" type="curve" smooth="yes"/>
      <point x="125" y="592"/>
      <point x="128" y="587"/>
      <point x="136" y="587" type="curve" smooth="yes"/>
      <point x="145" y="587"/>
      <point x="174" y="620"/>
      <point x="174" y="629" type="curve" smooth="yes"/>
      <point x="174" y="642"/>
      <point x="160" y="648"/>
    </contour>
    <contour>
      <point x="171" y="723" type="curve" smooth="yes"/>
      <point x="213" y="723"/>
      <point x="240" y="681"/>
      <point x="240" y="642" type="curve" smooth="yes"/>
      <point x="240" y="623"/>
      <point x="232" y="617"/>
      <point x="219" y="587" type="curve"/>
      <point x="210" y="564"/>
      <point x="164" y="501"/>
      <point x="136" y="501" type="curve" smooth="yes"/>
      <point x="86" y="501"/>
      <point x="58" y="543"/>
      <point x="54" y="589" type="curve"/>
      <point x="49" y="591"/>
      <point x="37" y="605"/>
      <point x="37" y="618" type="curve" smooth="yes"/>
      <point x="37" y="664"/>
      <point x="86" y="703"/>
      <point x="125" y="715" type="curve"/>
      <point x="147" y="720"/>
      <point x="161" y="723"/>
    </contour>
  </outline>
</glyph>
<glyph name="uni00B1" format="2">
  <advance width="484"/>
  <unicode hex="00B1"/>
  <outline>
    <contour>
      <point x="70" y="142" type="curve" smooth="yes"/>
      <point x="99" y="142"/>
      <point x="106" y="133"/>
      <point x="136" y="133" type="curve" smooth="yes"/>
      <point x="166" y="133"/>
      <point x="176" y="136"/>
      <point x="237" y="146" type="curve"/>
      <point x="261" y="151"/>
      <point x="296" y="150"/>
      <point x="344" y="150" type="curve" smooth="yes"/>
      <point x="416" y="150"/>
      <point x="427" y="145"/>
      <point x="438" y="134" type="curve"/>
      <point x="449" y="124"/>
      <point x="456" y="116"/>
      <point x="456" y="106" type="curve" smooth="yes"/>
      <point x="456" y="84"/>
      <point x="428" y="72"/>
      <point x="410" y="72" type="curve" smooth="yes"/>
      <point x="400" y="72"/>
      <point x="373" y="80"/>
      <point x="334" y="80" type="curve" smooth="yes"/>
      <point x="259" y="80"/>
      <point x="150" y="54"/>
      <point x="80" y="54" type="curve" smooth="yes"/>
      <point x="60" y="54"/>
      <point x="37" y="54"/>
      <point x="37" y="94" type="curve" smooth="yes"/>
      <point x="37" y="97"/>
      <point x="37" y="142"/>
    </contour>
    <contour>
      <point x="162" y="428" type="curve" smooth="yes"/>
      <point x="132" y="428"/>
      <point x="45" y="428"/>
      <point x="45" y="462" type="curve" smooth="yes"/>
      <point x="45" y="488"/>
      <point x="55" y="509"/>
      <point x="85" y="509" type="curve" smooth="yes"/>
      <point x="103" y="509"/>
      <point x="110" y="499"/>
      <point x="155" y="499" type="curve" smooth="yes"/>
      <point x="157" y="499"/>
      <point x="175" y="501"/>
      <point x="197" y="503" type="curve"/>
      <point x="197" y="547"/>
      <point x="194" y="608"/>
      <point x="194" y="609" type="curve" smooth="yes"/>
      <point x="194" y="639"/>
      <point x="215" y="647"/>
      <point x="229" y="647" type="curve" smooth="yes"/>
      <point x="235" y="647"/>
      <point x="241" y="646"/>
      <point x="245" y="642" type="curve" smooth="yes"/>
      <point x="246" y="642"/>
      <point x="266" y="626"/>
      <point x="266" y="575" type="curve" smooth="yes"/>
      <point x="266" y="554"/>
      <point x="264" y="531"/>
      <point x="264" y="520" type="curve" smooth="yes"/>
      <point x="264" y="511" type="line"/>
      <point x="378" y="528"/>
      <point x="379" y="528"/>
      <point x="405" y="528" type="curve" smooth="yes"/>
      <point x="435" y="528"/>
      <point x="443" y="524"/>
      <point x="443" y="510" type="curve" smooth="yes"/>
      <point x="443" y="502"/>
      <point x="440" y="496"/>
      <point x="438" y="480" type="curve"/>
      <point x="433" y="456"/>
      <point x="431" y="453"/>
      <point x="405" y="453" type="curve" smooth="yes"/>
      <point x="397" y="453"/>
      <point x="387" y="451"/>
      <point x="379" y="451" type="curve" smooth="yes"/>
      <point x="357" y="451"/>
      <point x="313" y="441"/>
      <point x="261" y="435" type="curve"/>
      <point x="261" y="401"/>
      <point x="263" y="349"/>
      <point x="274" y="317" type="curve" smooth="yes"/>
      <point x="276" y="312"/>
      <point x="277" y="311"/>
      <point x="277" y="306" type="curve" smooth="yes"/>
      <point x="277" y="296"/>
      <point x="272" y="264"/>
      <point x="258" y="264" type="curve" smooth="yes"/>
      <point x="234" y="264"/>
      <point x="195" y="292"/>
      <point x="195" y="318" type="curve" smooth="yes"/>
      <point x="196" y="362"/>
      <point x="197" y="399"/>
      <point x="197" y="429" type="curve"/>
      <point x="186" y="428"/>
      <point x="174" y="428"/>
    </contour>
  </outline>
</glyph>
<glyph name="uni00B9" format="2">
  <advance width="337"/>
  <unicode hex="00B9"/>
  <outline>
    <contour>
      <point x="123" y="346" type="curve" smooth="yes"/>
      <point x="61" y="346"/>
      <point x="51" y="383"/>
      <point x="51" y="384" type="curve" smooth="yes"/>
      <point x="51" y="389"/>
      <point x="53" y="390"/>
      <point x="58" y="398" type="curve" smooth="yes"/>
      <point x="64" y="409"/>
      <point x="77" y="414"/>
      <point x="96" y="416" type="curve" smooth="yes"/>
      <point x="117" y="418"/>
      <point x="131" y="419"/>
      <point x="136" y="419" type="curve"/>
      <point x="134" y="430"/>
      <point x="134" y="484"/>
      <point x="134" y="578" type="curve" smooth="yes"/>
      <point x="134" y="643" type="line"/>
      <point x="127" y="638"/>
      <point x="107" y="611"/>
      <point x="104" y="602" type="curve" smooth="yes"/>
      <point x="101" y="594"/>
      <point x="101" y="586"/>
      <point x="93" y="578" type="curve" smooth="yes"/>
      <point x="85" y="570"/>
      <point x="78" y="566"/>
      <point x="72" y="566" type="curve" smooth="yes"/>
      <point x="57" y="566"/>
      <point x="34" y="590"/>
      <point x="34" y="605" type="curve" smooth="yes"/>
      <point x="34" y="627"/>
      <point x="53" y="644"/>
      <point x="75" y="686" type="curve" smooth="yes"/>
      <point x="93" y="718"/>
      <point x="107" y="743"/>
      <point x="118" y="757" type="curve" smooth="yes"/>
      <point x="132" y="776"/>
      <point x="148" y="784"/>
      <point x="166" y="784" type="curve" smooth="yes"/>
      <point x="184" y="784"/>
      <point x="194" y="776"/>
      <point x="197" y="760" type="curve" smooth="yes"/>
      <point x="200" y="744"/>
      <point x="202" y="688"/>
      <point x="202" y="594" type="curve" smooth="yes"/>
      <point x="202" y="517"/>
      <point x="204" y="459"/>
      <point x="206" y="427" type="curve"/>
      <point x="217" y="429"/>
      <point x="239" y="429"/>
      <point x="250" y="429" type="curve" smooth="yes"/>
      <point x="284" y="429"/>
      <point x="312" y="390"/>
      <point x="312" y="381" type="curve" smooth="yes"/>
      <point x="312" y="376"/>
      <point x="307" y="368"/>
      <point x="299" y="360" type="curve" smooth="yes"/>
      <point x="291" y="352"/>
      <point x="282" y="350"/>
      <point x="269" y="350" type="curve" smooth="yes"/>
      <point x="213" y="350"/>
      <point x="184" y="346"/>
    </contour>
  </outline>
</glyph>
<glyph name="uni00BC" format="2">
  <advance width="828"/>
  <unicode hex="00BC"/>
  <outline>
    <contour>
      <point x="633" y="678" type="curve" smooth="yes"/>
      <point x="651" y="678"/>
      <point x="676" y="669"/>
      <point x="676" y="657" type="curve" smooth="yes"/>
      <point x="676" y="647"/>
      <point x="667" y="636"/>
      <point x="657" y="632" type="curve" smooth="yes"/>
      <point x="635" y="623"/>
      <point x="616" y="601"/>
      <point x="596" y="575" type="curve" smooth="yes"/>
      <point x="471" y="411"/>
      <point x="396" y="267"/>
      <point x="341" y="186" type="curve"/>
      <point x="321" y="154"/>
      <point x="311" y="141"/>
      <point x="293" y="112" type="curve" smooth="yes"/>
      <point x="282" y="94"/>
      <point x="257" y="48"/>
      <point x="251" y="26" type="curve" smooth="yes"/>
      <point x="251" y="24"/>
      <point x="250" y="19"/>
      <point x="250" y="15" type="curve" smooth="yes"/>
      <point x="250" y="-3"/>
      <point x="272" y="7"/>
      <point x="272" y="-11" type="curve" smooth="yes"/>
      <point x="272" y="-19"/>
      <point x="260" y="-24"/>
      <point x="246" y="-24" type="curve" smooth="yes"/>
      <point x="221" y="-24"/>
      <point x="192" y="-6"/>
      <point x="192" y="20" type="curve" smooth="yes"/>
      <point x="192" y="39"/>
      <point x="198" y="60"/>
      <point x="208" y="79" type="curve"/>
      <point x="227" y="119"/>
      <point x="221" y="118"/>
      <point x="269" y="194" type="curve" smooth="yes"/>
      <point x="347" y="318"/>
      <point x="400" y="398"/>
      <point x="458" y="490" type="curve" smooth="yes"/>
      <point x="504" y="563"/>
      <point x="478" y="534"/>
      <point x="528" y="605" type="curve" smooth="yes"/>
      <point x="548" y="634"/>
      <point x="580" y="660"/>
      <point x="594" y="670" type="curve" smooth="yes"/>
      <point x="600" y="674"/>
      <point x="620" y="678"/>
    </contour>
    <contour>
      <point x="688" y="438" type="curve" smooth="yes"/>
      <point x="706" y="438"/>
      <point x="720" y="418"/>
      <point x="720" y="400" type="curve" smooth="yes"/>
      <point x="720" y="395"/>
      <point x="715" y="389"/>
      <point x="708" y="383" type="curve"/>
      <point x="708" y="372" type="line" smooth="yes"/>
      <point x="708" y="347"/>
      <point x="702" y="301"/>
      <point x="702" y="251" type="curve" smooth="yes"/>
      <point x="702" y="218" type="line"/>
      <point x="740" y="223"/>
      <point x="769" y="227"/>
      <point x="779" y="227" type="curve" smooth="yes"/>
      <point x="793" y="227"/>
      <point x="804" y="224"/>
      <point x="804" y="212" type="curve" smooth="yes"/>
      <point x="804" y="193"/>
      <point x="791" y="178"/>
      <point x="778" y="174" type="curve" smooth="yes"/>
      <point x="755" y="167"/>
      <point x="729" y="161"/>
      <point x="705" y="156" type="curve"/>
      <point x="709" y="81"/>
      <point x="718" y="46"/>
      <point x="718" y="41" type="curve" smooth="yes"/>
      <point x="718" y="20"/>
      <point x="715" y="-2"/>
      <point x="694" y="-2" type="curve" smooth="yes"/>
      <point x="675" y="-2"/>
      <point x="652" y="20"/>
      <point x="646" y="44" type="curve" smooth="yes"/>
      <point x="642" y="59"/>
      <point x="637" y="102"/>
      <point x="635" y="146" type="curve"/>
      <point x="617" y="144"/>
      <point x="600" y="144"/>
      <point x="586" y="144" type="curve" smooth="yes"/>
      <point x="484" y="144"/>
      <point x="456" y="171"/>
      <point x="456" y="220" type="curve" smooth="yes"/>
      <point x="456" y="261"/>
      <point x="517" y="324"/>
      <point x="554" y="358" type="curve" smooth="yes"/>
      <point x="585" y="387"/>
      <point x="665" y="438"/>
    </contour>
    <contour>
      <point x="633" y="210" type="curve"/>
      <point x="632" y="224"/>
      <point x="632" y="236"/>
      <point x="632" y="246" type="curve" smooth="yes"/>
      <point x="632" y="277"/>
      <point x="635" y="305"/>
      <point x="638" y="336" type="curve"/>
      <point x="612" y="318"/>
      <point x="522" y="247"/>
      <point x="522" y="226" type="curve" smooth="yes"/>
      <point x="522" y="213"/>
      <point x="542" y="209"/>
      <point x="589" y="209" type="curve" smooth="yes"/>
      <point x="603" y="209"/>
      <point x="619" y="209"/>
    </contour>
    <contour>
      <point x="123" y="346" type="curve" smooth="yes"/>
      <point x="61" y="346"/>
      <point x="51" y="383"/>
      <point x="51" y="384" type="curve" smooth="yes"/>
      <point x="51" y="389"/>
      <point x="53" y="390"/>
      <point x="58" y="398" type="curve" smooth="yes"/>
      <point x="64" y="409"/>
      <point x="77" y="414"/>
      <point x="96" y="416" type="curve" smooth="yes"/>
      <point x="117" y="418"/>
      <point x="131" y="419"/>
      <point x="136" y="419" type="curve"/>
      <point x="134" y="430"/>
      <point x="134" y="484"/>
      <point x="134" y="578" type="curve" smooth="yes"/>
      <point x="134" y="643" type="line"/>
      <point x="127" y="638"/>
      <point x="107" y="611"/>
      <point x="104" y="602" type="curve" smooth="yes"/>
      <point x="101" y="594"/>
      <point x="101" y="586"/>
      <point x="93" y="578" type="curve" smooth="yes"/>
      <point x="85" y="570"/>
      <point x="78" y="566"/>
      <point x="72" y="566" type="curve" smooth="yes"/>
      <point x="57" y="566"/>
      <point x="34" y="590"/>
      <point x="34" y="605" type="curve" smooth="yes"/>
      <point x="34" y="627"/>
      <point x="53" y="644"/>
      <point x="75" y="686" type="curve" smooth="yes"/>
      <point x="93" y="718"/>
      <point x="107" y="743"/>
      <point x="118" y="757" type="curve" smooth="yes"/>
      <point x="132" y="776"/>
      <point x="148" y="784"/>
      <point x="166" y="784" type="curve" smooth="yes"/>
      <point x="184" y="784"/>
      <point x="194" y="776"/>
      <point x="197" y="760" type="curve" smooth="yes"/>
      <point x="200" y="744"/>
      <point x="202" y="688"/>
      <point x="202" y="594" type="curve" smooth="yes"/>
      <point x="202" y="517"/>
      <point x="204" y="459"/>
      <point x="206" y="427" type="curve"/>
      <point x="217" y="429"/>
      <point x="239" y="429"/>
      <point x="250" y="429" type="curve" smooth="yes"/>
      <point x="284" y="429"/>
      <point x="312" y="390"/>
      <point x="312" y="381" type="curve" smooth="yes"/>
      <point x="312" y="376"/>
      <point x="307" y="368"/>
      <point x="299" y="360" type="curve" smooth="yes"/>
      <point x="291" y="352"/>
      <point x="282" y="350"/>
      <point x="269" y="350" type="curve" smooth="yes"/>
      <point x="213" y="350"/>
      <point x="184" y="346"/>
    </contour>
  </outline>
</glyph>
<glyph name="AE" format="2">
  <advance width="939"/>
  <unicode hex="00C6"/>
  <anchor x="482" y="26" name="bottom"/>
  <anchor x="451" y="727" name="top"/>
  <outline>
    <contour>
      <point x="429" y="285" type="curve"/>
      <point x="368" y="285"/>
      <point x="339" y="277"/>
      <point x="286" y="277" type="curve" smooth="yes"/>
      <point x="244" y="277"/>
      <point x="209" y="279"/>
      <point x="168" y="285" type="curve"/>
      <point x="166" y="280"/>
      <point x="160" y="266"/>
      <point x="158" y="258" type="curve" smooth="yes"/>
      <point x="124" y="123"/>
      <point x="119" y="172"/>
      <point x="102" y="50" type="curve" smooth="yes"/>
      <point x="97" y="21"/>
      <point x="93" y="3"/>
      <point x="72" y="3" type="curve" smooth="yes"/>
      <point x="42" y="3"/>
      <point x="35" y="25"/>
      <point x="35" y="59" type="curve" smooth="yes"/>
      <point x="35" y="89"/>
      <point x="46" y="119"/>
      <point x="56" y="149" type="curve" smooth="yes"/>
      <point x="70" y="192"/>
      <point x="76" y="233"/>
      <point x="94" y="299" type="curve" smooth="yes"/>
      <point x="108" y="353"/>
      <point x="123" y="362"/>
      <point x="134" y="405" type="curve"/>
      <point x="137" y="432"/>
      <point x="147" y="446"/>
      <point x="160" y="475" type="curve" smooth="yes"/>
      <point x="166" y="489"/>
      <point x="176" y="504"/>
      <point x="184" y="522" type="curve" smooth="yes"/>
      <point x="210" y="570"/>
      <point x="219" y="594"/>
      <point x="259" y="637" type="curve" smooth="yes"/>
      <point x="277" y="655"/>
      <point x="285" y="682"/>
      <point x="314" y="690" type="curve" smooth="yes"/>
      <point x="322" y="693"/>
      <point x="336" y="696"/>
      <point x="354" y="696" type="curve" smooth="yes"/>
      <point x="376" y="696"/>
      <point x="389" y="693"/>
      <point x="394" y="688" type="curve" smooth="yes"/>
      <point x="412" y="670"/>
      <point x="553" y="667"/>
      <point x="584" y="667" type="curve" smooth="yes"/>
      <point x="610" y="669"/>
      <point x="638" y="670"/>
      <point x="715" y="670" type="curve" smooth="yes"/>
      <point x="824" y="670"/>
      <point x="853" y="664"/>
      <point x="853" y="650" type="curve" smooth="yes"/>
      <point x="853" y="614"/>
      <point x="830" y="612"/>
      <point x="715" y="610" type="curve" smooth="yes"/>
      <point x="619" y="610"/>
      <point x="544" y="605"/>
      <point x="514" y="603" type="curve"/>
      <point x="474" y="600" type="line"/>
      <point x="483" y="547" type="line"/>
      <point x="483" y="520"/>
      <point x="493" y="486"/>
      <point x="493" y="454" type="curve" smooth="yes"/>
      <point x="493" y="446"/>
      <point x="494" y="438"/>
      <point x="494" y="430" type="curve" smooth="yes"/>
      <point x="494" y="408"/>
      <point x="492" y="386"/>
      <point x="492" y="373" type="curve" smooth="yes"/>
      <point x="492" y="368"/>
      <point x="493" y="365"/>
      <point x="493" y="363" type="curve"/>
      <point x="504" y="363"/>
      <point x="539" y="370"/>
      <point x="547" y="370" type="curve" smooth="yes"/>
      <point x="651" y="370" type="line" smooth="yes"/>
      <point x="677" y="370"/>
      <point x="699" y="370"/>
      <point x="714" y="370" type="curve" smooth="yes"/>
      <point x="733" y="370"/>
      <point x="744" y="370"/>
      <point x="746" y="365" type="curve" smooth="yes"/>
      <point x="748" y="357"/>
      <point x="750" y="352"/>
      <point x="750" y="350" type="curve" smooth="yes"/>
      <point x="750" y="330"/>
      <point x="745" y="312"/>
      <point x="616" y="307" type="curve" smooth="yes"/>
      <point x="576" y="305"/>
      <point x="559" y="303"/>
      <point x="525" y="298" type="curve" smooth="yes"/>
      <point x="517" y="296"/>
      <point x="490" y="293"/>
      <point x="490" y="293" type="curve"/>
      <point x="490" y="293"/>
      <point x="489" y="267"/>
      <point x="491" y="251" type="curve" smooth="yes"/>
      <point x="499" y="197"/>
      <point x="502" y="155"/>
      <point x="510" y="104" type="curve" smooth="yes"/>
      <point x="513" y="69"/>
      <point x="550" y="62"/>
      <point x="592" y="62" type="curve" smooth="yes"/>
      <point x="717" y="62"/>
      <point x="764" y="94"/>
      <point x="821" y="94" type="curve" smooth="yes"/>
      <point x="851" y="94"/>
      <point x="859" y="92"/>
      <point x="859" y="70" type="curve" smooth="yes"/>
      <point x="859" y="33"/>
      <point x="832" y="26"/>
      <point x="790" y="21" type="curve" smooth="yes"/>
      <point x="654" y="11"/>
      <point x="645" y="-10"/>
      <point x="560" y="-10" type="curve" smooth="yes"/>
      <point x="490" y="-10"/>
      <point x="455" y="21"/>
      <point x="446" y="91" type="curve" smooth="yes"/>
      <point x="443" y="117"/>
      <point x="436" y="146"/>
      <point x="430" y="226" type="curve" smooth="yes"/>
      <point x="428" y="248"/>
      <point x="431" y="271"/>
    </contour>
    <contour>
      <point x="382" y="616" type="curve" smooth="yes"/>
      <point x="376" y="616"/>
      <point x="344" y="619"/>
      <point x="339" y="619" type="curve" smooth="yes"/>
      <point x="334" y="619"/>
      <point x="331" y="618"/>
      <point x="326" y="616" type="curve" smooth="yes"/>
      <point x="312" y="605"/>
      <point x="256" y="514"/>
      <point x="248" y="493" type="curve" smooth="yes"/>
      <point x="238" y="453"/>
      <point x="186" y="398"/>
      <point x="186" y="347" type="curve"/>
      <point x="194" y="345"/>
      <point x="232" y="344"/>
      <point x="285" y="344" type="curve" smooth="yes"/>
      <point x="322" y="344"/>
      <point x="341" y="346"/>
      <point x="347" y="349" type="curve" smooth="yes"/>
      <point x="355" y="352"/>
      <point x="405" y="354"/>
      <point x="406" y="354" type="curve" smooth="yes"/>
      <point x="413" y="354"/>
      <point x="420" y="354"/>
      <point x="427" y="354" type="curve"/>
      <point x="426" y="361"/>
      <point x="427" y="499"/>
      <point x="421" y="536" type="curve" smooth="yes"/>
      <point x="418" y="554"/>
      <point x="392" y="616"/>
    </contour>
  </outline>
</glyph>
<glyph name="Ccedilla" format="2">
  <advance width="548"/>
  <unicode hex="00C7"/>
  <anchor x="282" y="-229" name="bottom"/>
  <anchor x="291" y="784" name="top"/>
  <outline>
    <contour>
      <point x="268" y="-195" type="curve" smooth="yes"/>
      <point x="360" y="-195"/>
      <point x="371" y="-135"/>
      <point x="371" y="-133" type="curve" smooth="yes"/>
      <point x="371" y="-119"/>
      <point x="355" y="-87"/>
      <point x="340" y="-72" type="curve" smooth="yes"/>
      <point x="327" y="-60"/>
      <point x="320" y="-48"/>
      <point x="315" y="-34" type="curve" smooth="yes"/>
      <point x="313" y="-31"/>
      <point x="311" y="-22"/>
      <point x="311" y="-12" type="curve" smooth="yes"/>
      <point x="311" y="-10"/>
      <point x="312" y="-7"/>
      <point x="312" y="-5" type="curve"/>
      <point x="310" y="-5"/>
      <point x="296" y="-6"/>
      <point x="286" y="-6" type="curve" smooth="yes"/>
      <point x="244" y="-6"/>
      <point x="188" y="27"/>
      <point x="148" y="65" type="curve"/>
      <point x="126" y="88"/>
      <point x="55" y="208"/>
      <point x="45" y="252" type="curve" smooth="yes"/>
      <point x="40" y="272"/>
      <point x="33" y="273"/>
      <point x="33" y="306" type="curve" smooth="yes"/>
      <point x="33" y="368"/>
      <point x="64" y="535"/>
      <point x="94" y="586" type="curve"/>
      <point x="135" y="648"/>
      <point x="176" y="700"/>
      <point x="222" y="722" type="curve" smooth="yes"/>
      <point x="236" y="728"/>
      <point x="253" y="730"/>
      <point x="273" y="730" type="curve" smooth="yes"/>
      <point x="335" y="730"/>
      <point x="430" y="705"/>
      <point x="452" y="669" type="curve"/>
      <point x="462" y="655"/>
      <point x="467" y="639"/>
      <point x="467" y="624" type="curve" smooth="yes"/>
      <point x="467" y="606"/>
      <point x="458" y="582"/>
      <point x="432" y="582" type="curve" smooth="yes"/>
      <point x="420" y="582"/>
      <point x="410" y="594"/>
      <point x="410" y="605" type="curve" smooth="yes"/>
      <point x="410" y="637"/>
      <point x="325" y="654"/>
      <point x="285" y="654" type="curve" smooth="yes"/>
      <point x="259" y="654"/>
      <point x="244" y="648"/>
      <point x="234" y="642" type="curve" smooth="yes"/>
      <point x="201" y="618"/>
      <point x="176" y="585"/>
      <point x="162" y="559" type="curve" smooth="yes"/>
      <point x="135" y="509"/>
      <point x="104" y="377"/>
      <point x="104" y="335" type="curve" smooth="yes"/>
      <point x="104" y="281"/>
      <point x="123" y="233"/>
      <point x="150" y="182" type="curve" smooth="yes"/>
      <point x="184" y="121"/>
      <point x="197" y="120"/>
      <point x="215" y="102" type="curve" smooth="yes"/>
      <point x="225" y="92"/>
      <point x="283" y="63"/>
      <point x="310" y="63" type="curve" smooth="yes"/>
      <point x="336" y="63"/>
      <point x="356" y="79"/>
      <point x="386" y="90" type="curve"/>
      <point x="396" y="92"/>
      <point x="402" y="92"/>
      <point x="410" y="97" type="curve" smooth="yes"/>
      <point x="425" y="105"/>
      <point x="435" y="112"/>
      <point x="447" y="122" type="curve"/>
      <point x="467" y="141"/>
      <point x="487" y="153"/>
      <point x="514" y="153" type="curve" smooth="yes"/>
      <point x="534" y="153"/>
      <point x="540" y="151"/>
      <point x="540" y="138" type="curve" smooth="yes"/>
      <point x="540" y="124"/>
      <point x="492" y="88"/>
      <point x="470" y="71" type="curve"/>
      <point x="446" y="51"/>
      <point x="438" y="47"/>
      <point x="414" y="33" type="curve" smooth="yes"/>
      <point x="406" y="29"/>
      <point x="386" y="9"/>
      <point x="379" y="7" type="curve"/>
      <point x="384" y="-23"/>
      <point x="398" y="-33"/>
      <point x="408" y="-50" type="curve" smooth="yes"/>
      <point x="432" y="-92"/>
      <point x="440" y="-93"/>
      <point x="440" y="-145" type="curve" smooth="yes"/>
      <point x="440" y="-199"/>
      <point x="361" y="-259"/>
      <point x="280" y="-259" type="curve" smooth="yes"/>
      <point x="234" y="-259"/>
      <point x="185" y="-234"/>
      <point x="185" y="-214" type="curve" smooth="yes"/>
      <point x="185" y="-200"/>
      <point x="198" y="-183"/>
      <point x="210" y="-183" type="curve" smooth="yes"/>
      <point x="226" y="-183"/>
      <point x="227" y="-195"/>
    </contour>
  </outline>
</glyph>
<glyph name="multiply" format="2">
  <advance width="472"/>
  <unicode hex="00D7"/>
  <outline>
    <contour>
      <point x="163" y="64" type="curve" smooth="yes"/>
      <point x="152" y="51"/>
      <point x="122" y="10"/>
      <point x="106" y="10" type="curve" smooth="yes"/>
      <point x="92" y="10"/>
      <point x="64" y="27"/>
      <point x="64" y="45" type="curve" smooth="yes"/>
      <point x="64" y="59"/>
      <point x="72" y="73"/>
      <point x="90" y="91" type="curve" smooth="yes"/>
      <point x="108" y="109"/>
      <point x="119" y="117"/>
      <point x="125" y="125" type="curve" smooth="yes"/>
      <point x="127" y="128"/>
      <point x="152" y="166"/>
      <point x="154" y="168" type="curve" smooth="yes"/>
      <point x="160" y="176"/>
      <point x="179" y="195"/>
      <point x="187" y="203" type="curve"/>
      <point x="187" y="203"/>
      <point x="161" y="229"/>
      <point x="150" y="242" type="curve" smooth="yes"/>
      <point x="100" y="298"/>
      <point x="30" y="354"/>
      <point x="30" y="378" type="curve" smooth="yes"/>
      <point x="30" y="397"/>
      <point x="65" y="421"/>
      <point x="78" y="421" type="curve" smooth="yes"/>
      <point x="88" y="421"/>
      <point x="89" y="421"/>
      <point x="139" y="360" type="curve" smooth="yes"/>
      <point x="169" y="322"/>
      <point x="197" y="296"/>
      <point x="218" y="282" type="curve"/>
      <point x="228" y="277"/>
      <point x="232" y="270"/>
      <point x="237" y="267" type="curve"/>
      <point x="247" y="277"/>
      <point x="269" y="308"/>
      <point x="274" y="314" type="curve" smooth="yes"/>
      <point x="276" y="317"/>
      <point x="320" y="371"/>
      <point x="325" y="374" type="curve" smooth="yes"/>
      <point x="335" y="382"/>
      <point x="337" y="391"/>
      <point x="358" y="410" type="curve" smooth="yes"/>
      <point x="369" y="421"/>
      <point x="384" y="427"/>
      <point x="402" y="427" type="curve" smooth="yes"/>
      <point x="424" y="427"/>
      <point x="426" y="416"/>
      <point x="426" y="392" type="curve" smooth="yes"/>
      <point x="426" y="382"/>
      <point x="422" y="372"/>
      <point x="414" y="362" type="curve" smooth="yes"/>
      <point x="403" y="348"/>
      <point x="290" y="232"/>
      <point x="290" y="227" type="curve" smooth="yes"/>
      <point x="290" y="221"/>
      <point x="377" y="132"/>
      <point x="392" y="109" type="curve" smooth="yes"/>
      <point x="397" y="103"/>
      <point x="415" y="90"/>
      <point x="429" y="74" type="curve" smooth="yes"/>
      <point x="432" y="71"/>
      <point x="438" y="66"/>
      <point x="438" y="58" type="curve" smooth="yes"/>
      <point x="438" y="32"/>
      <point x="415" y="18"/>
      <point x="394" y="18" type="curve" smooth="yes"/>
      <point x="375" y="18"/>
      <point x="313" y="87"/>
      <point x="286" y="114" type="curve" smooth="yes"/>
      <point x="270" y="130"/>
      <point x="264" y="134"/>
      <point x="261" y="139" type="curve" smooth="yes"/>
      <point x="259" y="142"/>
      <point x="248" y="150"/>
      <point x="243" y="155" type="curve"/>
      <point x="235" y="145"/>
      <point x="224" y="132"/>
      <point x="206" y="114" type="curve" smooth="yes"/>
      <point x="188" y="96"/>
      <point x="168" y="70"/>
    </contour>
  </outline>
</glyph>
<glyph name="Oslash" format="2">
  <advance width="755"/>
  <unicode hex="00D8"/>
  <anchor x="387" y="31" name="bottom"/>
  <anchor x="382" y="769" name="top"/>
  <outline>
    <contour>
      <point x="579" y="331" type="curve" smooth="yes"/>
      <point x="579" y="370"/>
      <point x="572" y="475"/>
      <point x="553" y="503" type="curve" smooth="yes"/>
      <point x="547" y="512"/>
      <point x="543" y="521"/>
      <point x="541" y="523" type="curve"/>
      <point x="538" y="520"/>
      <point x="532" y="515"/>
      <point x="527" y="509" type="curve" smooth="yes"/>
      <point x="522" y="503"/>
      <point x="509" y="492"/>
      <point x="490" y="478" type="curve"/>
      <point x="470" y="465"/>
      <point x="328" y="331"/>
      <point x="328" y="324" type="curve"/>
      <point x="294" y="282"/>
      <point x="243" y="239"/>
      <point x="213" y="193" type="curve"/>
      <point x="225" y="166"/>
      <point x="291" y="105"/>
      <point x="316" y="90" type="curve" smooth="yes"/>
      <point x="333" y="80"/>
      <point x="351" y="72"/>
      <point x="370" y="70" type="curve"/>
      <point x="388" y="70"/>
      <point x="396" y="68"/>
      <point x="402" y="68" type="curve" smooth="yes"/>
      <point x="467" y="68"/>
      <point x="553" y="189"/>
      <point x="561" y="243" type="curve"/>
      <point x="563" y="263"/>
      <point x="567" y="279"/>
      <point x="573" y="289" type="curve"/>
      <point x="578" y="296"/>
      <point x="579" y="311"/>
    </contour>
    <contour>
      <point x="325" y="661" type="curve" smooth="yes"/>
      <point x="269" y="661"/>
      <point x="249" y="643"/>
      <point x="242" y="630" type="curve"/>
      <point x="222" y="600"/>
      <point x="202" y="569"/>
      <point x="199" y="523" type="curve" smooth="yes"/>
      <point x="197" y="501"/>
      <point x="191" y="478"/>
      <point x="184" y="456" type="curve"/>
      <point x="176" y="436"/>
      <point x="173" y="400"/>
      <point x="173" y="348" type="curve" smooth="yes"/>
      <point x="173" y="298"/>
      <point x="179" y="279"/>
      <point x="184" y="266" type="curve"/>
      <point x="190" y="269"/>
      <point x="198" y="280"/>
      <point x="213" y="295" type="curve" smooth="yes"/>
      <point x="299" y="381"/>
      <point x="353" y="438"/>
      <point x="375" y="465" type="curve"/>
      <point x="401" y="491"/>
      <point x="425" y="514"/>
      <point x="446" y="532" type="curve" smooth="yes"/>
      <point x="480" y="561"/>
      <point x="500" y="577"/>
      <point x="503" y="582" type="curve"/>
      <point x="501" y="584"/>
      <point x="495" y="591"/>
      <point x="492" y="594" type="curve" smooth="yes"/>
      <point x="468" y="621"/>
      <point x="424" y="634"/>
      <point x="377" y="652" type="curve" smooth="yes"/>
      <point x="359" y="660"/>
      <point x="342" y="661"/>
    </contour>
    <contour>
      <point x="117" y="441" type="curve"/>
      <point x="121" y="541"/>
      <point x="125" y="481"/>
      <point x="129" y="567" type="curve"/>
      <point x="129" y="599"/>
      <point x="142" y="630"/>
      <point x="184" y="687" type="curve" smooth="yes"/>
      <point x="208" y="720"/>
      <point x="240" y="738"/>
      <point x="281" y="738" type="curve" smooth="yes"/>
      <point x="336" y="738"/>
      <point x="341" y="725"/>
      <point x="395" y="716" type="curve"/>
      <point x="448" y="706"/>
      <point x="492" y="684"/>
      <point x="534" y="646" type="curve" smooth="yes"/>
      <point x="538" y="642"/>
      <point x="552" y="630"/>
      <point x="554" y="625" type="curve"/>
      <point x="567" y="634"/>
      <point x="579" y="641"/>
      <point x="591" y="650" type="curve" smooth="yes"/>
      <point x="615" y="668"/>
      <point x="632" y="689"/>
      <point x="672" y="689" type="curve" smooth="yes"/>
      <point x="691" y="689"/>
      <point x="723" y="688"/>
      <point x="726" y="686" type="curve" smooth="yes"/>
      <point x="732" y="683"/>
      <point x="740" y="667"/>
      <point x="740" y="658" type="curve" smooth="yes"/>
      <point x="740" y="636"/>
      <point x="715" y="620"/>
      <point x="694" y="620" type="curve" smooth="yes"/>
      <point x="666" y="620"/>
      <point x="616" y="590"/>
      <point x="598" y="570" type="curve"/>
      <point x="609" y="554"/>
      <point x="629" y="501"/>
      <point x="635" y="482" type="curve"/>
      <point x="640" y="472"/>
      <point x="642" y="437"/>
      <point x="642" y="378" type="curve" smooth="yes"/>
      <point x="642" y="292"/>
      <point x="630" y="286"/>
      <point x="628" y="262" type="curve" smooth="yes"/>
      <point x="623" y="208"/>
      <point x="578" y="128"/>
      <point x="544" y="86" type="curve"/>
      <point x="492" y="28"/>
      <point x="457" y="0"/>
      <point x="375" y="0" type="curve" smooth="yes"/>
      <point x="324" y="0"/>
      <point x="236" y="62"/>
      <point x="201" y="96" type="curve" smooth="yes"/>
      <point x="183" y="114"/>
      <point x="170" y="122"/>
      <point x="162" y="129" type="curve"/>
      <point x="154" y="122"/>
      <point x="115" y="78"/>
      <point x="115" y="70" type="curve" smooth="yes"/>
      <point x="115" y="68"/>
      <point x="118" y="61"/>
      <point x="123" y="61" type="curve" smooth="yes"/>
      <point x="127" y="61"/>
      <point x="129" y="56"/>
      <point x="129" y="49" type="curve" smooth="yes"/>
      <point x="129" y="13"/>
      <point x="84" y="-10"/>
      <point x="66" y="-10" type="curve" smooth="yes"/>
      <point x="51" y="-10"/>
      <point x="14" y="27"/>
      <point x="14" y="41" type="curve" smooth="yes"/>
      <point x="14" y="58"/>
      <point x="36" y="76"/>
      <point x="46" y="86" type="curve"/>
      <point x="70" y="121"/>
      <point x="80" y="142"/>
      <point x="110" y="172" type="curve"/>
      <point x="120" y="184"/>
      <point x="121" y="191"/>
      <point x="127" y="196" type="curve"/>
      <point x="127" y="198"/>
      <point x="111" y="261"/>
      <point x="111" y="334" type="curve" smooth="yes"/>
      <point x="111" y="371"/>
      <point x="117" y="404"/>
    </contour>
  </outline>
</glyph>
<glyph name="ae" format="2">
  <advance width="664"/>
  <unicode hex="00E6"/>
  <anchor x="322" y="22" name="bottom"/>
  <anchor x="330" y="486" name="top"/>
  <outline>
    <contour>
      <point x="254" y="82" type="curve"/>
      <point x="270" y="112"/>
      <point x="270" y="129"/>
      <point x="270" y="161" type="curve"/>
      <point x="221" y="161"/>
      <point x="154" y="158"/>
      <point x="128" y="142" type="curve" smooth="yes"/>
      <point x="107" y="129"/>
      <point x="99" y="128"/>
      <point x="99" y="98" type="curve" smooth="yes"/>
      <point x="99" y="77"/>
      <point x="116" y="64"/>
      <point x="128" y="58" type="curve" smooth="yes"/>
      <point x="130" y="57"/>
      <point x="144" y="54"/>
      <point x="163" y="54" type="curve" smooth="yes"/>
      <point x="185" y="54"/>
      <point x="243" y="66"/>
    </contour>
    <contour>
      <point x="520" y="350" type="curve" smooth="yes"/>
      <point x="506" y="361"/>
      <point x="488" y="366"/>
      <point x="466" y="366" type="curve" smooth="yes"/>
      <point x="429" y="366"/>
      <point x="421" y="358"/>
      <point x="392" y="334" type="curve" smooth="yes"/>
      <point x="356" y="304"/>
      <point x="355" y="288"/>
      <point x="353" y="234" type="curve"/>
      <point x="369" y="232"/>
      <point x="385" y="228"/>
      <point x="403" y="228" type="curve" smooth="yes"/>
      <point x="421" y="228"/>
      <point x="441" y="230"/>
      <point x="459" y="234" type="curve"/>
      <point x="475" y="236"/>
      <point x="497" y="247"/>
      <point x="506" y="253" type="curve" smooth="yes"/>
      <point x="519" y="263"/>
      <point x="547" y="280"/>
      <point x="547" y="300" type="curve" smooth="yes"/>
      <point x="547" y="307"/>
      <point x="535" y="337"/>
    </contour>
    <contour>
      <point x="475" y="71" type="curve" smooth="yes"/>
      <point x="521" y="71"/>
      <point x="577" y="122"/>
      <point x="598" y="122" type="curve" smooth="yes"/>
      <point x="613" y="122"/>
      <point x="626" y="109"/>
      <point x="626" y="91" type="curve" smooth="yes"/>
      <point x="626" y="77"/>
      <point x="624" y="71"/>
      <point x="618" y="66" type="curve" smooth="yes"/>
      <point x="569" y="24"/>
      <point x="515" y="-3"/>
      <point x="450" y="-3" type="curve" smooth="yes"/>
      <point x="404" y="-3"/>
      <point x="351" y="20"/>
      <point x="320" y="54" type="curve"/>
      <point x="313" y="42"/>
      <point x="292" y="19"/>
      <point x="279" y="11" type="curve" smooth="yes"/>
      <point x="261" y="-2"/>
      <point x="238" y="-10"/>
      <point x="177" y="-10" type="curve" smooth="yes"/>
      <point x="134" y="-10"/>
      <point x="64" y="4"/>
      <point x="50" y="34" type="curve" smooth="yes"/>
      <point x="36" y="68"/>
      <point x="36" y="76"/>
      <point x="36" y="107" type="curve" smooth="yes"/>
      <point x="36" y="218"/>
      <point x="174" y="237"/>
      <point x="259" y="237" type="curve" smooth="yes"/>
      <point x="263" y="237"/>
      <point x="268" y="238"/>
      <point x="274" y="238" type="curve"/>
      <point x="274" y="260"/>
      <point x="273" y="276"/>
      <point x="270" y="309" type="curve" smooth="yes"/>
      <point x="268" y="331"/>
      <point x="249" y="365"/>
      <point x="230" y="371" type="curve"/>
      <point x="224" y="372"/>
      <point x="213" y="374"/>
      <point x="196" y="374" type="curve" smooth="yes"/>
      <point x="171" y="374"/>
      <point x="152" y="368"/>
      <point x="142" y="357" type="curve"/>
      <point x="131" y="343"/>
      <point x="119" y="342"/>
      <point x="99" y="342" type="curve" smooth="yes"/>
      <point x="73" y="342"/>
      <point x="69" y="348"/>
      <point x="69" y="374" type="curve" smooth="yes"/>
      <point x="69" y="400"/>
      <point x="114" y="444"/>
      <point x="189" y="444" type="curve" smooth="yes"/>
      <point x="207" y="444"/>
      <point x="226" y="440"/>
      <point x="242" y="438" type="curve" smooth="yes"/>
      <point x="267" y="435"/>
      <point x="316" y="394"/>
      <point x="322" y="370" type="curve"/>
      <point x="361" y="401"/>
      <point x="406" y="429"/>
      <point x="472" y="429" type="curve" smooth="yes"/>
      <point x="598" y="429"/>
      <point x="619" y="315"/>
      <point x="619" y="296" type="curve" smooth="yes"/>
      <point x="619" y="274"/>
      <point x="606" y="253"/>
      <point x="592" y="238" type="curve" smooth="yes"/>
      <point x="534" y="172"/>
      <point x="467" y="160"/>
      <point x="381" y="160" type="curve" smooth="yes"/>
      <point x="372" y="160"/>
      <point x="363" y="160"/>
      <point x="353" y="161" type="curve"/>
      <point x="355" y="126"/>
      <point x="357" y="71"/>
    </contour>
  </outline>
</glyph>
<glyph name="divide" format="2">
  <advance width="548"/>
  <unicode hex="00F7"/>
  <outline>
    <contour>
      <point x="218" y="435" type="curve" smooth="yes"/>
      <point x="218" y="456"/>
      <point x="220" y="472"/>
      <point x="254" y="472" type="curve" smooth="yes"/>
      <point x="286" y="472"/>
      <point x="304" y="456"/>
      <point x="307" y="422" type="curve" smooth="yes"/>
      <point x="309" y="411"/>
      <point x="307" y="403"/>
      <point x="304" y="400" type="curve" smooth="yes"/>
      <point x="292" y="388"/>
      <point x="268" y="376"/>
      <point x="251" y="376" type="curve" smooth="yes"/>
      <point x="221" y="376"/>
      <point x="218" y="425"/>
    </contour>
    <contour>
      <point x="456" y="203" type="curve" smooth="yes"/>
      <point x="406" y="203"/>
      <point x="419" y="173"/>
      <point x="133" y="162" type="curve"/>
      <point x="128" y="162" type="line" smooth="yes"/>
      <point x="92" y="162"/>
      <point x="38" y="178"/>
      <point x="38" y="222" type="curve" smooth="yes"/>
      <point x="38" y="233"/>
      <point x="48" y="242"/>
      <point x="64" y="245" type="curve" smooth="yes"/>
      <point x="115" y="255"/>
      <point x="292" y="242"/>
      <point x="418" y="278" type="curve" smooth="yes"/>
      <point x="426" y="280"/>
      <point x="445" y="288"/>
      <point x="469" y="288" type="curve" smooth="yes"/>
      <point x="503" y="288"/>
      <point x="518" y="285"/>
      <point x="518" y="277" type="curve" smooth="yes"/>
      <point x="518" y="243"/>
      <point x="504" y="221"/>
      <point x="498" y="218" type="curve" smooth="yes"/>
      <point x="488" y="213"/>
      <point x="474" y="203"/>
    </contour>
    <contour>
      <point x="283" y="86" type="curve" smooth="yes"/>
      <point x="334" y="86"/>
      <point x="334" y="50"/>
      <point x="334" y="49" type="curve" smooth="yes"/>
      <point x="334" y="43"/>
      <point x="333" y="39"/>
      <point x="328" y="34" type="curve" smooth="yes"/>
      <point x="309" y="15"/>
      <point x="312" y="-8"/>
      <point x="277" y="-8" type="curve" smooth="yes"/>
      <point x="264" y="-8"/>
      <point x="235" y="14"/>
      <point x="235" y="32" type="curve" smooth="yes"/>
      <point x="235" y="45"/>
      <point x="244" y="77"/>
      <point x="258" y="82" type="curve" smooth="yes"/>
      <point x="266" y="85"/>
      <point x="273" y="86"/>
    </contour>
  </outline>
</glyph>
<glyph name="Aogonek" format="2">
  <advance width="670"/>
  <unicode hex="0104"/>
  <anchor x="342" y="-213" name="bottom"/>
  <anchor x="352" y="764" name="top"/>
  <outline>
    <contour>
      <point x="174" y="230" type="curve" smooth="yes"/>
      <point x="174" y="231"/>
      <point x="175" y="271"/>
      <point x="229" y="275" type="curve"/>
      <point x="237" y="275" type="line" smooth="yes"/>
      <point x="249" y="275"/>
      <point x="262" y="273"/>
      <point x="276" y="273" type="curve" smooth="yes"/>
      <point x="345" y="273"/>
      <point x="413" y="277"/>
      <point x="481" y="284" type="curve"/>
      <point x="478" y="294"/>
      <point x="474" y="304"/>
      <point x="472" y="314" type="curve" smooth="yes"/>
      <point x="456" y="373"/>
      <point x="420" y="455"/>
      <point x="390" y="564" type="curve" smooth="yes"/>
      <point x="384" y="584"/>
      <point x="362" y="658"/>
      <point x="354" y="658" type="curve" smooth="yes"/>
      <point x="344" y="658"/>
      <point x="300" y="590"/>
      <point x="290" y="572" type="curve"/>
      <point x="284" y="563"/>
      <point x="277" y="555"/>
      <point x="271" y="545" type="curve" smooth="yes"/>
      <point x="212" y="430"/>
      <point x="184" y="308"/>
      <point x="146" y="160" type="curve" smooth="yes"/>
      <point x="141" y="139"/>
      <point x="128" y="54"/>
      <point x="122" y="20" type="curve"/>
      <point x="120" y="-5"/>
      <point x="100" y="-26"/>
      <point x="75" y="-31" type="curve"/>
      <point x="70" y="-31"/>
      <point x="66" y="-29"/>
      <point x="62" y="-27" type="curve" smooth="yes"/>
      <point x="57" y="-25"/>
      <point x="50" y="-25"/>
      <point x="48" y="-22" type="curve" smooth="yes"/>
      <point x="43" y="-17"/>
      <point x="40" y="-8"/>
      <point x="40" y="-2" type="curve" smooth="yes"/>
      <point x="40" y="2"/>
      <point x="43" y="5"/>
      <point x="45" y="10" type="curve" smooth="yes"/>
      <point x="47" y="16"/>
      <point x="48" y="22"/>
      <point x="50" y="28" type="curve" smooth="yes"/>
      <point x="57" y="67"/>
      <point x="63" y="106"/>
      <point x="70" y="143" type="curve"/>
      <point x="96" y="301"/>
      <point x="178" y="532"/>
      <point x="265" y="660" type="curve" smooth="yes"/>
      <point x="288" y="694"/>
      <point x="307" y="738"/>
      <point x="361" y="738" type="curve" smooth="yes"/>
      <point x="412" y="738"/>
      <point x="417" y="684"/>
      <point x="435" y="642" type="curve"/>
      <point x="457" y="587"/>
      <point x="538" y="313"/>
      <point x="549" y="287" type="curve"/>
      <point x="556" y="289"/>
      <point x="582" y="290"/>
      <point x="588" y="290" type="curve" smooth="yes"/>
      <point x="614" y="290"/>
      <point x="615" y="258"/>
      <point x="615" y="251" type="curve" smooth="yes"/>
      <point x="615" y="241"/>
      <point x="615" y="232"/>
      <point x="569" y="222" type="curve"/>
      <point x="583" y="172"/>
      <point x="606" y="100"/>
      <point x="613" y="81" type="curve" smooth="yes"/>
      <point x="615" y="75"/>
      <point x="622" y="70"/>
      <point x="624" y="64" type="curve"/>
      <point x="628" y="55"/>
      <point x="630" y="48"/>
      <point x="630" y="42" type="curve" smooth="yes"/>
      <point x="630" y="5"/>
      <point x="572" y="2"/>
      <point x="548" y="-22" type="curve" smooth="yes"/>
      <point x="530" y="-40"/>
      <point x="516" y="-66"/>
      <point x="516" y="-92" type="curve" smooth="yes"/>
      <point x="516" y="-103"/>
      <point x="516" y="-113"/>
      <point x="521" y="-122" type="curve" smooth="yes"/>
      <point x="531" y="-143"/>
      <point x="556" y="-175"/>
      <point x="582" y="-175" type="curve" smooth="yes"/>
      <point x="604" y="-175"/>
      <point x="611" y="-161"/>
      <point x="626" y="-161" type="curve" smooth="yes"/>
      <point x="635" y="-161"/>
      <point x="651" y="-169"/>
      <point x="651" y="-185" type="curve" smooth="yes"/>
      <point x="651" y="-213"/>
      <point x="610" y="-235"/>
      <point x="577" y="-235" type="curve" smooth="yes"/>
      <point x="562" y="-235"/>
      <point x="536" y="-235"/>
      <point x="522" y="-228" type="curve"/>
      <point x="506" y="-218"/>
      <point x="487" y="-207"/>
      <point x="476" y="-193" type="curve"/>
      <point x="458" y="-167"/>
      <point x="443" y="-137"/>
      <point x="443" y="-91" type="curve" smooth="yes"/>
      <point x="443" y="-50"/>
      <point x="460" y="-13"/>
      <point x="482" y="10" type="curve" smooth="yes"/>
      <point x="499" y="28"/>
      <point x="527" y="52"/>
      <point x="550" y="62" type="curve"/>
      <point x="532" y="113"/>
      <point x="516" y="163"/>
      <point x="501" y="215" type="curve"/>
      <point x="475" y="213"/>
      <point x="448" y="212"/>
      <point x="428" y="212" type="curve" smooth="yes"/>
      <point x="359" y="212"/>
      <point x="290" y="209"/>
      <point x="221" y="209" type="curve" smooth="yes"/>
      <point x="212" y="209"/>
      <point x="202" y="206"/>
      <point x="194" y="206" type="curve" smooth="yes"/>
      <point x="180" y="206"/>
      <point x="174" y="218"/>
    </contour>
  </outline>
</glyph>
